SplineFontDB: 3.2
FontName: EZSpecial-II
FullName: EZ Special-II
FamilyName: EZ Special-II
Weight: Book
Copyright: 
Version: 1.0
ItalicAngle: 0
UnderlinePosition: 0
UnderlineWidth: 0
Ascent: 800
Descent: 200
InvalidEm: 0
sfntRevision: 0x00000000
LayerCount: 2
Layer: 0 1 "Back" 1
Layer: 1 1 "Fore" 0
XUID: [1021 904 -49705511 25736]
StyleMap: 0x0040
FSType: 0
OS2Version: 0
OS2_WeightWidthSlopeOnly: 0
OS2_UseTypoMetrics: 0
CreationTime: -2082844800
ModificationTime: 1647065278
PfmFamily: 17
TTFWeight: 400
TTFWidth: 5
LineGap: 0
VLineGap: 0
Panose: 2 11 6 3 5 3 2 2 2 4
OS2TypoAscent: 2249
OS2TypoAOffset: 0
OS2TypoDescent: 107
OS2TypoDOffset: 0
OS2TypoLinegap: 0
OS2WinAscent: 2249
OS2WinAOffset: 0
OS2WinDescent: -107
OS2WinDOffset: 0
HheadAscent: 2249
HheadAOffset: 0
HheadDescent: 107
HheadDOffset: 0
OS2SubXSize: 0
OS2SubYSize: 0
OS2SubXOff: 0
OS2SubYOff: 0
OS2SupXSize: 0
OS2SupYSize: 0
OS2SupXOff: 0
OS2SupYOff: 0
OS2StrikeYSize: 0
OS2StrikeYPos: 0
OS2UnicodeRanges: 00000000.00000000.00000000.00000000
MarkAttachClasses: 1
DEI: 91125
ShortTable: maxp 16
  1
  0
  84
  279
  8
  0
  0
  1
  0
  16
  0
  0
  0
  0
  0
  0
EndShort
LangName: 1033 "" "" "Regular" "EZ Special-II"
Encoding: Mac
UnicodeInterp: none
NameList: AGL For New Fonts
DisplaySize: -48
AntiAlias: 1
FitToEm: 0
WinInfo: 0 38 12
BeginPrivate: 0
EndPrivate
BeginChars: 256 84

StartChar: .notdef
Encoding: 255 711 0
AltUni2: 0002db.ffffffff.0 0002dd.ffffffff.0 0000b8.ffffffff.0 0002da.ffffffff.0 0002d9.ffffffff.0 0002d8.ffffffff.0 0000af.ffffffff.0 0002dc.ffffffff.0 0002c6.ffffffff.0 000131.ffffffff.0 0000d9.ffffffff.0 0000db.ffffffff.0 0000da.ffffffff.0 0000d2.ffffffff.0 0000d4.ffffffff.0 0000d3.ffffffff.0 0000cc.ffffffff.0 0000cf.ffffffff.0 0000ce.ffffffff.0 0000cd.ffffffff.0 0000c8.ffffffff.0 0000cb.ffffffff.0 0000c1.ffffffff.0 0000ca.ffffffff.0 0000c2.ffffffff.0 002030.ffffffff.0 00201e.ffffffff.0 00201a.ffffffff.0 0000b7.ffffffff.0 002021.ffffffff.0 00fb02.ffffffff.0 00fb01.ffffffff.0 00203a.ffffffff.0 002039.ffffffff.0 0000a4.ffffffff.0 002044.ffffffff.0 000178.ffffffff.0 0000ff.ffffffff.0 0025ca.ffffffff.0 0000f7.ffffffff.0 002019.ffffffff.0 002018.ffffffff.0 00201d.ffffffff.0 00201c.ffffffff.0 002014.ffffffff.0 002013.ffffffff.0 000153.ffffffff.0 000152.ffffffff.0 0000d5.ffffffff.0 0000c3.ffffffff.0 0000c0.ffffffff.0 002026.ffffffff.0 0000bb.ffffffff.0 0000ab.ffffffff.0 002206.ffffffff.0 002248.ffffffff.0 000192.ffffffff.0 00221a.ffffffff.0 0000ac.ffffffff.0 0000a1.ffffffff.0 0000bf.ffffffff.0 0000f8.ffffffff.0 0000e6.ffffffff.0 002126.ffffffff.0 0000ba.ffffffff.0 0000aa.ffffffff.0 00222b.ffffffff.0 0003c0.ffffffff.0 00220f.ffffffff.0 002211.ffffffff.0 002202.ffffffff.0 0000b5.ffffffff.0 0000a5.ffffffff.0 002265.ffffffff.0 002264.ffffffff.0 0000b1.ffffffff.0 00221e.ffffffff.0 0000d8.ffffffff.0 0000c6.ffffffff.0 002260.ffffffff.0 0000a8.ffffffff.0 0000b4.ffffffff.0 002122.ffffffff.0 0000a9.ffffffff.0 0000ae.ffffffff.0 0000df.ffffffff.0 0000b6.ffffffff.0 002022.ffffffff.0 0000a7.ffffffff.0 0000a3.ffffffff.0 0000a2.ffffffff.0 0000b0.ffffffff.0 002020.ffffffff.0 0000fc.ffffffff.0 0000fb.ffffffff.0 0000f9.ffffffff.0 0000fa.ffffffff.0 0000f5.ffffffff.0 0000f6.ffffffff.0 0000f4.ffffffff.0 0000f2.ffffffff.0 0000f3.ffffffff.0 0000f1.ffffffff.0 0000ef.ffffffff.0 0000ee.ffffffff.0 0000ec.ffffffff.0 0000ed.ffffffff.0 0000eb.ffffffff.0 0000ea.ffffffff.0 0000e8.ffffffff.0 0000e9.ffffffff.0 0000e7.ffffffff.0 0000e5.ffffffff.0 0000e3.ffffffff.0 0000e4.ffffffff.0 0000e2.ffffffff.0 0000e0.ffffffff.0 0000e1.ffffffff.0 0000dc.ffffffff.0 0000d6.ffffffff.0 0000d1.ffffffff.0 0000c9.ffffffff.0 0000c7.ffffffff.0 0000c5.ffffffff.0 0000c4.ffffffff.0 00007f.ffffffff.0 00007b.ffffffff.0 000078.ffffffff.0 00006f.ffffffff.0 00006a.ffffffff.0 00005e.ffffffff.0 00005b.ffffffff.0 00005a.ffffffff.0 000058.ffffffff.0 000050.ffffffff.0 00004f.ffffffff.0 00004a.ffffffff.0 00002a.ffffffff.0 000028.ffffffff.0 000026.ffffffff.0 00001f.ffffffff.0 00001e.ffffffff.0 00001c.ffffffff.0 00001b.ffffffff.0 00001a.ffffffff.0 000019.ffffffff.0 000018.ffffffff.0 000017.ffffffff.0 000016.ffffffff.0 000015.ffffffff.0 000014.ffffffff.0 000013.ffffffff.0 000012.ffffffff.0 000011.ffffffff.0 000010.ffffffff.0 00000f.ffffffff.0 00000e.ffffffff.0 00000c.ffffffff.0 00000b.ffffffff.0 00000a.ffffffff.0 000007.ffffffff.0 000006.ffffffff.0 000005.ffffffff.0 000004.ffffffff.0 000003.ffffffff.0 000002.ffffffff.0 000001.ffffffff.0
Width: 0
VWidth: 345
Flags: W
LayerCount: 2
Fore
SplineSet
-840 964 m 1,0,1
 -912 1042 -912 1042 -913 1131 c 0,2,3
 -913 1214 -913 1214 -840 1298 c 1,4,-1
 -810 1298 l 1,5,6
 -833 1264 -833 1264 -843 1245 c 0,7,8
 -872 1190 -872 1190 -872 1131 c 0,9,10
 -872 1048 -872 1048 -810 964 c 1,11,-1
 -840 964 l 1,0,1
-73 964 m 1,12,-1
 -104 964 l 1,13,14
 -43 1047 -43 1047 -42 1131 c 0,15,16
 -42 1191 -42 1191 -71 1245 c 0,17,18
 -84 1268 -84 1268 -104 1297 c 1,19,-1
 -73 1297 l 1,20,21
 -1 1214 -1 1214 -1 1131 c 0,22,23
 -1 1043 -1 1043 -73 964 c 1,12,-1
-193 1230 m 128,-1,25
 -221 1266 -221 1266 -234 1298 c 1,26,-1
 -251 1298 l 1,27,28
 -268 1261 -268 1261 -296 1227 c 128,-1,29
 -324 1193 -324 1193 -377 1145 c 1,30,-1
 -377 1116 l 1,31,32
 -302 1151 -302 1151 -263 1189 c 1,33,-1
 -263 955 l 1,34,-1
 -226 955 l 1,35,-1
 -226 1189 l 1,36,37
 -190 1161 -190 1161 -172.5 1150 c 128,-1,38
 -155 1139 -155 1139 -111 1117 c 1,39,-1
 -111 1145 l 1,40,24
 -165 1194 -165 1194 -193 1230 c 128,-1,25
-755 1260 m 1,41,-1
 -432 1260 l 2,42,43
 -427 1260 -427 1260 -428 1251 c 1,44,-1
 -637 1046 l 1,45,-1
 -416 1046 l 1,46,-1
 -426 1002 l 1,47,-1
 -766 1002 l 2,48,49
 -770 1002 -770 1002 -770 1011 c 1,50,-1
 -562 1216 l 1,51,-1
 -769 1216 l 1,52,-1
 -755 1260 l 1,41,-1
EndSplineSet
EndChar

StartChar: Q
Encoding: 81 81 4
Width: 980
VWidth: 345
Flags: W
LayerCount: 2
Fore
SplineSet
521 491 m 256,0,1
 555 491 555 491 555 456 c 256,2,3
 555 422 555 422 521 422 c 256,4,5
 487 422 487 422 487 456 c 256,6,7
 487 491 487 491 521 491 c 256,0,1
719 491 m 0,8,9
 753 491 753 491 753 456 c 256,10,11
 753 422 753 422 719 422 c 0,12,13
 684 422 684 422 684 456 c 256,14,15
 684 491 684 491 719 491 c 0,8,9
739 287 m 1,16,-1
 743 347 l 1,17,18
 764 354 764 354 791 343 c 1,19,20
 792 303 792 303 786.5 208.5 c 128,-1,21
 781 114 781 114 777 -154 c 0,22,23
 777 -169 777 -169 774 -183.5 c 128,-1,24
 771 -198 771 -198 767 -201 c 0,25,26
 746 -218 746 -218 720 -205 c 0,27,28
 713 -202 713 -202 710 -184.5 c 128,-1,29
 707 -167 707 -167 707 -154 c 0,30,31
 707 -116 707 -116 710.5 -102 c 128,-1,32
 714 -88 714 -88 716 -77 c 0,33,34
 723 -17 723 -17 726 24.5 c 128,-1,35
 729 66 729 66 732 127 c 1,36,37
 690 68 690 68 607 76 c 0,38,39
 549 81 549 81 517.5 124.5 c 128,-1,40
 486 168 486 168 492 224 c 0,41,42
 498 279 498 279 537.5 313 c 128,-1,43
 577 347 577 347 635 342 c 0,44,45
 708 334 708 334 739 287 c 1,16,-1
671 311 m 0,46,47
 641 324 641 324 612 302.5 c 128,-1,48
 583 281 583 281 564 237 c 0,49,50
 544 193 544 193 551.5 152.5 c 128,-1,51
 559 112 559 112 588 99 c 0,52,53
 625 86 625 86 657.5 101.5 c 128,-1,54
 690 117 690 117 705 173 c 0,55,56
 732 284 732 284 671 311 c 0,46,47
919 1256 m 1,57,58
 935 1253 935 1253 933.5 1239.5 c 128,-1,59
 932 1226 932 1226 913 1224 c 1,60,61
 892 1217 892 1217 879.5 1171.5 c 128,-1,62
 867 1126 867 1126 852 1075 c 0,63,64
 818 956 818 956 790 882 c 128,-1,65
 762 808 762 808 737 778 c 128,-1,66
 712 748 712 748 677 733 c 0,67,68
 623 710 623 710 570.5 698.5 c 128,-1,69
 518 687 518 687 479 687 c 1,70,71
 498 642 498 642 543 624.5 c 128,-1,72
 588 607 588 607 569 587 c 0,73,74
 558 576 558 576 499.5 616 c 128,-1,75
 441 656 441 656 420 695 c 1,76,77
 420 720 420 720 440 716 c 128,-1,78
 460 712 460 712 484 710 c 256,79,80
 507 709 507 709 531.5 713 c 128,-1,81
 556 717 556 717 597 738 c 0,82,83
 617 748 617 748 635 783.5 c 128,-1,84
 653 819 653 819 667.5 862 c 128,-1,85
 682 905 682 905 692 947.5 c 128,-1,86
 702 990 702 990 718 1070 c 128,-1,87
 734 1150 734 1150 746 1177 c 128,-1,88
 758 1204 758 1204 779.5 1221 c 128,-1,89
 801 1238 801 1238 820.5 1242.5 c 128,-1,90
 840 1247 840 1247 863.5 1249.5 c 128,-1,91
 887 1252 887 1252 919 1256 c 1,57,58
EndSplineSet
EndChar

StartChar: r
Encoding: 114 114 5
Width: 930
VWidth: 345
Flags: W
LayerCount: 2
Fore
SplineSet
433 340 m 1,0,1
 392 310 392 310 379 260 c 0,2,3
 370 222 370 222 378 187 c 0,4,5
 387 151 387 151 452 187 c 0,6,7
 490 206 490 206 492 220 c 0,8,9
 494 232 494 232 501 254 c 0,10,11
 521 317 521 317 501 413 c 0,12,13
 497 437 497 437 498 485 c 256,14,15
 498 533 498 533 528 583 c 0,16,17
 544 609 544 609 580 616 c 0,18,19
 617 621 617 621 639 621 c 0,20,21
 697 621 697 621 725 567 c 1,22,23
 729 522 729 522 729 494 c 0,24,25
 728 465 728 465 730 442 c 0,26,27
 738 392 738 392 742 381 c 0,28,29
 745 367 745 367 790 364 c 1,30,31
 827 351 827 351 829 295 c 0,32,33
 830 258 830 258 826.5 222.5 c 128,-1,34
 823 187 823 187 829 152 c 0,35,36
 830 138 830 138 837 114 c 0,37,38
 842 96 842 96 876 86 c 0,39,40
 886 82 886 82 887 82 c 1,41,42
 887 78 887 78 847 83 c 128,-1,43
 807 88 807 88 798 92 c 0,44,45
 752 112 752 112 742 165 c 0,46,47
 735 199 735 199 737 232.5 c 128,-1,48
 739 266 739 266 733 301 c 0,49,50
 721 367 721 367 701 365 c 0,51,52
 680 364 680 364 657 392 c 0,53,54
 633 420 633 420 643 473 c 0,55,56
 654 527 654 527 626 538 c 0,57,58
 614 541 614 541 589 543 c 0,59,60
 561 544 561 544 549 529 c 1,61,62
 534 505 534 505 534 476 c 0,63,64
 533 454 533 454 532 414 c 1,65,66
 537 317 537 317 531 242 c 1,67,68
 531 216 531 216 526 182 c 0,69,70
 521 147 521 147 479 125 c 0,71,72
 396 81 396 81 344 143 c 0,73,74
 331 157 331 157 319 190 c 0,75,76
 306 221 306 221 316 266 c 0,77,78
 335 340 335 340 392 366 c 1,79,80
 434 382 434 382 446 382 c 0,81,82
 458 380 458 380 489 381 c 1,83,84
 515 366 515 366 489 363 c 0,85,86
 465 361 465 361 433 340 c 1,0,1
521 746 m 256,87,88
 555 746 555 746 555 711 c 0,89,90
 555 677 555 677 521 677 c 256,91,92
 487 677 487 677 487 711 c 0,93,94
 487 746 487 746 521 746 c 256,87,88
719 746 m 0,95,96
 753 746 753 746 753 711 c 0,97,98
 753 677 753 677 719 677 c 0,99,100
 684 677 684 677 684 711 c 0,101,102
 684 746 684 746 719 746 c 0,95,96
EndSplineSet
EndChar

StartChar: R
Encoding: 82 82 6
Width: 980
VWidth: 345
Flags: W
LayerCount: 2
Fore
SplineSet
433 84 m 1,0,1
 392 54 392 54 379 5 c 0,2,3
 370 -34 370 -34 378 -68 c 0,4,5
 387 -104 387 -104 452 -68 c 1,6,7
 490 -50 490 -50 492 -35 c 0,8,9
 494 -23 494 -23 501 -2 c 0,10,11
 521 61 521 61 501 158 c 0,12,13
 497 182 497 182 498 230 c 256,14,15
 498 278 498 278 528 328 c 0,16,17
 544 353 544 353 580 360 c 0,18,19
 615 366 615 366 639 366 c 0,20,21
 697 366 697 366 725 312 c 1,22,23
 729 267 729 267 729 239 c 0,24,25
 728 211 728 211 730 187 c 0,26,27
 738 137 738 137 742 126 c 0,28,29
 746 111 746 111 790 109 c 1,30,31
 827 95 827 95 829 40 c 0,32,33
 830 3 830 3 826.5 -32.5 c 128,-1,34
 823 -68 823 -68 829 -104 c 0,35,36
 830 -119 830 -119 837 -141 c 0,37,38
 841 -158 841 -158 876 -170 c 0,39,40
 886 -173 886 -173 887 -173 c 1,41,42
 887 -177 887 -177 847 -172.5 c 128,-1,43
 807 -168 807 -168 798 -163 c 0,44,45
 752 -142 752 -142 742 -90 c 0,46,47
 735 -57 735 -57 737 -23 c 128,-1,48
 739 11 739 11 733 45 c 0,49,50
 721 110 721 110 701 110 c 0,51,52
 680 108 680 108 657 137 c 0,53,54
 633 164 633 164 643 219 c 0,55,56
 654 273 654 273 626 283 c 0,57,58
 616 287 616 287 589 288 c 0,59,60
 561 288 561 288 549 274 c 0,61,62
 534 251 534 251 534 221 c 0,63,64
 534 206 534 206 533 190.5 c 128,-1,65
 532 175 532 175 532 159 c 0,66,67
 537 62 537 62 531 -12 c 1,68,69
 531 -38 531 -38 526 -73 c 0,70,71
 521 -108 521 -108 479 -130 c 0,72,73
 396 -174 396 -174 344 -113 c 0,74,75
 332 -100 332 -100 319 -65 c 0,76,77
 306 -34 306 -34 316 11 c 0,78,79
 335 85 335 85 392 111 c 1,80,81
 435 128 435 128 446 127 c 0,82,83
 460 125 460 125 489 126 c 1,84,85
 514 110 514 110 489 108 c 0,86,87
 464 104 464 104 433 84 c 1,0,1
521 491 m 256,88,89
 555 491 555 491 555 456 c 256,90,91
 555 422 555 422 521 422 c 256,92,93
 487 422 487 422 487 456 c 256,94,95
 487 491 487 491 521 491 c 256,88,89
719 491 m 0,96,97
 753 491 753 491 753 456 c 256,98,99
 753 422 753 422 719 422 c 0,100,101
 684 422 684 422 684 456 c 256,102,103
 684 491 684 491 719 491 c 0,96,97
919 1256 m 1,104,105
 935 1253 935 1253 933.5 1239.5 c 128,-1,106
 932 1226 932 1226 913 1224 c 1,107,108
 892 1217 892 1217 879.5 1171.5 c 128,-1,109
 867 1126 867 1126 852 1075 c 0,110,111
 818 956 818 956 790 882 c 128,-1,112
 762 808 762 808 737 778 c 128,-1,113
 712 748 712 748 677 733 c 0,114,115
 623 710 623 710 570.5 698.5 c 128,-1,116
 518 687 518 687 479 687 c 1,117,118
 498 642 498 642 543 624.5 c 128,-1,119
 588 607 588 607 569 587 c 0,120,121
 558 576 558 576 499.5 616 c 128,-1,122
 441 656 441 656 420 695 c 1,123,124
 420 720 420 720 440 716 c 128,-1,125
 460 712 460 712 484 710 c 256,126,127
 507 709 507 709 531.5 713 c 128,-1,128
 556 717 556 717 597 738 c 0,129,130
 617 748 617 748 635 783.5 c 128,-1,131
 653 819 653 819 667.5 862 c 128,-1,132
 682 905 682 905 692 947.5 c 128,-1,133
 702 990 702 990 718 1070 c 128,-1,134
 734 1150 734 1150 746 1177 c 128,-1,135
 758 1204 758 1204 779.5 1221 c 128,-1,136
 801 1238 801 1238 820.5 1242.5 c 128,-1,137
 840 1247 840 1247 863.5 1249.5 c 128,-1,138
 887 1252 887 1252 919 1256 c 1,104,105
EndSplineSet
EndChar

StartChar: w
Encoding: 119 119 7
Width: 1232
VWidth: 345
Flags: W
LayerCount: 2
Fore
SplineSet
386 689 m 0,0,1
 400 727 400 727 467 716 c 0,2,3
 481 713 481 713 483.5 684.5 c 128,-1,4
 486 656 486 656 464 623 c 0,5,6
 446 600 446 600 449 575 c 128,-1,7
 452 550 452 550 504 545 c 1,8,9
 562 536 562 536 628.5 537 c 128,-1,10
 695 538 695 538 841.5 552.5 c 128,-1,11
 988 567 988 567 1076 567 c 0,12,13
 1121 567 1121 567 1147.5 526.5 c 128,-1,14
 1174 486 1174 486 1169 440 c 0,15,16
 1160 363 1160 363 1101 369 c 0,17,18
 1086 370 1086 370 1072.5 389 c 128,-1,19
 1059 408 1059 408 1071 435 c 256,20,21
 1083 461 1083 461 1099 462.5 c 128,-1,22
 1115 464 1115 464 1121 489 c 0,23,24
 1132 531 1132 531 1079 529 c 0,25,26
 916 520 916 520 770.5 504.5 c 128,-1,27
 625 489 625 489 536 504 c 0,28,29
 492 511 492 511 446 534 c 128,-1,30
 400 557 400 557 385 608 c 0,31,32
 372 652 372 652 386 689 c 0,0,1
708 689 m 256,33,34
 742 689 742 689 742 655 c 0,35,36
 742 620 742 620 708 620 c 256,37,38
 674 620 674 620 674 655 c 0,39,40
 674 689 674 689 708 689 c 256,33,34
860 689 m 0,41,42
 895 689 895 689 895 655 c 0,43,44
 895 620 895 620 860 620 c 0,45,46
 826 620 826 620 826 655 c 0,47,48
 826 689 826 689 860 689 c 0,41,42
EndSplineSet
EndChar

StartChar: e
Encoding: 101 101 8
Width: 1020
VWidth: 345
Flags: W
LayerCount: 2
Fore
SplineSet
743 700 m 256,0,1
 777 700 777 700 777 666 c 256,2,3
 777 632 777 632 743 632 c 256,4,5
 709 632 709 632 709 666 c 256,6,7
 709 700 709 700 743 700 c 256,0,1
500 700 m 256,8,9
 534 700 534 700 535 666 c 256,10,11
 535 632 535 632 500 632 c 256,12,13
 466 632 466 632 466 666 c 256,14,15
 466 700 466 700 500 700 c 256,8,9
688 101 m 1,16,17
 684 93 684 93 655 95.5 c 128,-1,18
 626 98 626 98 595 117 c 128,-1,19
 564 136 564 136 541 174.5 c 128,-1,20
 518 213 518 213 526 279 c 0,21,22
 538 384 538 384 529.5 451 c 128,-1,23
 521 518 521 518 461 505 c 0,24,25
 423 496 423 496 441.5 462.5 c 128,-1,26
 460 429 460 429 419 416 c 0,27,28
 401 410 401 410 385.5 423.5 c 128,-1,29
 370 437 370 437 370 456 c 0,30,31
 370 502 370 502 410 517 c 0,32,33
 432 525 432 525 468 525.5 c 128,-1,34
 504 526 504 526 533 508 c 0,35,36
 588 472 588 472 604 428.5 c 128,-1,37
 620 385 620 385 620 222 c 0,38,39
 620 143 620 143 655 129.5 c 128,-1,40
 690 116 690 116 688 101 c 1,16,17
970 101 m 1,41,42
 966 93 966 93 937 95.5 c 128,-1,43
 908 98 908 98 877 117 c 128,-1,44
 846 136 846 136 823 174.5 c 128,-1,45
 800 213 800 213 808 279 c 0,46,47
 820 384 820 384 811.5 451 c 128,-1,48
 803 518 803 518 743 505 c 0,49,50
 705 496 705 496 723.5 462.5 c 128,-1,51
 742 429 742 429 701 416 c 0,52,53
 682 410 682 410 667 423.5 c 128,-1,54
 652 437 652 437 652 456 c 0,55,56
 652 502 652 502 692 517 c 0,57,58
 714 525 714 525 750.5 525.5 c 128,-1,59
 787 526 787 526 815 508 c 0,60,61
 870 472 870 472 886 428.5 c 128,-1,62
 902 385 902 385 902 222 c 0,63,64
 902 143 902 143 937 129.5 c 128,-1,65
 972 116 972 116 970 101 c 1,41,42
EndSplineSet
EndChar

StartChar: E
Encoding: 69 69 9
Width: 1485
VWidth: 345
Flags: W
LayerCount: 2
Fore
SplineSet
368 565 m 2,0,-1
 1339 565 l 2,1,2
 1355 565 1355 565 1354.5 544 c 128,-1,3
 1354 523 1354 523 1339 523 c 2,4,-1
 368 523 l 2,5,6
 351 523 351 523 351.5 544 c 128,-1,7
 352 565 352 565 368 565 c 2,0,-1
1048 462 m 0,8,9
 1085 462 1085 462 1084 426 c 256,10,11
 1084 389 1084 389 1048 389 c 128,-1,12
 1012 389 1012 389 1012 426 c 256,13,14
 1012 462 1012 462 1048 462 c 0,8,9
790 462 m 0,15,16
 826 462 826 462 826 426 c 256,17,18
 826 389 826 389 790 389 c 0,19,20
 753 389 753 389 753 426 c 256,21,22
 753 462 753 462 790 462 c 0,15,16
572 229 m 1,23,24
 555 240 555 240 540.5 255.5 c 128,-1,25
 526 271 526 271 494 282 c 128,-1,26
 462 293 462 293 420.5 275 c 128,-1,27
 379 257 379 257 397 225 c 0,28,29
 425 177 425 177 468.5 185 c 128,-1,30
 512 193 512 193 572 229 c 1,23,24
594 200 m 1,31,32
 564 181 564 181 541 164 c 128,-1,33
 518 147 518 147 495 135 c 0,34,35
 449 112 449 112 397 126 c 0,36,37
 346 139 346 139 339.5 181.5 c 128,-1,38
 333 224 333 224 343 248 c 0,39,40
 347 260 347 260 363 279.5 c 128,-1,41
 379 299 379 299 427 308 c 0,42,43
 450 312 450 312 501 307.5 c 128,-1,44
 552 303 552 303 638 233 c 0,45,46
 672 205 672 205 743 139.5 c 128,-1,47
 814 74 814 74 861 52 c 0,48,49
 872 47 872 47 892 46 c 128,-1,50
 912 45 912 45 921 46 c 0,51,52
 947 48 947 48 997.5 84 c 128,-1,53
 1048 120 1048 120 1098 163 c 128,-1,54
 1148 206 1148 206 1185.5 241.5 c 0,55,-1
 1223 277 l 2,56,57
 1232 284 1232 284 1264 287.5 c 128,-1,58
 1296 291 1296 291 1329.5 291.5 c 128,-1,59
 1363 292 1363 292 1389 288.5 c 128,-1,60
 1415 285 1415 285 1413 278 c 0,61,62
 1410 266 1410 266 1392.5 260.5 c 128,-1,63
 1375 255 1375 255 1365 254 c 1,64,65
 1279 192 1279 192 1203 117 c 128,-1,66
 1127 42 1127 42 1032 21 c 0,67,68
 982 10 982 10 943 8 c 128,-1,69
 904 6 904 6 854 17 c 1,70,71
 774 47 774 47 710.5 93.5 c 128,-1,72
 647 140 647 140 594 200 c 1,31,32
EndSplineSet
EndChar

StartChar: b
Encoding: 98 98 10
Width: 0
VWidth: 345
Flags: W
LayerCount: 2
Fore
SplineSet
-704 964 m 1,0,1
 -776 1042 -776 1042 -776 1131 c 0,2,3
 -776 1214 -776 1214 -704 1298 c 1,4,-1
 -673 1298 l 1,5,6
 -694 1267 -694 1267 -706 1245 c 0,7,8
 -735 1188 -735 1188 -735 1131 c 0,9,10
 -735 1048 -735 1048 -673 964 c 1,11,-1
 -704 964 l 1,0,1
-112 964 m 1,12,-1
 -143 964 l 1,13,14
 -82 1047 -82 1047 -82 1131 c 0,15,16
 -82 1189 -82 1189 -110 1245 c 0,17,18
 -121 1266 -121 1266 -143 1297 c 1,19,-1
 -112 1297 l 1,20,21
 -40 1214 -40 1214 -40 1131 c 0,22,23
 -40 1043 -40 1043 -112 964 c 1,12,-1
-505 1044 m 1,24,-1
 -359 1044 l 2,25,26
 -349 1044 -349 1044 -327.5 1049.5 c 128,-1,27
 -306 1055 -306 1055 -306 1078 c 0,28,29
 -306 1099 -306 1099 -327.5 1107.5 c 128,-1,30
 -349 1116 -349 1116 -365 1116 c 2,31,-1
 -505 1116 l 1,32,-1
 -505 1044 l 1,24,-1
-579 1003 m 1,33,-1
 -579 1260 l 1,34,-1
 -361 1260 l 2,35,36
 -332 1260 -332 1260 -287.5 1246.5 c 128,-1,37
 -243 1233 -243 1233 -243 1194 c 0,38,39
 -243 1157 -243 1157 -293 1139 c 1,40,41
 -269 1134 -269 1134 -247.5 1119 c 128,-1,42
 -226 1104 -226 1104 -226 1076 c 0,43,44
 -226 1026 -226 1026 -274.5 1014 c 128,-1,45
 -323 1002 -323 1002 -359 1002 c 2,46,-1
 -579 1003 l 1,33,-1
-505 1156 m 1,47,-1
 -371 1156 l 2,48,49
 -357 1156 -357 1156 -338.5 1160.5 c 128,-1,50
 -320 1165 -320 1165 -320 1185 c 0,51,52
 -320 1210 -320 1210 -339 1214.5 c 128,-1,53
 -358 1219 -358 1219 -376 1219 c 2,54,-1
 -505 1219 l 1,55,-1
 -505 1156 l 1,47,-1
EndSplineSet
EndChar

StartChar: s
Encoding: 115 115 11
Width: 1009
VWidth: 345
Flags: W
LayerCount: 2
Fore
SplineSet
914 438 m 0,0,1
 950 438 950 438 950 402 c 256,2,3
 950 366 950 366 914 366 c 0,4,5
 878 366 878 366 878 402 c 256,6,7
 878 438 878 438 914 438 c 0,0,1
443 789 m 1,8,9
 464 761 464 761 482 758.5 c 128,-1,10
 500 756 500 756 519 759 c 0,11,12
 546 764 546 764 545 797.5 c 128,-1,13
 544 831 544 831 512 828 c 0,14,15
 481 825 481 825 469.5 816 c 128,-1,16
 458 807 458 807 443 789 c 1,8,9
354 513 m 1,17,18
 345 559 345 559 344 602 c 128,-1,19
 343 645 343 645 346 664 c 0,20,21
 351 698 351 698 359.5 729.5 c 128,-1,22
 368 761 368 761 381 782 c 0,23,24
 400 814 400 814 430.5 836.5 c 128,-1,25
 461 859 461 859 499 862 c 0,26,27
 539 864 539 864 557 844 c 128,-1,28
 575 824 575 824 575 799 c 128,-1,29
 575 774 575 774 559.5 752 c 128,-1,30
 544 730 544 730 518 728 c 0,31,32
 473 724 473 724 455.5 734 c 128,-1,33
 438 744 438 744 420 760 c 1,34,35
 409 742 409 742 395 713 c 128,-1,36
 381 684 381 684 376 657 c 0,37,38
 371 629 371 629 375 608 c 1,39,40
 392 640 392 640 421.5 661 c 128,-1,41
 451 682 451 682 489 682 c 0,42,43
 552 682 552 682 590 633 c 128,-1,44
 628 584 628 584 628 524 c 0,45,46
 628 462 628 462 591 414 c 128,-1,47
 554 366 554 366 491 366 c 0,48,49
 429 366 429 366 392.5 410 c 128,-1,50
 356 454 356 454 354 513 c 1,17,18
412 431 m 0,51,52
 434 414 434 414 460 415.5 c 128,-1,53
 486 417 486 417 506 431 c 0,54,55
 524 444 524 444 544 465 c 128,-1,56
 564 486 564 486 574 507 c 0,57,58
 587 536 587 536 587 562.5 c 128,-1,59
 587 589 587 589 580 605 c 0,60,61
 565 636 565 636 530.5 634 c 128,-1,62
 496 632 496 632 473 617 c 0,63,64
 414 577 414 577 397 504 c 0,65,66
 393 487 393 487 394.5 464.5 c 128,-1,67
 396 442 396 442 412 431 c 0,51,52
721 700 m 1,68,-1
 739 783 l 2,69,70
 746 818 746 818 751 830 c 0,71,72
 765 863 765 863 793 860 c 0,73,74
 827 857 827 857 810 824 c 0,75,76
 806 815 806 815 783 778 c 2,77,-1
 734 699 l 1,78,-1
 721 700 l 1,68,-1
EndSplineSet
EndChar

StartChar: a
Encoding: 97 97 12
Width: 1019
VWidth: 345
Flags: W
LayerCount: 2
Fore
SplineSet
558 668 m 1,0,1
 564 682 564 682 592 681.5 c 128,-1,2
 620 681 620 681 620 662 c 0,3,4
 620 651 620 651 606.5 627 c 128,-1,5
 593 603 593 603 585 594 c 0,6,7
 578 585 578 585 562.5 551.5 c 128,-1,8
 547 518 547 518 533 488 c 1,9,10
 533 482 533 482 537.5 469 c 128,-1,11
 542 456 542 456 545 448 c 0,12,13
 552 432 552 432 570 423 c 0,14,15
 581 417 581 417 593.5 439 c 128,-1,16
 606 461 606 461 621 458 c 0,17,18
 635 455 635 455 637 435.5 c 128,-1,19
 639 416 639 416 626 392 c 0,20,21
 611 366 611 366 587 366 c 0,22,23
 568 366 568 366 560 376 c 0,24,25
 545 393 545 393 534 414.5 c 128,-1,26
 523 436 523 436 516 457 c 1,27,28
 479 410 479 410 454 388 c 128,-1,29
 429 366 429 366 398 366 c 0,30,31
 339 366 339 366 315 411.5 c 128,-1,32
 291 457 291 457 296 515 c 0,33,34
 301 568 301 568 337.5 622 c 128,-1,35
 374 676 374 676 441 670 c 0,36,37
 472 667 472 667 493 641 c 128,-1,38
 514 615 514 615 518 584 c 1,39,40
 528 607 528 607 536 627 c 128,-1,41
 544 647 544 647 558 668 c 1,0,1
340 421 m 0,42,43
 361 404 361 404 386.5 411 c 128,-1,44
 412 418 412 418 430 433 c 0,45,46
 446 446 446 446 467.5 479 c 128,-1,47
 489 512 489 512 496 533 c 0,48,49
 499 543 499 543 498.5 564.5 c 128,-1,50
 498 586 498 586 491 601 c 0,51,52
 475 631 475 631 438 623.5 c 128,-1,53
 401 616 401 616 379 603 c 0,54,55
 361 592 361 592 346 571.5 c 128,-1,56
 331 551 331 551 326 520 c 0,57,58
 320 489 320 489 322.5 460.5 c 128,-1,59
 325 432 325 432 340 421 c 0,42,43
726 700 m 1,60,-1
 744 783 l 2,61,62
 751 818 751 818 756 830 c 0,63,64
 770 863 770 863 798 860 c 0,65,66
 832 857 832 857 814 824 c 0,67,68
 810 815 810 815 788 778 c 2,69,-1
 739 699 l 1,70,-1
 726 700 l 1,60,-1
919 438 m 0,71,72
 955 438 955 438 955 402 c 256,73,74
 955 366 955 366 919 366 c 0,75,76
 883 366 883 366 883 402 c 256,77,78
 883 438 883 438 919 438 c 0,71,72
EndSplineSet
EndChar

StartChar: f
Encoding: 102 102 13
Width: 1000
VWidth: 345
Flags: W
LayerCount: 2
Fore
SplineSet
711 700 m 1,0,-1
 729 783 l 2,1,2
 736 818 736 818 742 830 c 0,3,4
 756 863 756 863 784 860 c 0,5,6
 818 857 818 857 800 824 c 0,7,8
 796 815 796 815 773 778 c 2,9,-1
 724 699 l 1,10,-1
 711 700 l 1,0,-1
904 438 m 0,11,12
 940 438 940 438 940 402 c 256,13,14
 940 366 940 366 904 366 c 0,15,16
 868 366 868 366 868 402 c 256,17,18
 868 438 868 438 904 438 c 0,11,12
458 680 m 1,19,20
 409 712 409 712 374 757 c 1,21,22
 345 798 345 798 380 840 c 0,23,24
 400 863 400 863 451 845 c 0,25,26
 501 826 501 826 533 817.5 c 128,-1,27
 565 809 565 809 573 806 c 0,28,29
 608 792 608 792 577 763 c 0,30,31
 565 751 565 751 547.5 754.5 c 128,-1,32
 530 758 530 758 522 763 c 0,33,34
 394 824 394 824 386 812 c 0,35,36
 370 791 370 791 398 762 c 0,37,38
 407 752 407 752 429.5 733.5 c 128,-1,39
 452 715 452 715 482 696 c 0,40,41
 493 689 493 689 506 683.5 c 128,-1,42
 519 678 519 678 530 672 c 0,43,44
 571 654 571 654 594.5 612.5 c 128,-1,45
 618 571 618 571 618 524 c 0,46,47
 618 462 618 462 581 414 c 128,-1,48
 544 366 544 366 481 366 c 256,49,50
 418 366 418 366 381 413 c 128,-1,51
 344 460 344 460 344 521 c 0,52,53
 344 575 344 575 374.5 622.5 c 128,-1,54
 405 670 405 670 458 680 c 1,19,20
400 428 m 0,55,56
 423 411 423 411 449.5 412.5 c 128,-1,57
 476 414 476 414 496 428 c 0,58,59
 515 441 515 441 535.5 463 c 128,-1,60
 556 485 556 485 566 506 c 0,61,62
 580 537 580 537 580 564 c 128,-1,63
 580 591 580 591 572 607 c 0,64,65
 556 639 556 639 521 637.5 c 128,-1,66
 486 636 486 636 463 620 c 0,67,68
 402 578 402 578 384 503 c 0,69,70
 380 485 380 485 382 462 c 128,-1,71
 384 439 384 439 400 428 c 0,55,56
EndSplineSet
EndChar

StartChar: u
Encoding: 117 117 14
Width: 2099
VWidth: 345
Flags: W
LayerCount: 2
Fore
SplineSet
1886 674 m 0,0,1
 1914 669 1914 669 1900.5 637.5 c 128,-1,2
 1887 606 1887 606 1858 606 c 0,3,4
 1808 606 1808 606 1771.5 609 c 128,-1,5
 1735 612 1735 612 1716 572 c 0,6,7
 1702 544 1702 544 1703 512 c 0,8,9
 1703 428 1703 428 1791 428 c 0,10,11
 1809 428 1809 428 1826 428.5 c 128,-1,12
 1843 429 1843 429 1861 429 c 0,13,14
 1906 428 1906 428 1928 391 c 0,15,16
 1941 367 1941 367 1941 347 c 0,17,18
 1941 325 1941 325 1933 302 c 0,19,20
 1925 280 1925 280 1909 262 c 0,21,22
 1892 243 1892 243 1874 238 c 0,23,24
 1854 233 1854 233 1840 232 c 0,25,26
 1818 232 1818 232 1803 243 c 256,27,28
 1788 254 1788 254 1788 271 c 0,29,30
 1788 308 1788 308 1822 308 c 0,31,32
 1827 308 1827 308 1854 303 c 0,33,34
 1861 302 1861 302 1864 297.5 c 128,-1,35
 1867 293 1867 293 1872 293 c 0,36,37
 1912 293 1912 293 1911 334 c 2,38,-1
 1911 338 l 2,39,40
 1911 352 1911 352 1898.5 362 c 128,-1,41
 1886 372 1886 372 1862 369 c 0,42,43
 1857 368 1857 368 1836.5 366.5 c 128,-1,44
 1816 365 1816 365 1809 366 c 0,45,46
 1760 373 1760 373 1719 416 c 128,-1,47
 1678 459 1678 459 1678 508 c 0,48,49
 1678 544 1678 544 1696 586 c 0,50,51
 1746 698 1746 698 1886 674 c 0,0,1
333 716 m 0,52,53
 334 790 334 790 383 838 c 0,54,55
 401 855 401 855 425 868 c 128,-1,56
 449 881 449 881 475 881 c 0,57,58
 514 881 514 881 555 858.5 c 0,59,60
 596 837 596 837 607 783 c 1,61,62
 618 747 618 747 598 717.5 c 128,-1,63
 578 688 578 688 550 669 c 1,64,65
 565 655 565 655 586 636 c 128,-1,66
 607 617 607 617 622 594 c 0,67,68
 636 571 636 571 642.5 555 c 128,-1,69
 649 539 649 539 649 513 c 0,70,71
 649 451 649 451 607 407 c 1,72,73
 564 366 564 366 501 366 c 0,74,75
 459 366 459 366 428 385 c 128,-1,76
 397 404 397 404 399 409 c 0,77,78
 406 421 406 421 424 413 c 0,79,80
 434 407 434 407 450 402.5 c 128,-1,81
 466 398 466 398 492 408 c 0,82,83
 517 418 517 418 547.5 454.5 c 128,-1,84
 578 491 578 491 585 523 c 0,85,86
 596 571 596 571 586 590.5 c 128,-1,87
 576 610 576 610 555 635 c 0,88,89
 542 648 542 648 532 654 c 1,90,91
 519 647 519 647 507 645.5 c 128,-1,92
 495 644 495 644 481 644 c 0,93,94
 447 644 447 644 447 678 c 1,95,96
 449 711 449 711 490 710 c 0,97,98
 502 710 502 710 509.5 705.5 c 128,-1,99
 517 701 517 701 522 698 c 1,100,101
 540 713 540 713 562 730.5 c 128,-1,102
 584 748 584 748 581 771 c 0,103,104
 571 845 571 845 486 854 c 0,105,106
 466 856 466 856 443.5 841 c 128,-1,107
 421 826 421 826 404 807 c 0,108,109
 386 786 386 786 373.5 759.5 c 128,-1,110
 361 733 361 733 362 716 c 0,111,112
 362 695 362 695 360.5 627 c 128,-1,113
 359 559 359 559 362 524 c 0,114,115
 366 466 366 466 370.5 429 c 128,-1,116
 375 392 375 392 390 317 c 0,117,118
 393 302 393 302 401.5 292 c 128,-1,119
 410 282 410 282 416 241 c 1,120,121
 420 180 420 180 381 180 c 0,122,123
 363 180 363 180 348 198 c 128,-1,124
 333 216 333 216 332 257 c 0,125,126
 331 310 331 310 331.5 364 c 128,-1,127
 332 418 332 418 331 480 c 1,128,129
 331 479 331 479 331 506 c 128,-1,130
 331 533 331 533 331.5 571 c 128,-1,131
 332 609 332 609 332.5 649.5 c 128,-1,132
 333 690 333 690 333 716 c 0,52,53
1073 395 m 0,133,134
 1073 427 1073 427 1069 459 c 128,-1,135
 1065 491 1065 491 1065 523 c 0,136,137
 1065 582 1065 582 1100 632 c 128,-1,138
 1135 682 1135 682 1197 682 c 0,139,140
 1260 682 1260 682 1298 633 c 128,-1,141
 1336 584 1336 584 1336 524 c 0,142,143
 1336 462 1336 462 1299 414 c 128,-1,144
 1262 366 1262 366 1199 366 c 0,145,146
 1140 366 1140 366 1101 411 c 1,147,148
 1103 383 1103 383 1104.5 364 c 128,-1,149
 1106 345 1106 345 1113 317 c 0,150,151
 1116 302 1116 302 1130 286.5 c 128,-1,152
 1144 271 1144 271 1151 233 c 0,153,154
 1155 214 1155 214 1145.5 197.5 c 128,-1,155
 1136 181 1136 181 1119 181 c 0,156,157
 1076 181 1076 181 1076 242 c 0,158,159
 1075 282 1075 282 1074 319.5 c 128,-1,160
 1073 357 1073 357 1073 395 c 0,133,134
1117 427 m 0,161,162
 1140 409 1140 409 1167 410.5 c 128,-1,163
 1194 412 1194 412 1214 428 c 0,164,165
 1233 441 1233 441 1254 462.5 c 128,-1,166
 1275 484 1275 484 1285 506 c 0,167,168
 1299 537 1299 537 1298.5 564.5 c 128,-1,169
 1298 592 1298 592 1291 608 c 0,170,171
 1275 641 1275 641 1239.5 639 c 128,-1,172
 1204 637 1204 637 1180 621 c 0,173,174
 1120 580 1120 580 1101 503 c 0,175,176
 1097 485 1097 485 1099 462 c 128,-1,177
 1101 439 1101 439 1117 427 c 0,161,162
1379 684 m 0,178,179
 1398 686 1398 686 1413 667 c 0,180,181
 1422 654 1422 654 1421 632.5 c 128,-1,182
 1420 611 1420 611 1417 581 c 0,183,184
 1395 393 1395 393 1491 393 c 0,185,186
 1544 393 1544 393 1561.5 453.5 c 128,-1,187
 1579 514 1579 514 1577 554 c 0,188,189
 1575 598 1575 598 1569.5 623.5 c 128,-1,190
 1564 649 1564 649 1541 670 c 1,191,-1
 1545 683 l 1,192,193
 1569 675 1569 675 1583 662 c 0,194,195
 1604 642 1604 642 1620 603.5 c 128,-1,196
 1636 565 1636 565 1636 525 c 0,197,198
 1636 455 1636 455 1599.5 410.5 c 128,-1,199
 1563 366 1563 366 1499 366 c 0,200,201
 1438 366 1438 366 1412 407.5 c 128,-1,202
 1386 449 1386 449 1386 500 c 0,203,204
 1386 521 1386 521 1387.5 553.5 c 128,-1,205
 1389 586 1389 586 1383 595 c 0,206,207
 1374 607 1374 607 1366 615.5 c 128,-1,208
 1358 624 1358 624 1355 637 c 0,209,210
 1351 649 1351 649 1356 665.5 c 128,-1,211
 1361 682 1361 682 1379 684 c 0,178,179
1448 701 m 1,212,-1
 1509 801 l 2,213,214
 1530 837 1530 837 1546 836 c 0,215,216
 1556 836 1556 836 1557 819 c 0,217,218
 1557 789 1557 789 1529 762 c 2,219,-1
 1471 705 l 1,220,-1
 1448 701 l 1,212,-1
729 423 m 0,221,222
 750 405 750 405 775.5 412 c 128,-1,223
 801 419 801 419 818 434 c 0,224,225
 834 447 834 447 856 479.5 c 128,-1,226
 878 512 878 512 886 534 c 0,227,228
 889 544 889 544 888 565.5 c 128,-1,229
 887 587 887 587 880 602 c 0,230,231
 864 632 864 632 827.5 624.5 c 128,-1,232
 791 617 791 617 769 604 c 0,233,234
 751 593 751 593 735.5 572.5 c 128,-1,235
 720 552 720 552 715 521 c 256,236,237
 710 490 710 490 712 462 c 128,-1,238
 714 434 714 434 729 423 c 0,221,222
947 670 m 0,239,240
 953 683 953 683 981 682.5 c 128,-1,241
 1009 682 1009 682 1009 663 c 0,242,243
 1009 652 1009 652 995.5 628 c 128,-1,244
 982 604 982 604 975 595 c 128,-1,245
 968 586 968 586 952.5 552.5 c 128,-1,246
 937 519 937 519 922 489 c 1,247,248
 922 483 922 483 926.5 470 c 128,-1,249
 931 457 931 457 935 449 c 0,250,251
 941 434 941 434 959 424 c 0,252,253
 970 418 970 418 983 440 c 128,-1,254
 996 462 996 462 1010 459 c 128,-1,255
 1024 456 1024 456 1026 436.5 c 128,-1,256
 1028 417 1028 417 1016 394 c 0,257,258
 1001 367 1001 367 976 367 c 0,259,260
 957 367 957 367 949 377 c 0,261,262
 923 407 923 407 905 458 c 1,263,264
 868 411 868 411 843 389 c 128,-1,265
 818 367 818 367 788 367 c 0,266,267
 729 367 729 367 704.5 412.5 c 128,-1,268
 680 458 680 458 686 516 c 0,269,270
 691 569 691 569 727 623 c 128,-1,271
 763 677 763 677 830 671 c 0,272,273
 861 668 861 668 882 642 c 128,-1,274
 903 616 903 616 907 585 c 1,275,276
 917 608 917 608 925 628.5 c 128,-1,277
 933 649 933 649 947 670 c 0,239,240
EndSplineSet
EndChar

StartChar: c
Encoding: 99 99 15
Width: 0
VWidth: 345
Flags: W
LayerCount: 2
Fore
SplineSet
-743 964 m 1,0,1
 -815 1042 -815 1042 -815 1131 c 0,2,3
 -815 1214 -815 1214 -743 1298 c 1,4,-1
 -712 1298 l 1,5,6
 -735 1264 -735 1264 -745 1245 c 0,7,8
 -774 1190 -774 1190 -774 1131 c 0,9,10
 -774 1048 -774 1048 -712 964 c 1,11,-1
 -743 964 l 1,0,1
-98 964 m 1,12,-1
 -128 964 l 1,13,14
 -67 1047 -67 1047 -67 1131 c 0,15,16
 -67 1191 -67 1191 -95 1245 c 0,17,18
 -108 1268 -108 1268 -128 1297 c 1,19,-1
 -98 1297 l 1,20,21
 -26 1214 -26 1214 -25 1131 c 0,22,23
 -26 1043 -26 1043 -98 964 c 1,12,-1
-606 1002 m 1,24,-1
 -606 1260 l 1,25,-1
 -527 1260 l 1,26,-1
 -279 1081 l 1,27,-1
 -279 1260 l 1,28,-1
 -234 1260 l 1,29,-1
 -234 1002 l 1,30,-1
 -278 1002 l 1,31,-1
 -562 1206 l 1,32,-1
 -562 1002 l 1,33,-1
 -606 1002 l 1,24,-1
EndSplineSet
EndChar

StartChar: v
Encoding: 118 118 16
Width: 0
VWidth: 345
Flags: W
LayerCount: 2
Fore
SplineSet
-718 964 m 1,0,1
 -790 1042 -790 1042 -791 1131 c 0,2,3
 -791 1214 -791 1214 -718 1298 c 1,4,-1
 -688 1298 l 1,5,6
 -711 1264 -711 1264 -721 1245 c 0,7,8
 -750 1190 -750 1190 -750 1131 c 0,9,10
 -750 1048 -750 1048 -688 964 c 1,11,-1
 -718 964 l 1,0,1
-122 964 m 1,12,-1
 -152 964 l 1,13,14
 -91 1047 -91 1047 -91 1131 c 0,15,16
 -91 1191 -91 1191 -120 1245 c 0,17,18
 -133 1268 -133 1268 -152 1297 c 1,19,-1
 -122 1297 l 1,20,21
 -50 1214 -50 1214 -50 1131 c 0,22,23
 -50 1043 -50 1043 -122 964 c 1,12,-1
-582 1002 m 1,24,-1
 -582 1260 l 1,25,-1
 -259 1260 l 1,26,-1
 -259 1002 l 1,27,-1
 -308 1002 l 1,28,29
 -305 1033 -305 1033 -305 1091.5 c 128,-1,30
 -305 1150 -305 1150 -305 1199 c 1,31,-1
 -537 1199 l 1,32,33
 -537 1150 -537 1150 -536.5 1091.5 c 128,-1,34
 -536 1033 -536 1033 -533 1002 c 1,35,-1
 -582 1002 l 1,24,-1
EndSplineSet
EndChar

StartChar: n
Encoding: 110 110 17
Width: 0
VWidth: 345
Flags: W
LayerCount: 2
Fore
SplineSet
-718 964 m 1,0,1
 -790 1042 -790 1042 -791 1131 c 0,2,3
 -791 1214 -791 1214 -718 1298 c 1,4,-1
 -688 1298 l 1,5,6
 -711 1264 -711 1264 -721 1245 c 0,7,8
 -750 1190 -750 1190 -750 1131 c 0,9,10
 -750 1048 -750 1048 -688 964 c 1,11,-1
 -718 964 l 1,0,1
-122 964 m 1,12,-1
 -152 964 l 1,13,14
 -91 1047 -91 1047 -91 1131 c 0,15,16
 -91 1191 -91 1191 -120 1245 c 0,17,18
 -133 1268 -133 1268 -152 1297 c 1,19,-1
 -122 1297 l 1,20,21
 -50 1214 -50 1214 -50 1131 c 0,22,23
 -50 1043 -50 1043 -122 964 c 1,12,-1
-581 1002 m 1,24,-1
 -581 1259 l 1,25,-1
 -252 1259 l 1,26,27
 -251 1240 -251 1240 -254 1209 c 1,28,29
 -260.5 1209 l 0,30,31
 -267 1209 -267 1209 -271 1210 c 0,32,33
 -315 1214 -315 1214 -382.5 1213.5 c 128,-1,34
 -450 1213 -450 1213 -507 1213 c 1,35,-1
 -507 1002 l 1,36,-1
 -581 1002 l 1,24,-1
EndSplineSet
EndChar

StartChar: m
Encoding: 109 109 18
Width: 0
VWidth: 345
Flags: W
LayerCount: 2
Fore
SplineSet
-689 964 m 1,0,1
 -761 1042 -761 1042 -761 1131 c 0,2,3
 -761 1214 -761 1214 -689 1298 c 1,4,-1
 -659 1298 l 1,5,6
 -682 1264 -682 1264 -691 1245 c 0,7,8
 -720 1190 -720 1190 -720 1131 c 0,9,10
 -720 1048 -720 1048 -659 964 c 1,11,-1
 -689 964 l 1,0,1
-146 964 m 1,12,-1
 -177 964 l 1,13,14
 -116 1047 -116 1047 -116 1131 c 0,15,16
 -116 1191 -116 1191 -144 1245 c 0,17,18
 -157 1268 -157 1268 -177 1297 c 1,19,-1
 -146 1297 l 1,20,21
 -74 1214 -74 1214 -74 1131 c 0,22,23
 -74 1043 -74 1043 -146 964 c 1,12,-1
-243 1002 m 2,24,-1
 -594 1002 l 2,25,26
 -599 1002 -599 1002 -600 1012 c 1,27,-1
 -457 1260 l 1,28,-1
 -387 1260 l 1,29,-1
 -239 1013 l 2,30,31
 -236 1010 -236 1010 -238.5 1006 c 128,-1,32
 -241 1002 -241 1002 -243 1002 c 2,24,-1
-328 1045 m 1,33,-1
 -435 1216 l 1,34,-1
 -531 1045 l 1,35,-1
 -328 1045 l 1,33,-1
EndSplineSet
EndChar

StartChar: comma
Encoding: 44 44 19
Width: 0
VWidth: 345
Flags: W
LayerCount: 2
Fore
SplineSet
-718 964 m 1,0,1
 -790 1042 -790 1042 -791 1131 c 0,2,3
 -791 1214 -791 1214 -718 1298 c 1,4,-1
 -688 1298 l 1,5,6
 -711 1264 -711 1264 -721 1245 c 0,7,8
 -750 1190 -750 1190 -750 1131 c 0,9,10
 -750 1048 -750 1048 -688 964 c 1,11,-1
 -718 964 l 1,0,1
-142 964 m 1,12,-1
 -172 964 l 1,13,14
 -111 1047 -111 1047 -111 1131 c 0,15,16
 -111 1191 -111 1191 -139 1245 c 0,17,18
 -152 1268 -152 1268 -172 1297 c 1,19,-1
 -142 1297 l 1,20,21
 -70 1214 -70 1214 -69 1131 c 0,22,23
 -70 1043 -70 1043 -142 964 c 1,12,-1
-536 1082 m 1,24,-1
 -536 1002 l 1,25,-1
 -606 1002 l 1,26,-1
 -606 1260 l 1,27,-1
 -536 1260 l 1,28,-1
 -536 1137 l 1,29,-1
 -327 1260 l 1,30,-1
 -241 1260 l 1,31,-1
 -421 1151 l 1,32,-1
 -211 1002 l 1,33,-1
 -321 1002 l 1,34,-1
 -480 1116 l 1,35,-1
 -536 1082 l 1,24,-1
EndSplineSet
EndChar

StartChar: period
Encoding: 46 46 20
Width: 0
VWidth: 345
Flags: W
LayerCount: 2
Fore
SplineSet
-704 964 m 1,0,1
 -776 1042 -776 1042 -776 1131 c 0,2,3
 -776 1214 -776 1214 -704 1298 c 1,4,-1
 -673 1298 l 1,5,6
 -696 1264 -696 1264 -706 1245 c 0,7,8
 -735 1190 -735 1190 -735 1131 c 0,9,10
 -735 1048 -735 1048 -673 964 c 1,11,-1
 -704 964 l 1,0,1
-142 964 m 1,12,-1
 -172 964 l 1,13,14
 -111 1047 -111 1047 -111 1131 c 0,15,16
 -111 1191 -111 1191 -139 1245 c 0,17,18
 -152 1268 -152 1268 -172 1297 c 1,19,-1
 -142 1297 l 1,20,21
 -70 1214 -70 1214 -69 1131 c 0,22,23
 -70 1043 -70 1043 -142 964 c 1,12,-1
-584 1260 m 1,24,-1
 -261 1260 l 2,25,26
 -256 1260 -256 1260 -257 1251 c 1,27,-1
 -466 1046 l 1,28,-1
 -245 1046 l 1,29,-1
 -255 1002 l 1,30,-1
 -595 1002 l 2,31,32
 -599 1002 -599 1002 -599 1011 c 1,33,-1
 -391 1216 l 1,34,-1
 -598 1216 l 1,35,-1
 -584 1260 l 1,24,-1
EndSplineSet
EndChar

StartChar: slash
Encoding: 47 47 21
Width: 0
VWidth: 345
Flags: W
LayerCount: 2
Fore
SplineSet
-733 964 m 1,0,1
 -805 1042 -805 1042 -805 1131 c 0,2,3
 -805 1214 -805 1214 -733 1298 c 1,4,-1
 -703 1298 l 1,5,6
 -726 1264 -726 1264 -735 1245 c 0,7,8
 -764 1190 -764 1190 -764 1131 c 0,9,10
 -764 1048 -764 1048 -703 964 c 1,11,-1
 -733 964 l 1,0,1
-98 964 m 1,12,-1
 -128 964 l 1,13,14
 -67 1047 -67 1047 -67 1131 c 0,15,16
 -67 1191 -67 1191 -95 1245 c 0,17,18
 -108 1268 -108 1268 -128 1297 c 1,19,-1
 -98 1297 l 1,20,21
 -26 1214 -26 1214 -25 1131 c 0,22,23
 -26 1043 -26 1043 -98 964 c 1,12,-1
-206 1002 m 1,24,-1
 -263 1002 l 1,25,-1
 -263 1202 l 1,26,-1
 -392 1002 l 1,27,-1
 -448 1002 l 1,28,-1
 -576 1205 l 1,29,-1
 -576 1002 l 1,30,-1
 -625 1002 l 1,31,-1
 -625 1260 l 1,32,-1
 -542 1260 l 1,33,-1
 -415 1053 l 1,34,-1
 -285 1260 l 1,35,-1
 -206 1260 l 1,36,-1
 -206 1002 l 1,24,-1
EndSplineSet
EndChar

StartChar: five
Encoding: 53 53 22
Width: 0
VWidth: 345
Flags: W
LayerCount: 2
Fore
SplineSet
-1207 730 m 1,0,-1
 -1167 733 l 1,1,2
 -1162 704 -1162 704 -1145.5 689.5 c 128,-1,3
 -1129 675 -1129 675 -1106 675 c 0,4,5
 -1079 675 -1079 675 -1060 695.5 c 128,-1,6
 -1041 716 -1041 716 -1041 750 c 0,7,8
 -1041 782 -1041 782 -1059.5 801 c 128,-1,9
 -1078 820 -1078 820 -1107 820 c 0,10,11
 -1126 820 -1126 820 -1140.5 811.5 c 128,-1,12
 -1155 803 -1155 803 -1164 790 c 1,13,-1
 -1200 795 l 1,14,-1
 -1170 954 l 1,15,-1
 -1015 954 l 1,16,-1
 -1015 918 l 1,17,-1
 -1139 918 l 1,18,-1
 -1156 834 l 1,19,20
 -1128 854 -1128 854 -1097 854 c 0,21,22
 -1056 854 -1056 854 -1028 826 c 128,-1,23
 -1000 798 -1000 798 -1000 753 c 0,24,25
 -1000 711 -1000 711 -1025 680 c 0,26,27
 -1055 642 -1055 642 -1106 643 c 0,28,29
 -1148 643 -1148 643 -1175.5 666.5 c 128,-1,30
 -1203 690 -1203 690 -1207 730 c 1,0,-1
EndSplineSet
EndChar

StartChar: percent
Encoding: 37 37 23
Width: 0
VWidth: 345
Flags: W
LayerCount: 2
Fore
SplineSet
-739 730 m 1,0,-1
 -699 733 l 1,1,2
 -695 704 -695 704 -678.5 689.5 c 128,-1,3
 -662 675 -662 675 -639 675 c 0,4,5
 -611 675 -611 675 -592 695.5 c 128,-1,6
 -573 716 -573 716 -573 751 c 0,7,8
 -573 783 -573 783 -591.5 802 c 128,-1,9
 -610 821 -610 821 -640 821 c 0,10,11
 -658 821 -658 821 -673 812.5 c 128,-1,12
 -688 804 -688 804 -696 790 c 1,13,-1
 -732 795 l 1,14,-1
 -702 954 l 1,15,-1
 -548 954 l 1,16,-1
 -548 918 l 1,17,-1
 -671 918 l 1,18,-1
 -688 835 l 1,19,20
 -661 855 -661 855 -629 854 c 0,21,22
 -589 854 -589 854 -561 826 c 128,-1,23
 -533 798 -533 798 -533 754 c 0,24,25
 -533 712 -533 712 -558 681 c 0,26,27
 -588 643 -588 643 -639 643 c 0,28,29
 -681 643 -681 643 -708 667 c 128,-1,30
 -735 691 -735 691 -739 730 c 1,0,-1
EndSplineSet
EndChar

StartChar: four
Encoding: 52 52 24
Width: 0
VWidth: 345
Flags: W
LayerCount: 2
Fore
SplineSet
-1083 643 m 1,0,-1
 -1083 720 l 1,1,-1
 -1223 720 l 1,2,-1
 -1223 756 l 1,3,-1
 -1076 965 l 1,4,-1
 -1044 965 l 1,5,-1
 -1044 756 l 1,6,-1
 -1000 756 l 1,7,-1
 -1000 720 l 1,8,-1
 -1044 720 l 1,9,-1
 -1044 643 l 1,10,-1
 -1083 643 l 1,0,-1
-1083 756 m 1,11,-1
 -1083 901 l 1,12,-1
 -1184 756 l 1,13,-1
 -1083 756 l 1,11,-1
EndSplineSet
EndChar

StartChar: dollar
Encoding: 36 36 25
Width: 0
VWidth: 345
Flags: W
LayerCount: 2
Fore
SplineSet
-607 644 m 1,0,-1
 -607 721 l 1,1,-1
 -746 721 l 1,2,-1
 -746 758 l 1,3,-1
 -600 966 l 1,4,-1
 -567 966 l 1,5,-1
 -567 758 l 1,6,-1
 -524 758 l 1,7,-1
 -524 721 l 1,8,-1
 -567 721 l 1,9,-1
 -567 644 l 1,10,-1
 -607 644 l 1,0,-1
-607 758 m 1,11,-1
 -607 903 l 1,12,-1
 -707 758 l 1,13,-1
 -607 758 l 1,11,-1
EndSplineSet
EndChar

StartChar: three
Encoding: 51 51 26
Width: 0
VWidth: 345
Flags: W
LayerCount: 2
Fore
SplineSet
-1224 735 m 1,0,-1
 -1186 740 l 1,1,2
 -1179 708 -1179 708 -1163 693.5 c 128,-1,3
 -1147 679 -1147 679 -1125 679 c 0,4,5
 -1098 679 -1098 679 -1079.5 697.5 c 128,-1,6
 -1061 716 -1061 716 -1061 743 c 0,7,8
 -1061 769 -1061 769 -1078 786.5 c 128,-1,9
 -1095 804 -1095 804 -1122 804 c 0,10,11
 -1133 804 -1133 804 -1148 800 c 1,12,-1
 -1144 833 l 1,13,14
 -1140 833 -1140 833 -1138 833 c 0,15,16
 -1114 833 -1114 833 -1094.5 845.5 c 128,-1,17
 -1075 858 -1075 858 -1075 884 c 0,18,19
 -1075 905 -1075 905 -1089.5 919 c 128,-1,20
 -1104 933 -1104 933 -1125 933 c 256,21,22
 -1147 933 -1147 933 -1162.5 919 c 128,-1,23
 -1178 905 -1178 905 -1182 877 c 1,24,-1
 -1220 884 l 1,25,26
 -1213 922 -1213 922 -1188 943 c 128,-1,27
 -1163 964 -1163 964 -1126 964 c 0,28,29
 -1101 964 -1101 964 -1079.5 953.5 c 128,-1,30
 -1058 943 -1058 943 -1047 924 c 128,-1,31
 -1036 905 -1036 905 -1036 884 c 0,32,33
 -1036 864 -1036 864 -1047 847 c 128,-1,34
 -1058 830 -1058 830 -1079 821 c 1,35,36
 -1051 814 -1051 814 -1036 794 c 128,-1,37
 -1021 774 -1021 774 -1021 744 c 0,38,39
 -1021 703 -1021 703 -1050.5 675 c 128,-1,40
 -1080 647 -1080 647 -1125 647 c 0,41,42
 -1166 647 -1166 647 -1193 671.5 c 128,-1,43
 -1220 696 -1220 696 -1224 735 c 1,0,-1
EndSplineSet
EndChar

StartChar: numbersign
Encoding: 35 35 27
Width: 0
VWidth: 345
Flags: W
LayerCount: 2
Fore
SplineSet
-736 732 m 1,0,-1
 -698 737 l 1,1,2
 -692 704 -692 704 -676 690 c 128,-1,3
 -660 676 -660 676 -637 676 c 0,4,5
 -610 676 -610 676 -591.5 694.5 c 128,-1,6
 -573 713 -573 713 -573 741 c 0,7,8
 -573 767 -573 767 -590 784.5 c 128,-1,9
 -607 802 -607 802 -634 802 c 0,10,11
 -645 802 -645 802 -661 797 c 1,12,-1
 -657 831 l 1,13,14
 -653 831 -653 831 -650 830 c 0,15,16
 -626 830 -626 830 -606.5 843 c 128,-1,17
 -587 856 -587 856 -587 883 c 0,18,19
 -587 904 -587 904 -601.5 917.5 c 128,-1,20
 -616 931 -616 931 -638 931 c 0,21,22
 -660 931 -660 931 -675 917.5 c 128,-1,23
 -690 904 -690 904 -694 875 c 1,24,-1
 -732 882 l 1,25,26
 -725 920 -725 920 -700.5 941.5 c 128,-1,27
 -676 963 -676 963 -639 963 c 0,28,29
 -614 963 -614 963 -592 952 c 128,-1,30
 -570 941 -570 941 -558.5 922 c 128,-1,31
 -547 903 -547 903 -547 882 c 0,32,33
 -547 862 -547 862 -558 845 c 128,-1,34
 -569 828 -569 828 -591 819 c 1,35,36
 -563 813 -563 813 -547.5 792.5 c 128,-1,37
 -532 772 -532 772 -532 742 c 0,38,39
 -532 701 -532 701 -561.5 672.5 c 128,-1,40
 -591 644 -591 644 -637 644 c 0,41,42
 -678 644 -678 644 -705 668.5 c 128,-1,43
 -732 693 -732 693 -736 732 c 1,0,-1
EndSplineSet
EndChar

StartChar: two
Encoding: 50 50 28
Width: 0
VWidth: 345
Flags: W
LayerCount: 2
Fore
SplineSet
-1002 689 m 1,0,-1
 -1002 652 l 1,1,-1
 -1208 652 l 1,2,3
 -1208 666 -1208 666 -1203 679 c 0,4,5
 -1195 700 -1195 700 -1178 720 c 128,-1,6
 -1161 740 -1161 740 -1128 767 c 0,7,8
 -1078 809 -1078 809 -1060 833 c 128,-1,9
 -1042 857 -1042 857 -1042 879 c 256,10,11
 -1042 901 -1042 901 -1058 916.5 c 128,-1,12
 -1074 932 -1074 932 -1100 932 c 0,13,14
 -1127 932 -1127 932 -1144 915.5 c 128,-1,15
 -1161 899 -1161 899 -1161 870 c 1,16,-1
 -1200 874 l 1,17,18
 -1196 918 -1196 918 -1170 941 c 128,-1,19
 -1144 964 -1144 964 -1099 964 c 256,20,21
 -1055 964 -1055 964 -1028.5 939 c 128,-1,22
 -1002 914 -1002 914 -1002 878 c 0,23,24
 -1002 859 -1002 859 -1010 841 c 128,-1,25
 -1018 823 -1018 823 -1035.5 803 c 128,-1,26
 -1053 783 -1053 783 -1094 748 c 0,27,28
 -1128 720 -1128 720 -1138 709.5 c 128,-1,29
 -1148 699 -1148 699 -1154 689 c 1,30,-1
 -1002 689 l 1,0,-1
EndSplineSet
EndChar

StartChar: at
Encoding: 64 64 29
Width: 0
VWidth: 345
Flags: W
LayerCount: 2
Fore
SplineSet
-534 689 m 1,0,-1
 -534 653 l 1,1,-1
 -739 653 l 1,2,3
 -739 667 -739 667 -735 679 c 0,4,5
 -727 700 -727 700 -710 720.5 c 128,-1,6
 -693 741 -693 741 -660 767 c 0,7,8
 -609 808 -609 808 -591.5 832.5 c 128,-1,9
 -574 857 -574 857 -574 879 c 0,10,11
 -574 901 -574 901 -590 916.5 c 128,-1,12
 -606 932 -606 932 -632 932 c 0,13,14
 -659 932 -659 932 -676 915.5 c 128,-1,15
 -693 899 -693 899 -693 870 c 1,16,-1
 -732 874 l 1,17,18
 -728 918 -728 918 -702 941 c 128,-1,19
 -676 964 -676 964 -631 964 c 256,20,21
 -587 964 -587 964 -561 939 c 128,-1,22
 -535 914 -535 914 -535 878 c 0,23,24
 -535 859 -535 859 -542.5 841 c 128,-1,25
 -550 823 -550 823 -567.5 803 c 128,-1,26
 -585 783 -585 783 -626 749 c 0,27,28
 -661 720 -661 720 -670.5 709.5 c 128,-1,29
 -680 699 -680 699 -686 689 c 1,30,-1
 -534 689 l 1,0,-1
EndSplineSet
EndChar

StartChar: W
Encoding: 87 87 30
Width: 1770
VWidth: 345
Flags: W
LayerCount: 2
Fore
SplineSet
386 689 m 0,0,1
 400 727 400 727 467 716 c 0,2,3
 481 713 481 713 483.5 684.5 c 128,-1,4
 486 656 486 656 464 623 c 0,5,6
 446 600 446 600 449 575 c 128,-1,7
 452 550 452 550 504 545 c 1,8,9
 695 544 695 544 841.5 555.5 c 128,-1,10
 988 567 988 567 1076 567 c 0,11,12
 1121 567 1121 567 1147.5 526.5 c 128,-1,13
 1174 486 1174 486 1169 440 c 0,14,15
 1160 363 1160 363 1101 369 c 0,16,17
 1086 370 1086 370 1072.5 389 c 128,-1,18
 1059 408 1059 408 1071 435 c 256,19,20
 1083 461 1083 461 1099 462.5 c 128,-1,21
 1115 464 1115 464 1121 489 c 0,22,23
 1132 531 1132 531 1079 529 c 0,24,25
 916 520 916 520 808.5 498.5 c 128,-1,26
 701 477 701 477 536 504 c 0,27,28
 492 511 492 511 446 534 c 128,-1,29
 400 557 400 557 385 608 c 0,30,31
 372 652 372 652 386 689 c 0,0,1
708 689 m 256,32,33
 742 689 742 689 742 655 c 0,34,35
 742 620 742 620 708 620 c 256,36,37
 674 620 674 620 674 655 c 0,38,39
 674 689 674 689 708 689 c 256,32,33
860 689 m 0,40,41
 895 689 895 689 895 655 c 0,42,43
 895 620 895 620 860 620 c 0,44,45
 826 620 826 620 826 655 c 0,46,47
 826 689 826 689 860 689 c 0,40,41
1431 739 m 0,48,49
 1462 739 1462 739 1495.5 738 c 128,-1,50
 1529 737 1529 737 1557 734 c 1,51,52
 1576 734 1576 734 1593 687.5 c 128,-1,53
 1610 641 1610 641 1641 596 c 0,54,55
 1652 580 1652 580 1661 578 c 0,56,57
 1669 576 1669 576 1673.5 570.5 c 128,-1,58
 1678 565 1678 565 1665 561 c 1,59,60
 1634 557 1634 557 1601.5 557.5 c 128,-1,61
 1569 558 1569 558 1541 561 c 1,62,63
 1514 570 1514 570 1502 602.5 c 128,-1,64
 1490 635 1490 635 1458 699 c 0,65,66
 1450 714 1450 714 1428 718 c 0,67,68
 1413 719 1413 719 1411.5 729 c 128,-1,69
 1410 739 1410 739 1431 739 c 0,48,49
1186 741 m 0,70,71
 1213 741 1213 741 1242.5 740.5 c 128,-1,72
 1272 740 1272 740 1296 737 c 1,73,74
 1312 737 1312 737 1331.5 689.5 c 128,-1,75
 1351 642 1351 642 1376 596 c 0,76,77
 1384 580 1384 580 1394 579 c 0,78,79
 1401 577 1401 577 1405 571.5 c 128,-1,80
 1409 566 1409 566 1397 561 c 1,81,82
 1370 557 1370 557 1341.5 557.5 c 128,-1,83
 1313 558 1313 558 1288 561 c 1,84,85
 1264 570 1264 570 1251 603.5 c 128,-1,86
 1238 637 1238 637 1210 702 c 0,87,88
 1208 705 1208 705 1200.5 713 c 128,-1,89
 1193 721 1193 721 1184 723 c 0,90,91
 1171 724 1171 724 1169 732 c 128,-1,92
 1167 740 1167 740 1186 741 c 0,70,71
368 965 m 128,-1,94
 373 973 373 973 379.5 973.5 c 128,-1,95
 386 974 386 974 393 970 c 128,-1,96
 400 966 400 966 411 960.5 c 128,-1,97
 422 955 422 955 439 951.5 c 128,-1,98
 456 948 456 948 487 948 c 2,99,-1
 1511 948 l 2,100,101
 1539 948 1539 948 1562 943.5 c 128,-1,102
 1585 939 1585 939 1604 929 c 128,-1,103
 1623 919 1623 919 1633.5 911 c 128,-1,104
 1644 903 1644 903 1662.5 884 c 128,-1,105
 1681 865 1681 865 1694 846.5 c 128,-1,106
 1707 828 1707 828 1699 811 c 1,107,108
 1691 799 1691 799 1680.5 806 c 128,-1,109
 1670 813 1670 813 1656 818 c 128,-1,110
 1642 823 1642 823 1625.5 825 c 128,-1,111
 1609 827 1609 827 1574 827 c 2,112,-1
 565 827 l 2,113,114
 542 827 542 827 523 830 c 128,-1,115
 504 833 504 833 493.5 836.5 c 128,-1,116
 483 840 483 840 471 846 c 128,-1,117
 459 852 459 852 446 860.5 c 128,-1,118
 433 869 433 869 417.5 884.5 c 128,-1,119
 402 900 402 900 386.5 920.5 c 128,-1,120
 371 941 371 941 367 949 c 128,-1,93
 363 957 363 957 368 965 c 128,-1,94
EndSplineSet
EndChar

StartChar: y
Encoding: 121 121 31
Width: 1750
VWidth: 345
Flags: W
LayerCount: 2
Fore
SplineSet
1352 549 m 0,0,1
 1383 549 1383 549 1416.5 548.5 c 128,-1,2
 1450 548 1450 548 1477 544 c 1,3,4
 1496 544 1496 544 1513 498 c 128,-1,5
 1530 452 1530 452 1562 407 c 0,6,7
 1573 391 1573 391 1581 389 c 128,-1,8
 1589 387 1589 387 1593.5 381.5 c 128,-1,9
 1598 376 1598 376 1585 372 c 1,10,11
 1554 368 1554 368 1522 368.5 c 128,-1,12
 1490 369 1490 369 1461 372 c 1,13,14
 1434 381 1434 381 1422.5 413.5 c 128,-1,15
 1411 446 1411 446 1378 510 c 1,16,17
 1367 525 1367 525 1348 528 c 0,18,19
 1333 529 1333 529 1332 539 c 128,-1,20
 1331 549 1331 549 1352 549 c 0,0,1
1078 552 m 0,21,22
 1105 552 1105 552 1134.5 551.5 c 128,-1,23
 1164 551 1164 551 1187 547 c 1,24,25
 1204 547 1204 547 1223 499.5 c 0,26,27
 1242 451 1242 451 1268 407 c 0,28,29
 1275 391 1275 391 1285 390 c 0,30,31
 1292 388 1292 388 1295.5 382.5 c 128,-1,32
 1299 377 1299 377 1288 372 c 1,33,34
 1261 368 1261 368 1233 368.5 c 128,-1,35
 1205 369 1205 369 1179 372 c 1,36,37
 1155 381 1155 381 1142 414.5 c 128,-1,38
 1129 448 1129 448 1101 512 c 0,39,40
 1099 515 1099 515 1091.5 523.5 c 128,-1,41
 1084 532 1084 532 1075 533 c 0,42,43
 1062 534 1062 534 1060.5 543 c 128,-1,44
 1059 552 1059 552 1078 552 c 0,21,22
363 775 m 128,-1,46
 368 783 368 783 374 783.5 c 128,-1,47
 380 784 380 784 387.5 779.5 c 128,-1,48
 395 775 395 775 405.5 770 c 128,-1,49
 416 765 416 765 432.5 761.5 c 128,-1,50
 449 758 449 758 479 758 c 2,51,-1
 1477 758 l 2,52,53
 1505 758 1505 758 1527 753.5 c 128,-1,54
 1549 749 1549 749 1567.5 739.5 c 128,-1,55
 1586 730 1586 730 1596 722 c 128,-1,56
 1606 714 1606 714 1624 695.5 c 128,-1,57
 1642 677 1642 677 1655 659 c 128,-1,58
 1668 641 1668 641 1660 625 c 0,59,60
 1653 613 1653 613 1642.5 619.5 c 128,-1,61
 1632 626 1632 626 1618 631.5 c 128,-1,62
 1604 637 1604 637 1588 638.5 c 128,-1,63
 1572 640 1572 640 1539 640 c 2,64,-1
 555 640 l 2,65,66
 532 640 532 640 514 643.5 c 128,-1,67
 496 647 496 647 485.5 650.5 c 128,-1,68
 475 654 475 654 463.5 659 c 128,-1,69
 452 664 452 664 439 672.5 c 128,-1,70
 426 681 426 681 411 696.5 c 128,-1,71
 396 712 396 712 381 731.5 c 128,-1,72
 366 751 366 751 362 759 c 128,-1,45
 358 767 358 767 363 775 c 128,-1,46
EndSplineSet
EndChar

StartChar: d
Encoding: 100 100 32
Width: 1060
VWidth: 345
Flags: W
LayerCount: 2
Fore
SplineSet
770 700 m 1,0,-1
 788 783 l 2,1,2
 795 818 795 818 800 830 c 0,3,4
 814 863 814 863 842 860 c 0,5,6
 876 857 876 857 858 824 c 0,7,8
 854 815 854 815 832 778 c 2,9,-1
 783 699 l 1,10,-1
 770 700 l 1,0,-1
963 438 m 0,11,12
 999 438 999 438 999 402 c 256,13,14
 999 366 999 366 963 366 c 0,15,16
 927 366 927 366 927 402 c 256,17,18
 927 438 927 438 963 438 c 0,11,12
639 670 m 0,19,20
 651 677 651 677 675 667.5 c 128,-1,21
 699 658 699 658 697 649 c 1,22,23
 663 604 663 604 623.5 564.5 c 128,-1,24
 584 525 584 525 553 487 c 0,25,26
 544 477 544 477 535 454 c 128,-1,27
 526 431 526 431 526 419 c 0,28,29
 523 356 523 356 539 308 c 128,-1,30
 555 260 555 260 549 201 c 0,31,32
 547 182 547 182 539.5 167.5 c 128,-1,33
 532 153 532 153 518 153 c 256,34,35
 503 153 503 153 491.5 169 c 128,-1,36
 480 185 480 185 480 206 c 0,37,38
 480 235 480 235 486 259 c 128,-1,39
 492 283 492 283 496 309 c 0,40,41
 499 337 499 337 501.5 360.5 c 128,-1,42
 504 384 504 384 504 415 c 0,43,44
 503 427 503 427 496.5 460 c 128,-1,45
 490 493 490 493 478 528.5 c 128,-1,46
 466 564 466 564 447.5 591.5 c 128,-1,47
 429 619 429 619 402 619 c 0,48,49
 375 619 375 619 368.5 600 c 128,-1,50
 362 581 362 581 361 560 c 1,51,-1
 346 560 l 1,52,53
 346 565 346 565 345 569.5 c 128,-1,54
 344 574 344 574 344 577 c 0,55,56
 342 607 342 607 351.5 641 c 128,-1,57
 361 675 361 675 401 675 c 256,58,59
 441 675 441 675 455.5 640.5 c 128,-1,60
 470 606 470 606 483 577 c 0,61,62
 489 563 489 563 497 529.5 c 128,-1,63
 505 496 505 496 517 451 c 1,64,65
 518 455 518 455 523.5 472 c 128,-1,66
 529 489 529 489 536 502 c 0,67,68
 558 543 558 543 590 601.5 c 128,-1,69
 622 660 622 660 639 670 c 0,19,20
EndSplineSet
EndChar

StartChar: A
Encoding: 65 65 33
Width: 1083
VWidth: 345
Flags: W
LayerCount: 2
Fore
SplineSet
987 438 m 0,0,1
 1023 438 1023 438 1023 402 c 256,2,3
 1023 366 1023 366 987 366 c 0,4,5
 951 366 951 366 951 402 c 256,6,7
 951 438 951 438 987 438 c 0,0,1
794 700 m 1,8,-1
 812 783 l 2,9,10
 819 818 819 818 825 830 c 0,11,12
 839 863 839 863 867 860 c 0,13,14
 901 857 901 857 883 824 c 0,15,16
 879 815 879 815 856 778 c 2,17,-1
 807 699 l 1,18,-1
 794 700 l 1,8,-1
592 530 m 1,19,-1
 422 530 l 1,20,-1
 393 453 l 2,21,22
 382 425 382 425 382 413 c 0,23,24
 382 399 382 399 391 390 c 0,25,26
 399 382 399 382 432 379 c 1,27,-1
 432 366 l 1,28,-1
 294 366 l 1,29,-1
 294 379 l 1,30,31
 321 384 321 384 330 393 c 0,32,33
 347 411 347 411 366 464 c 2,34,-1
 521 866 l 1,35,-1
 532 866 l 1,36,-1
 684 459 l 2,37,38
 702 411 702 411 717 396 c 0,39,40
 732 381 732 381 759 379 c 1,41,-1
 759 366 l 1,42,-1
 587 366 l 1,43,-1
 587 379 l 1,44,45
 613 380 613 380 622 389 c 0,46,47
 631 398 631 398 631 414 c 0,48,49
 631 427 631 427 618 460 c 2,50,-1
 592 530 l 1,19,-1
583 556 m 1,51,-1
 508 754 l 1,52,-1
 432 556 l 1,53,-1
 583 556 l 1,51,-1
EndSplineSet
EndChar

StartChar: S
Encoding: 83 83 34
Width: 1048
VWidth: 345
Flags: W
LayerCount: 2
Fore
SplineSet
593 621 m 1,0,1
 639 610 639 610 662 586 c 0,2,3
 694 553 694 553 693 503 c 0,4,5
 693 465 693 465 672 432 c 0,6,7
 651 398 651 398 615 382 c 0,8,9
 577 366 577 366 503 366 c 2,10,-1
 294 366 l 1,11,-1
 294 380 l 1,12,-1
 311 380 l 2,13,14
 339 380 339 380 351 400 c 0,15,16
 358 412 358 412 358 455 c 2,17,-1
 358 778 l 2,18,19
 358 824 358 824 349 837 c 0,20,21
 336 853 336 853 311 853 c 2,22,-1
 294 853 l 1,23,-1
 294 866 l 1,24,-1
 486 866 l 2,25,26
 540 866 540 866 572 858 c 0,27,28
 621 844 621 844 647 810 c 0,29,30
 673 776 673 776 673 733 c 0,31,32
 673 695 673 695 652 665 c 0,33,34
 631 635 631 635 592 621 c 1,35,-1
 593 621 l 1,0,1
421 641 m 1,36,37
 447 636 447 636 482 636 c 0,38,39
 530 636 530 636 555 648 c 0,40,41
 579 659 579 659 592 683 c 0,42,43
 605 707 605 707 604 736 c 0,44,45
 604 779 604 779 573 811 c 0,46,47
 540 842 540 842 479 842 c 0,48,49
 447 842 447 842 421 834 c 1,50,-1
 421 641 l 1,36,37
421 402 m 1,51,52
 460 392 460 392 495 392 c 0,53,54
 556 392 556 392 586 422 c 0,55,56
 617 452 617 452 618 496 c 0,57,58
 618 524 618 524 604 553 c 0,59,60
 590 580 590 580 558 595 c 0,61,62
 525 611 525 611 477 611 c 0,63,64
 437 611 437 611 421 607 c 1,65,-1
 421 402 l 1,51,52
760 700 m 1,66,-1
 778 783 l 2,67,68
 785 818 785 818 791 830 c 0,69,70
 805 863 805 863 833 860 c 0,71,72
 867 857 867 857 849 824 c 0,73,74
 845 815 845 815 822 778 c 2,75,-1
 773 699 l 1,76,-1
 760 700 l 1,66,-1
953 438 m 0,77,78
 989 438 989 438 989 402 c 256,79,80
 989 366 989 366 953 366 c 0,81,82
 917 366 917 366 917 402 c 256,83,84
 917 438 917 438 953 438 c 0,77,78
EndSplineSet
EndChar

StartChar: h
Encoding: 104 104 35
Width: 1588
VWidth: 345
Flags: W
LayerCount: 2
Fore
SplineSet
-21 793 m 0,0,1
 -20 812 -20 812 4 812 c 0,2,3
 20 812 20 812 36 802 c 0,4,5
 55 790 55 790 55 767 c 128,-1,6
 55 744 55 744 40 730 c 0,7,8
 31 721 31 721 16 713.5 c 128,-1,9
 1 706 1 706 -11 708 c 0,10,11
 -16 709 -16 709 -17 714.5 c 128,-1,12
 -18 720 -18 720 -14 722 c 0,13,14
 -11 723 -11 723 -5 724.5 c 128,-1,15
 1 726 1 726 3 727 c 0,16,17
 35 738 35 738 36 765 c 0,18,19
 36 777 36 777 29 782 c 1,20,21
 19 769 19 769 -1 768.5 c 128,-1,22
 -21 768 -21 768 -21 793 c 0,0,1
8 866 m 0,23,24
 41 866 41 866 66 839.5 c 128,-1,25
 91 813 91 813 105 787 c 1,26,27
 47 838 47 838 9 838 c 0,28,29
 -13 838 -13 838 -51.5 812.5 c 0,30,-1
 -90 787 l 1,31,32
 -40 866 -40 866 8 866 c 0,23,24
194 786 m 2,33,34
 194 849 194 849 135 849 c 1,35,-1
 135 866 l 1,36,-1
 305 866 l 1,37,-1
 305 849 l 1,38,39
 273 849 273 849 265 831.5 c 128,-1,40
 257 814 257 814 257 780 c 2,41,-1
 257 641 l 1,42,-1
 448 641 l 1,43,-1
 448 780 l 2,44,45
 448 849 448 849 396 849 c 1,46,-1
 396 866 l 1,47,-1
 566 866 l 1,48,-1
 566 849 l 1,49,50
 513 849 513 849 514 768 c 2,51,-1
 514 457 l 2,52,53
 514 388 514 388 571 382 c 1,54,-1
 571 366 l 1,55,-1
 396 366 l 1,56,-1
 396 382 l 1,57,58
 432 382 432 382 440 403.5 c 128,-1,59
 448 425 448 425 448 463 c 2,60,-1
 448 613 l 1,61,-1
 257 613 l 1,62,-1
 257 440 l 2,63,64
 257 403 257 403 268.5 394 c 128,-1,65
 280 385 280 385 310 382 c 1,66,-1
 310 366 l 1,67,-1
 135 366 l 1,68,-1
 135 382 l 1,69,70
 166 385 166 385 180 396 c 128,-1,71
 194 407 194 407 194 447 c 2,72,-1
 194 786 l 2,33,34
894 664 m 1,73,-1
 770 408 l 1,74,75
 783 372 783 372 809.5 304.5 c 128,-1,76
 836 237 836 237 855 236 c 0,77,78
 866 236 866 236 879.5 243 c 128,-1,79
 893 250 893 250 900 250 c 0,80,81
 948 247 948 247 940.5 201.5 c 128,-1,82
 933 156 933 156 882 155 c 0,83,84
 853 154 853 154 831 195 c 0,85,86
 810 232 810 232 789 284.5 c 128,-1,87
 768 337 768 337 756 379 c 1,88,-1
 662 172 l 1,89,-1
 593 172 l 1,90,-1
 729 459 l 1,91,92
 723 495 723 495 704 544.5 c 128,-1,93
 685 594 685 594 672 604 c 0,94,95
 654 618 654 618 638 608 c 0,96,97
 621 599 621 599 607 612 c 128,-1,98
 593 625 593 625 595 640 c 0,99,100
 596 658 596 658 612.5 667 c 128,-1,101
 629 676 629 676 642 675 c 0,102,103
 662 674 662 674 680 651 c 0,104,105
 699 625 699 625 717 571 c 128,-1,106
 735 517 735 517 746 490 c 1,107,-1
 825 664 l 1,108,-1
 894 664 l 1,73,-1
1449 671 m 0,109,110
 1477 666 1477 666 1463.5 634.5 c 128,-1,111
 1450 603 1450 603 1420 603 c 0,112,113
 1371 603 1371 603 1334.5 606 c 128,-1,114
 1298 609 1298 609 1279 569 c 0,115,116
 1266 540 1266 540 1266 509 c 0,117,118
 1266 426 1266 426 1353 425 c 0,119,120
 1371 425 1371 425 1388.5 426 c 128,-1,121
 1406 427 1406 427 1424 427 c 0,122,123
 1468 426 1468 426 1491 388 c 0,124,125
 1505 364 1505 364 1504 344 c 0,126,127
 1504 322 1504 322 1496 299 c 0,128,129
 1486 275 1486 275 1472 259 c 0,130,131
 1455 240 1455 240 1436 235 c 0,132,133
 1416 230 1416 230 1403 229 c 0,134,135
 1381 229 1381 229 1366 240 c 0,136,137
 1351 250 1351 250 1351 268 c 0,138,139
 1351 305 1351 305 1385 305 c 0,140,141
 1390 305 1390 305 1417 301 c 0,142,143
 1423 300 1423 300 1426.5 295 c 128,-1,144
 1430 290 1430 290 1434 290 c 0,145,146
 1474 290 1474 290 1474 330 c 2,147,-1
 1474 335 l 2,148,149
 1474 349 1474 349 1461.5 359 c 128,-1,150
 1449 369 1449 369 1425 366 c 0,151,152
 1420 365 1420 365 1399.5 363.5 c 128,-1,153
 1379 362 1379 362 1372 363 c 0,154,155
 1324 370 1324 370 1282 413 c 128,-1,156
 1240 456 1240 456 1240 504 c 0,157,158
 1240 541 1240 541 1259 583 c 0,159,160
 1309 695 1309 695 1449 671 c 0,109,110
982 428 m 0,161,162
 1029 393 1029 393 1079 428 c 0,163,164
 1098 441 1098 441 1118.5 463 c 128,-1,165
 1139 485 1139 485 1149 506 c 0,166,167
 1163 536 1163 536 1163 563.5 c 128,-1,168
 1163 591 1163 591 1155 607 c 0,169,170
 1139 639 1139 639 1104 637.5 c 128,-1,171
 1069 636 1069 636 1045 620 c 0,172,173
 985 580 985 580 967 503 c 0,174,175
 963 485 963 485 964.5 462.5 c 128,-1,176
 966 440 966 440 982 428 c 0,161,162
928 521 m 0,177,178
 928 580 928 580 964 630.5 c 128,-1,179
 1000 681 1000 681 1062 681 c 128,-1,180
 1124 681 1124 681 1161.5 632.5 c 128,-1,181
 1199 584 1199 584 1199 524 c 0,182,183
 1199 462 1199 462 1162.5 414.5 c 128,-1,184
 1126 367 1126 367 1064 367 c 0,185,186
 1001 367 1001 367 964.5 413.5 c 128,-1,187
 928 460 928 460 928 521 c 0,177,178
EndSplineSet
EndChar

StartChar: D
Encoding: 68 68 36
Width: 1117
VWidth: 345
Flags: W
LayerCount: 2
Fore
SplineSet
722 866 m 1,0,-1
 725 746 l 1,1,-1
 713 746 l 1,2,3
 709 794 709 794 689 815 c 0,4,5
 669 835 669 835 620 835 c 2,6,-1
 476 835 l 1,7,-1
 476 438 l 2,8,9
 476 406 476 406 488 393 c 0,10,11
 500 380 500 380 528 380 c 2,12,-1
 546 380 l 1,13,-1
 546 366 l 1,14,-1
 346 366 l 1,15,-1
 346 380 l 1,16,-1
 358 380 l 2,17,18
 387 380 387 380 399 393 c 0,19,20
 411 407 411 407 412 437 c 2,21,-1
 412 796 l 2,22,23
 412 827 412 827 399 840 c 0,24,25
 386 853 386 853 358 853 c 2,26,-1
 346 853 l 1,27,-1
 346 866 l 1,28,-1
 722 866 l 1,0,-1
1021 438 m 0,29,30
 1057 438 1057 438 1057 402 c 256,31,32
 1057 366 1057 366 1021 366 c 0,33,34
 985 366 985 366 985 402 c 256,35,36
 985 438 985 438 1021 438 c 0,29,30
829 700 m 1,37,-1
 846 783 l 2,38,39
 853 818 853 818 859 830 c 0,40,41
 873 863 873 863 901 860 c 0,42,43
 935 857 935 857 917 824 c 0,44,45
 913 815 913 815 891 778 c 2,46,-1
 841 699 l 1,47,-1
 829 700 l 1,37,-1
EndSplineSet
EndChar

StartChar: F
Encoding: 70 70 37
Width: 1063
VWidth: 345
Flags: W
LayerCount: 2
Fore
SplineSet
621 430 m 1,0,-1
 496 740 l 1,1,-1
 357 430 l 1,2,-1
 621 430 l 1,0,-1
717 366 m 1,3,-1
 292 366 l 1,4,-1
 517 866 l 1,5,-1
 717 366 l 1,3,-1
775 731 m 1,6,-1
 792 814 l 2,7,8
 799 849 799 849 805 862 c 0,9,10
 819 895 819 895 847 891 c 0,11,12
 881 888 881 888 863 855 c 0,13,14
 859 846 859 846 837 809 c 2,15,-1
 788 730 l 1,16,-1
 775 731 l 1,6,-1
968 438 m 0,17,18
 1004 438 1004 438 1003 402 c 256,19,20
 1003 366 1003 366 968 366 c 0,21,22
 932 366 932 366 932 402 c 256,23,24
 932 438 932 438 968 438 c 0,17,18
EndSplineSet
EndChar

StartChar: N
Encoding: 78 78 38
Width: 0
VWidth: 345
Flags: W
LayerCount: 2
Fore
SplineSet
-1060 964 m 1,0,1
 -1132 1042 -1132 1042 -1132 1131 c 0,2,3
 -1132 1214 -1132 1214 -1060 1298 c 1,4,-1
 -1030 1298 l 1,5,6
 -1052 1264 -1052 1264 -1062 1245 c 0,7,8
 -1091 1190 -1091 1190 -1091 1131 c 0,9,10
 -1091 1048 -1091 1048 -1030 964 c 1,11,-1
 -1060 964 l 1,0,1
-488 964 m 1,12,-1
 -519 964 l 1,13,14
 -458 1047 -458 1047 -458 1131 c 0,15,16
 -458 1191 -458 1191 -486 1245 c 0,17,18
 -499 1268 -499 1268 -519 1297 c 1,19,-1
 -488 1297 l 1,20,21
 -416 1214 -416 1214 -416 1131 c 0,22,23
 -416 1043 -416 1043 -488 964 c 1,12,-1
-922 1002 m 1,24,-1
 -922 1259 l 1,25,-1
 -594 1259 l 1,26,27
 -593 1240 -593 1240 -596 1209 c 1,28,29
 -602 1209 l 0,30,31
 -608 1209 -608 1209 -613 1210 c 0,32,33
 -657 1214 -657 1214 -724.5 1213.5 c 128,-1,34
 -792 1213 -792 1213 -849 1213 c 1,35,-1
 -849 1002 l 1,36,-1
 -922 1002 l 1,24,-1
EndSplineSet
EndChar

StartChar: question
Encoding: 63 63 39
Width: 0
VWidth: 345
Flags: W
LayerCount: 2
Fore
SplineSet
-1075 964 m 1,0,1
 -1147 1042 -1147 1042 -1147 1131 c 0,2,3
 -1147 1214 -1147 1214 -1075 1298 c 1,4,-1
 -1044 1298 l 1,5,6
 -1067 1264 -1067 1264 -1077 1245 c 0,7,8
 -1106 1190 -1106 1190 -1106 1131 c 0,9,10
 -1106 1048 -1106 1048 -1044 964 c 1,11,-1
 -1075 964 l 1,0,1
-439 964 m 1,12,-1
 -470 964 l 1,13,14
 -409 1047 -409 1047 -409 1131 c 0,15,16
 -409 1191 -409 1191 -437 1245 c 0,17,18
 -450 1268 -450 1268 -470 1297 c 1,19,-1
 -439 1297 l 1,20,21
 -367 1214 -367 1214 -367 1131 c 0,22,23
 -367 1043 -367 1043 -439 964 c 1,12,-1
-548 1002 m 1,24,-1
 -604 1002 l 1,25,-1
 -604 1202 l 1,26,-1
 -733 1002 l 1,27,-1
 -790 1002 l 1,28,-1
 -918 1205 l 1,29,-1
 -918 1002 l 1,30,-1
 -966 1002 l 1,31,-1
 -966 1260 l 1,32,-1
 -883 1260 l 1,33,-1
 -757 1053 l 1,34,-1
 -626 1260 l 1,35,-1
 -548 1260 l 1,36,-1
 -548 1002 l 1,24,-1
EndSplineSet
EndChar

StartChar: B
Encoding: 66 66 40
Width: 0
VWidth: 345
Flags: W
LayerCount: 2
Fore
SplineSet
-1041 964 m 1,0,1
 -1113 1042 -1113 1042 -1113 1131 c 0,2,3
 -1113 1214 -1113 1214 -1041 1298 c 1,4,-1
 -1010 1298 l 1,5,6
 -1031 1267 -1031 1267 -1043 1245 c 0,7,8
 -1072 1188 -1072 1188 -1072 1131 c 0,9,10
 -1072 1048 -1072 1048 -1010 964 c 1,11,-1
 -1041 964 l 1,0,1
-464 964 m 1,12,-1
 -494 964 l 1,13,14
 -433 1047 -433 1047 -433 1131 c 0,15,16
 -433 1189 -433 1189 -461 1245 c 0,17,18
 -472 1266 -472 1266 -494 1297 c 1,19,-1
 -464 1297 l 1,20,21
 -392 1214 -392 1214 -392 1131 c 0,22,23
 -392 1043 -392 1043 -464 964 c 1,12,-1
-847 1044 m 1,24,-1
 -701 1044 l 2,25,26
 -691 1044 -691 1044 -669 1049.5 c 128,-1,27
 -647 1055 -647 1055 -647 1078 c 0,28,29
 -647 1099 -647 1099 -669 1107.5 c 128,-1,30
 -691 1116 -691 1116 -707 1116 c 2,31,-1
 -847 1116 l 1,32,-1
 -847 1044 l 1,24,-1
-920 1003 m 1,33,-1
 -920 1260 l 1,34,-1
 -703 1260 l 2,35,36
 -674 1260 -674 1260 -629 1246.5 c 128,-1,37
 -584 1233 -584 1233 -584 1194 c 0,38,39
 -584 1157 -584 1157 -635 1139 c 1,40,41
 -611 1134 -611 1134 -589 1119 c 128,-1,42
 -567 1104 -567 1104 -567 1076 c 0,43,44
 -567 1026 -567 1026 -616 1014 c 128,-1,45
 -665 1002 -665 1002 -701 1002 c 2,46,-1
 -920 1003 l 1,33,-1
-847 1156 m 1,47,-1
 -712 1156 l 2,48,49
 -698 1156 -698 1156 -680 1160.5 c 128,-1,50
 -662 1165 -662 1165 -662 1185 c 0,51,52
 -662 1210 -662 1210 -681 1214.5 c 128,-1,53
 -700 1219 -700 1219 -718 1219 c 2,54,-1
 -847 1219 l 1,55,-1
 -847 1156 l 1,47,-1
EndSplineSet
EndChar

StartChar: V
Encoding: 86 86 41
Width: 0
VWidth: 345
Flags: W
LayerCount: 2
Fore
SplineSet
-1055 964 m 1,0,1
 -1127 1042 -1127 1042 -1127 1131 c 0,2,3
 -1127 1214 -1127 1214 -1055 1298 c 1,4,-1
 -1025 1298 l 1,5,6
 -1048 1264 -1048 1264 -1058 1245 c 0,7,8
 -1087 1190 -1087 1190 -1086 1131 c 0,9,10
 -1086 1048 -1086 1048 -1025 964 c 1,11,-1
 -1055 964 l 1,0,1
-469 964 m 1,12,-1
 -499 964 l 1,13,14
 -438 1047 -438 1047 -438 1131 c 0,15,16
 -438 1191 -438 1191 -466 1245 c 0,17,18
 -479 1268 -479 1268 -499 1297 c 1,19,-1
 -469 1297 l 1,20,21
 -397 1214 -397 1214 -396 1131 c 0,22,23
 -397 1043 -397 1043 -469 964 c 1,12,-1
-923 1002 m 1,24,-1
 -923 1260 l 1,25,-1
 -601 1260 l 1,26,-1
 -601 1002 l 1,27,-1
 -650 1002 l 1,28,29
 -647 1033 -647 1033 -646.5 1091.5 c 128,-1,30
 -646 1150 -646 1150 -646 1199 c 1,31,-1
 -878 1199 l 1,32,33
 -878 1150 -878 1150 -877.5 1091.5 c 128,-1,34
 -877 1033 -877 1033 -875 1002 c 1,35,-1
 -923 1002 l 1,24,-1
EndSplineSet
EndChar

StartChar: G
Encoding: 71 71 42
Width: 1174
VWidth: 345
Flags: W
LayerCount: 2
Fore
SplineSet
627 621 m 1,0,1
 673 610 673 610 696 586 c 0,2,3
 728 552 728 552 728 503 c 0,4,5
 728 465 728 465 707 432 c 0,6,7
 686 398 686 398 650 382 c 0,8,9
 612 366 612 366 538 366 c 2,10,-1
 329 366 l 1,11,-1
 329 380 l 1,12,-1
 345 380 l 2,13,14
 372 380 372 380 385 400 c 0,15,16
 393 413 393 413 393 455 c 2,17,-1
 393 778 l 2,18,19
 393 823 393 823 383 837 c 0,20,21
 370 853 370 853 345 853 c 2,22,-1
 329 853 l 1,23,-1
 329 866 l 1,24,-1
 521 866 l 2,25,26
 574 866 574 866 607 858 c 0,27,28
 655 844 655 844 682 810 c 0,29,30
 708 776 708 776 708 733 c 0,31,32
 708 695 708 695 687 665 c 0,33,34
 666 635 666 635 627 621 c 1,35,-1
 627 621 l 1,0,1
456 641 m 1,36,37
 482 636 482 636 517 636 c 0,38,39
 565 636 565 636 589 648 c 0,40,41
 613 660 613 660 626 683 c 0,42,43
 639 707 639 707 639 736 c 0,44,45
 639 779 639 779 607 811 c 0,46,47
 574 842 574 842 514 842 c 0,48,49
 482 842 482 842 456 834 c 1,50,-1
 456 641 l 1,36,37
456 402 m 1,51,52
 495 392 495 392 530 392 c 0,53,54
 590 392 590 392 621 422 c 0,55,56
 652 452 652 452 652 496 c 0,57,58
 652 524 652 524 638 553 c 0,59,60
 624 580 624 580 592 595 c 0,61,62
 560 611 560 611 511 611 c 0,63,64
 471 611 471 611 456 607 c 1,65,-1
 456 402 l 1,51,52
934 537 m 1,66,-1
 934 537 l 1,67,68
 883 512 883 512 864 494 c 0,69,70
 845 474 845 474 845 450 c 0,71,72
 845 423 845 423 865 406 c 0,73,74
 885 388 885 388 916 388 c 0,75,76
 947 387 947 387 967 407 c 0,77,78
 987 426 987 426 987 457 c 0,79,80
 987 483 987 483 974 502 c 0,81,82
 960 521 960 521 934 537 c 1,66,-1
879 559 m 1,83,-1
 879 559 l 1,84,85
 837 580 837 580 820 601 c 0,86,87
 800 624 800 624 800 652 c 0,88,89
 800 661 800 661 803 672 c 0,90,91
 805 682 805 682 810 691 c 1,92,-1
 840 691 l 1,93,94
 840 688 840 688 840 685 c 0,95,96
 838 664 838 664 838 663 c 0,97,98
 838 632 838 632 854 611 c 0,99,100
 869 590 869 590 903 574 c 1,101,102
 949 594 949 594 974 617 c 0,103,104
 997 639 997 639 997 665 c 0,105,106
 997 670 997 670 996 674 c 0,107,108
 996 676 996 676 995.5 680.5 c 128,-1,109
 995 685 995 685 995 691 c 1,110,-1
 1022 691 l 1,111,112
 1029 676 1029 676 1032 666 c 0,113,114
 1035 654 1035 654 1035 643 c 0,115,116
 1035 615 1035 615 1015 594 c 0,117,118
 994 571 994 571 956 553 c 1,119,120
 998 530 998 530 1017 507 c 0,121,122
 1035 485 1035 485 1035 456 c 0,123,124
 1035 416 1035 416 1002 391 c 0,125,126
 969 366 969 366 917 366 c 0,127,128
 867 366 867 366 834 394 c 0,129,130
 800 422 800 422 800 463 c 0,131,132
 800 491 800 491 820 515 c 0,133,134
 837 538 837 538 879 559 c 1,83,-1
825 1061 m 1,135,136
 892 1060 892 1060 927.5 1057 c 128,-1,137
 963 1054 963 1054 999 1049 c 0,138,139
 1049 1042 1049 1042 1073 1029 c 0,140,141
 1088 1021 1088 1021 1101.5 1007 c 128,-1,142
 1115 993 1115 993 1119 976 c 0,143,144
 1127 938 1127 938 1112 909 c 128,-1,145
 1097 880 1097 880 1059 882 c 0,146,147
 1015 882 1015 882 1014 931 c 0,148,149
 1014 948 1014 948 1029.5 960.5 c 128,-1,150
 1045 973 1045 973 1064 969 c 0,151,152
 1097 961 1097 961 1094 977 c 0,153,154
 1090 998 1090 998 1062.5 1011.5 c 128,-1,155
 1035 1025 1035 1025 1005 1030 c 0,156,157
 941 1040 941 1040 911 1040.5 c 128,-1,158
 881 1041 881 1041 825 1040 c 1,159,160
 822 988 822 988 783.5 951 c 128,-1,161
 745 914 745 914 691 914 c 0,162,163
 637 914 637 914 598.5 949.5 c 128,-1,164
 560 985 560 985 557 1038 c 1,165,166
 476 1039 476 1039 396.5 1034 c 128,-1,167
 317 1029 317 1029 237 1024 c 0,168,169
 216 1023 216 1023 214 1023 c 0,170,171
 211 1023 211 1023 204.5 1024 c 128,-1,172
 198 1025 198 1025 198 1028 c 2,173,-1
 198 1040 l 2,174,175
 198 1042 198 1042 204.5 1044 c 128,-1,176
 211 1046 211 1046 214 1046 c 0,177,178
 300 1050 300 1050 385 1054.5 c 128,-1,179
 470 1059 470 1059 556 1059 c 1,180,181
 560 1111 560 1111 598.5 1147.5 c 128,-1,182
 637 1184 637 1184 690 1184 c 0,183,184
 743 1184 743 1184 782 1148.5 c 128,-1,185
 821 1113 821 1113 825 1061 c 1,135,136
583 1059 m 1,186,-1
 798 1060 l 1,187,188
 794 1101 794 1101 763 1129 c 128,-1,189
 732 1157 732 1157 690 1157 c 0,190,191
 648 1157 648 1157 617 1128.5 c 128,-1,192
 586 1100 586 1100 583 1059 c 1,186,-1
583 1038 m 1,193,194
 586 996 586 996 617.5 968.5 c 128,-1,195
 649 941 649 941 691 942 c 0,196,197
 733 942 733 942 763.5 970.5 c 128,-1,198
 794 999 794 999 798 1040 c 1,199,-1
 583 1038 l 1,193,194
EndSplineSet
EndChar

StartChar: g
Encoding: 103 103 43
Width: 1220
VWidth: 345
Flags: W
LayerCount: 2
Fore
SplineSet
645 838 m 1,0,-1
 447 838 l 1,1,-1
 447 437 l 2,2,3
 447 406 447 406 458 393 c 256,4,5
 468 380 468 380 493 380 c 2,6,-1
 509 380 l 1,7,-1
 509 366 l 1,8,-1
 329 366 l 1,9,-1
 329 380 l 1,10,-1
 339 380 l 2,11,12
 364 380 364 380 375 393 c 0,13,14
 386 406 386 406 386 437 c 2,15,-1
 386 796 l 2,16,17
 386 827 386 827 375 840 c 0,18,19
 364 853 364 853 339 853 c 2,20,-1
 329 853 l 1,21,-1
 329 866 l 1,22,-1
 764 866 l 1,23,-1
 764 853 l 1,24,-1
 754 853 l 2,25,26
 728 853 728 853 718 840 c 0,27,28
 707 827 707 827 707 796 c 2,29,-1
 707 437 l 2,30,31
 707 406 707 406 718 393 c 0,32,33
 728 380 728 380 754 380 c 2,34,-1
 764 380 l 1,35,-1
 764 366 l 1,36,-1
 583 366 l 1,37,-1
 583 380 l 1,38,-1
 598 380 l 2,39,40
 623 380 623 380 634 393 c 0,41,42
 645 406 645 406 645 437 c 2,43,-1
 645 838 l 1,0,-1
1071 669 m 1,44,45
 1077 683 1077 683 1105 682 c 128,-1,46
 1133 681 1133 681 1133 662 c 0,47,48
 1133 651 1133 651 1119.5 627 c 128,-1,49
 1106 603 1106 603 1099 594 c 0,50,51
 1092 585 1092 585 1076.5 551.5 c 128,-1,52
 1061 518 1061 518 1046 488 c 1,53,54
 1046 483 1046 483 1050.5 469.5 c 128,-1,55
 1055 456 1055 456 1059 448 c 0,56,57
 1066 432 1066 432 1083 423 c 0,58,59
 1094 417 1094 417 1107 439 c 128,-1,60
 1120 461 1120 461 1134 458 c 0,61,62
 1148 455 1148 455 1150 435.5 c 128,-1,63
 1152 416 1152 416 1140 393 c 0,64,65
 1125 366 1125 366 1100 366 c 0,66,67
 1082 366 1082 366 1073 377 c 0,68,69
 1058 393 1058 393 1047.5 414.5 c 128,-1,70
 1037 436 1037 436 1029 457 c 1,71,72
 992 410 992 410 967 388 c 128,-1,73
 942 366 942 366 912 366 c 0,74,75
 853 366 853 366 828.5 411.5 c 128,-1,76
 804 457 804 457 810 515 c 0,77,78
 815 569 815 569 851.5 622.5 c 128,-1,79
 888 676 888 676 954 670 c 0,80,81
 985 667 985 667 1006 641 c 128,-1,82
 1027 615 1027 615 1031 584 c 1,83,84
 1041 607 1041 607 1049 627.5 c 128,-1,85
 1057 648 1057 648 1071 669 c 1,44,45
853 422 m 0,86,87
 875 404 875 404 900 411 c 128,-1,88
 925 418 925 418 943 433 c 0,89,90
 959 446 959 446 980.5 479 c 128,-1,91
 1002 512 1002 512 1010 533 c 0,92,93
 1013 543 1013 543 1012 564.5 c 128,-1,94
 1011 586 1011 586 1004 601 c 0,95,96
 988 631 988 631 951.5 623.5 c 128,-1,97
 915 616 915 616 893 603 c 0,98,99
 875 592 875 592 859.5 571.5 c 128,-1,100
 844 551 844 551 839 520 c 0,101,102
 833 489 833 489 835.5 461 c 128,-1,103
 838 433 838 433 853 422 c 0,86,87
857 1044 m 1,104,-1
 663 1089 l 1,105,106
 663 1087 663 1087 663 1084 c 128,-1,107
 663 1081 663 1081 663 1079 c 0,108,109
 663 1037 663 1037 692 1007.5 c 128,-1,110
 721 978 721 978 763 978 c 0,111,112
 795 978 795 978 820.5 996.5 c 128,-1,113
 846 1015 846 1015 857 1044 c 1,104,-1
1021 1032 m 2,114,115
 1061 1022 1061 1022 1083 1046 c 128,-1,116
 1105 1070 1105 1070 1071 1081 c 0,117,118
 1051 1087 1051 1087 1057.5 1123 c 128,-1,119
 1064 1159 1064 1159 1104 1149 c 0,120,121
 1143 1140 1143 1140 1141 1106 c 128,-1,122
 1139 1072 1139 1072 1130 1051 c 0,123,124
 1125 1039 1125 1039 1091.5 1018.5 c 128,-1,125
 1058 998 1058 998 1015 1008 c 2,126,-1
 881 1039 l 1,127,128
 869 1001 869 1001 836.5 977 c 128,-1,129
 804 953 804 953 763 953 c 0,130,131
 711 953 711 953 674 990 c 128,-1,132
 637 1027 637 1027 637 1079 c 0,133,134
 637 1084 637 1084 639 1095 c 1,135,-1
 506 1125 l 2,136,137
 465 1134 465 1134 443 1110.5 c 128,-1,138
 421 1087 421 1087 456 1076 c 0,139,140
 475 1070 475 1070 468 1034 c 128,-1,141
 461 998 461 998 421 1008 c 0,142,143
 381 1017 381 1017 384 1051 c 128,-1,144
 387 1085 387 1085 396 1107 c 0,145,146
 400 1119 400 1119 434 1139 c 128,-1,147
 468 1159 468 1159 511 1150 c 2,148,-1
 645 1119 l 1,149,150
 657 1156 657 1156 689.5 1180 c 128,-1,151
 722 1204 722 1204 763 1204 c 0,152,153
 815 1204 815 1204 852 1167.5 c 128,-1,154
 889 1131 889 1131 889 1079 c 0,155,156
 889 1073 889 1073 887 1063 c 1,157,-1
 1021 1032 l 2,114,115
863 1069 m 1,158,159
 863 1071 863 1071 863 1079 c 0,160,161
 863 1121 863 1121 833.5 1150 c 128,-1,162
 804 1179 804 1179 763 1179 c 0,163,164
 730 1179 730 1179 705 1160.5 c 128,-1,165
 680 1142 680 1142 669 1114 c 1,166,-1
 863 1069 l 1,158,159
EndSplineSet
EndChar

StartChar: Y
Encoding: 89 89 44
Width: 92
VWidth: 345
Flags: W
LayerCount: 2
Fore
SplineSet
-640 1008 m 0,0,1
 -675 995 -675 995 -757 1009 c 1,2,3
 -805 1021 -805 1021 -842 1041 c 128,-1,4
 -879 1061 -879 1061 -899 1112 c 1,5,6
 -912 1160 -912 1160 -907.5 1188.5 c 128,-1,7
 -903 1217 -903 1217 -876 1255 c 1,8,9
 -850 1287 -850 1287 -814.5 1303 c 128,-1,10
 -779 1319 -779 1319 -729 1330 c 0,11,12
 -678 1340 -678 1340 -646 1339.5 c 128,-1,13
 -614 1339 -614 1339 -577 1338 c 256,14,15
 -540 1337 -540 1337 -509 1332 c 128,-1,16
 -478 1327 -478 1327 -434 1314 c 0,17,18
 -360 1293 -360 1293 -288 1259 c 0,19,20
 -247 1239 -247 1239 -202.5 1215.5 c 128,-1,21
 -158 1192 -158 1192 -102 1160 c 0,22,23
 -76 1145 -76 1145 -46.5 1127.5 c 128,-1,24
 -17 1110 -17 1110 19 1092 c 1,25,26
 46 1075 46 1075 71 1058.5 c 128,-1,27
 96 1042 96 1042 92 1025.5 c 128,-1,28
 88 1009 88 1009 72.5 1009.5 c 128,-1,29
 57 1010 57 1010 -24.5 1008.5 c 128,-1,30
 -106 1007 -106 1007 -168 1008 c 1,31,32
 -192 1026 -192 1026 -167 1034 c 128,-1,33
 -142 1042 -142 1042 -130 1053 c 0,34,35
 -108 1077 -108 1077 -110 1091 c 128,-1,36
 -112 1105 -112 1105 -117 1112.5 c 128,-1,37
 -122 1120 -122 1120 -132 1129 c 128,-1,38
 -142 1138 -142 1138 -181.5 1165 c 128,-1,39
 -221 1192 -221 1192 -280 1222 c 1,40,41
 -332 1245 -332 1245 -362.5 1259.5 c 128,-1,42
 -393 1274 -393 1274 -460 1293 c 1,43,44
 -510 1303 -510 1303 -561.5 1305 c 128,-1,45
 -613 1307 -613 1307 -667 1289 c 1,46,47
 -704 1273 -704 1273 -719.5 1261.5 c 128,-1,48
 -735 1250 -735 1250 -753 1221 c 0,49,50
 -769 1194 -769 1194 -771.5 1175 c 128,-1,51
 -774 1156 -774 1156 -773 1131 c 256,52,53
 -772 1106 -772 1106 -767 1094.5 c 128,-1,54
 -762 1083 -762 1083 -754 1071.5 c 128,-1,55
 -746 1060 -746 1060 -733.5 1050.5 c 128,-1,56
 -721 1041 -721 1041 -696 1037 c 128,-1,57
 -671 1033 -671 1033 -646 1030 c 0,58,59
 -635 1028 -635 1028 -632 1021 c 128,-1,60
 -629 1014 -629 1014 -640 1008 c 0,0,1
EndSplineSet
EndChar

StartChar: U
Encoding: 85 85 45
Width: 170
VWidth: 345
Flags: W
LayerCount: 2
Fore
SplineSet
-625 1459 m 1,0,1
 -610 1459 -610 1459 -594 1458.5 c 128,-1,2
 -578 1458 -578 1458 -562 1458 c 0,3,4
 -545 1458 -545 1458 -531 1456 c 128,-1,5
 -517 1454 -517 1454 -503 1453 c 0,6,7
 -484 1451 -484 1451 -463 1382 c 0,8,9
 -441 1311 -441 1311 -411 1256 c 0,10,11
 -401 1237 -401 1237 -392 1236 c 0,12,13
 -383 1233 -383 1233 -380 1226 c 0,14,15
 -375 1217 -375 1217 -389 1215 c 0,16,17
 -410 1210 -410 1210 -449 1211 c 0,18,19
 -480 1211 -480 1211 -508 1215 c 1,20,21
 -534 1225 -534 1225 -551 1282 c 0,22,23
 -570 1344 -570 1344 -598 1413 c 0,24,25
 -598 1414 -598 1414 -608 1424 c 0,26,27
 -616 1431 -616 1431 -627 1434 c 0,28,29
 -642 1437 -642 1437 -643 1448 c 0,30,31
 -644 1459 -644 1459 -625 1459 c 1,32,-1
 -625 1459 l 1,0,1
-1126 1137.5 m 128,-1,34
 -1121 1145 -1121 1145 -1115 1146 c 128,-1,35
 -1109 1147 -1109 1147 -1101.5 1142.5 c 128,-1,36
 -1094 1138 -1094 1138 -1084 1133 c 128,-1,37
 -1074 1128 -1074 1128 -1057.5 1124.5 c 128,-1,38
 -1041 1121 -1041 1121 -1011 1121 c 2,39,-1
 -22 1121 l 2,40,41
 6 1121 6 1121 27.5 1116.5 c 128,-1,42
 49 1112 49 1112 67.5 1102.5 c 128,-1,43
 86 1093 86 1093 96 1085 c 128,-1,44
 106 1077 106 1077 124 1059 c 128,-1,45
 142 1041 142 1041 154.5 1023 c 128,-1,46
 167 1005 167 1005 160 989 c 0,47,48
 153 977 153 977 142.5 984 c 128,-1,49
 132 991 132 991 118 996 c 128,-1,50
 104 1001 104 1001 88.5 1002.5 c 128,-1,51
 73 1004 73 1004 39 1004 c 2,52,-1
 -936 1004 l 2,53,54
 -958 1004 -958 1004 -976 1007.5 c 128,-1,55
 -994 1011 -994 1011 -1004.5 1014 c 128,-1,56
 -1015 1017 -1015 1017 -1026.5 1022.5 c 128,-1,57
 -1038 1028 -1038 1028 -1050.5 1036.5 c 128,-1,58
 -1063 1045 -1063 1045 -1078 1060 c 128,-1,59
 -1093 1075 -1093 1075 -1108 1094.5 c 128,-1,60
 -1123 1114 -1123 1114 -1127 1122 c 128,-1,33
 -1131 1130 -1131 1130 -1126 1137.5 c 128,-1,34
EndSplineSet
EndChar

StartChar: I
Encoding: 73 73 46
Width: 185
VWidth: 345
Flags: W
LayerCount: 2
Fore
SplineSet
29 1594 m 1,0,1
 44 1592 44 1592 42 1580.5 c 128,-1,2
 40 1569 40 1569 23 1567 c 1,3,4
 5 1561 5 1561 2.5 1539 c 128,-1,5
 0 1517 0 1517 -10 1479 c 0,6,7
 -35 1383 -35 1383 -67 1341 c 128,-1,8
 -99 1299 -99 1299 -129 1287 c 0,9,10
 -229 1249 -229 1249 -308 1249 c 1,11,12
 -291 1211 -291 1211 -254 1201.5 c 128,-1,13
 -217 1192 -217 1192 -235 1175 c 0,14,15
 -244 1166 -244 1166 -289.5 1194.5 c 128,-1,16
 -335 1223 -335 1223 -361 1255 c 1,17,18
 -361 1276 -361 1276 -342.5 1272.5 c 128,-1,19
 -324 1269 -324 1269 -304 1268 c 0,20,21
 -283 1267 -283 1267 -260 1270.5 c 128,-1,22
 -237 1274 -237 1274 -202 1290 c 0,23,24
 -165 1307 -165 1307 -157.5 1347.5 c 128,-1,25
 -150 1388 -150 1388 -142 1429 c 0,26,27
 -133 1470 -133 1470 -127 1523.5 c 128,-1,28
 -121 1577 -121 1577 -84 1581 c 0,29,30
 -56 1584 -56 1584 -27.5 1587.5 c 128,-1,31
 1 1591 1 1591 29 1594 c 1,0,1
-1116 1137.5 m 128,-1,33
 -1111 1145 -1111 1145 -1105 1146 c 128,-1,34
 -1099 1147 -1099 1147 -1091.5 1142.5 c 128,-1,35
 -1084 1138 -1084 1138 -1074 1133 c 128,-1,36
 -1064 1128 -1064 1128 -1047.5 1124.5 c 128,-1,37
 -1031 1121 -1031 1121 -1001 1121 c 2,38,-1
 -13 1121 l 2,39,40
 15 1121 15 1121 37 1116.5 c 128,-1,41
 59 1112 59 1112 77.5 1102.5 c 128,-1,42
 96 1093 96 1093 106 1085 c 128,-1,43
 116 1077 116 1077 134 1059 c 128,-1,44
 152 1041 152 1041 164.5 1023 c 128,-1,45
 177 1005 177 1005 169 989 c 0,46,47
 162 977 162 977 152 984 c 128,-1,48
 142 991 142 991 128 996 c 128,-1,49
 114 1001 114 1001 98.5 1002.5 c 128,-1,50
 83 1004 83 1004 49 1004 c 2,51,-1
 -926 1004 l 2,52,53
 -948 1004 -948 1004 -966 1007.5 c 128,-1,54
 -984 1011 -984 1011 -994.5 1014 c 128,-1,55
 -1005 1017 -1005 1017 -1016.5 1022.5 c 128,-1,56
 -1028 1028 -1028 1028 -1041 1036.5 c 128,-1,57
 -1054 1045 -1054 1045 -1068.5 1060 c 128,-1,58
 -1083 1075 -1083 1075 -1098 1094.5 c 128,-1,59
 -1113 1114 -1113 1114 -1117 1122 c 128,-1,32
 -1121 1130 -1121 1130 -1116 1137.5 c 128,-1,33
EndSplineSet
EndChar

StartChar: less
Encoding: 60 60 47
Width: 0
VWidth: 345
Flags: W
LayerCount: 2
Fore
SplineSet
-1065 964 m 1,0,1
 -1137 1042 -1137 1042 -1137 1131 c 0,2,3
 -1137 1214 -1137 1214 -1065 1298 c 1,4,-1
 -1035 1298 l 1,5,6
 -1058 1264 -1058 1264 -1067 1245 c 0,7,8
 -1096 1190 -1096 1190 -1096 1131 c 0,9,10
 -1096 1048 -1096 1048 -1035 964 c 1,11,-1
 -1065 964 l 1,0,1
-469 964 m 1,12,-1
 -499 964 l 1,13,14
 -438 1047 -438 1047 -438 1131 c 0,15,16
 -438 1191 -438 1191 -466 1245 c 0,17,18
 -479 1268 -479 1268 -499 1297 c 1,19,-1
 -469 1297 l 1,20,21
 -397 1214 -397 1214 -396 1131 c 0,22,23
 -397 1043 -397 1043 -469 964 c 1,12,-1
-878 1082 m 1,24,-1
 -878 1002 l 1,25,-1
 -948 1002 l 1,26,-1
 -948 1260 l 1,27,-1
 -878 1260 l 1,28,-1
 -878 1137 l 1,29,-1
 -668 1260 l 1,30,-1
 -583 1260 l 1,31,-1
 -763 1151 l 1,32,-1
 -553 1002 l 1,33,-1
 -663 1002 l 1,34,-1
 -822 1116 l 1,35,-1
 -878 1082 l 1,24,-1
EndSplineSet
EndChar

StartChar: greater
Encoding: 62 62 48
Width: 0
VWidth: 345
Flags: W
LayerCount: 2
Fore
SplineSet
-1050 964 m 1,0,1
 -1122 1042 -1122 1042 -1123 1131 c 0,2,3
 -1123 1214 -1123 1214 -1050 1298 c 1,4,-1
 -1020 1298 l 1,5,6
 -1043 1264 -1043 1264 -1053 1245 c 0,7,8
 -1082 1190 -1082 1190 -1082 1131 c 0,9,10
 -1082 1048 -1082 1048 -1020 964 c 1,11,-1
 -1050 964 l 1,0,1
-474 964 m 1,12,-1
 -504 964 l 1,13,14
 -443 1047 -443 1047 -443 1131 c 0,15,16
 -443 1191 -443 1191 -471 1245 c 0,17,18
 -484 1268 -484 1268 -504 1297 c 1,19,-1
 -474 1297 l 1,20,21
 -402 1214 -402 1214 -401 1131 c 0,22,23
 -402 1043 -402 1043 -474 964 c 1,12,-1
-926 1260 m 1,24,-1
 -603 1260 l 2,25,26
 -598 1260 -598 1260 -599 1251 c 1,27,-1
 -808 1046 l 1,28,-1
 -586 1046 l 1,29,-1
 -597 1002 l 1,30,-1
 -937 1002 l 2,31,32
 -941 1002 -941 1002 -941 1011 c 1,33,-1
 -732 1216 l 1,34,-1
 -940 1216 l 1,35,-1
 -926 1260 l 1,24,-1
EndSplineSet
EndChar

StartChar: i
Encoding: 105 105 49
Width: 92
VWidth: 345
Flags: W
LayerCount: 2
Fore
SplineSet
-1167 981 m 1,0,1
 -1177 989 -1177 989 -1168 996 c 128,-1,2
 -1159 1003 -1159 1003 -1146 1003 c 0,3,4
 -1131 1003 -1131 1003 -1104.5 1029 c 128,-1,5
 -1078 1055 -1078 1055 -1069 1095 c 0,6,7
 -1055 1161 -1055 1161 -1139 1202 c 0,8,9
 -1227 1246 -1227 1246 -1369 1261 c 0,10,11
 -1392 1263 -1392 1263 -1421 1262.5 c 128,-1,12
 -1450 1262 -1450 1262 -1455 1264 c 0,13,14
 -1467 1268 -1467 1268 -1464 1279 c 128,-1,15
 -1461 1290 -1461 1290 -1451 1291 c 0,16,17
 -1441 1291 -1441 1291 -1402 1289 c 128,-1,18
 -1363 1287 -1363 1287 -1316 1281 c 0,19,20
 -1263 1273 -1263 1273 -1208 1259.5 c 128,-1,21
 -1153 1246 -1153 1246 -1106 1227 c 0,22,23
 -1053 1206 -1053 1206 -1021.5 1185.5 c 128,-1,24
 -990 1165 -990 1165 -963 1130 c 0,25,26
 -936 1094 -936 1094 -941 1058.5 c 128,-1,27
 -946 1023 -946 1023 -972 1004 c 0,28,29
 -995 986 -995 986 -1026.5 980 c 128,-1,30
 -1058 974 -1058 974 -1087 974 c 0,31,32
 -1115 974 -1115 974 -1126.5 974 c 128,-1,33
 -1138 974 -1138 974 -1167 981 c 1,0,1
-640 974 m 0,34,35
 -675 961 -675 961 -757 975 c 1,36,37
 -805 987 -805 987 -842 1007 c 128,-1,38
 -879 1027 -879 1027 -899 1077 c 1,39,40
 -912 1125 -912 1125 -907.5 1154 c 128,-1,41
 -903 1183 -903 1183 -876 1220 c 1,42,43
 -850 1252 -850 1252 -814.5 1268.5 c 128,-1,44
 -779 1285 -779 1285 -729 1296 c 0,45,46
 -678 1306 -678 1306 -646 1305.5 c 128,-1,47
 -614 1305 -614 1305 -577 1303 c 256,48,49
 -540 1302 -540 1302 -509 1297.5 c 128,-1,50
 -478 1293 -478 1293 -434 1280 c 0,51,52
 -360 1259 -360 1259 -288 1224 c 0,53,54
 -247 1204 -247 1204 -202.5 1181 c 128,-1,55
 -158 1158 -158 1158 -102 1126 c 0,56,57
 -76 1111 -76 1111 -46.5 1093.5 c 128,-1,58
 -17 1076 -17 1076 19 1058 c 1,59,60
 46 1041 46 1041 71 1024.5 c 128,-1,61
 96 1008 96 1008 92 991 c 128,-1,62
 88 974 88 974 72.5 975 c 128,-1,63
 57 976 57 976 -24.5 974 c 128,-1,64
 -106 972 -106 972 -168 974 c 1,65,66
 -192 992 -192 992 -167 1000 c 128,-1,67
 -142 1008 -142 1008 -130 1019 c 0,68,69
 -108 1043 -108 1043 -110 1057 c 128,-1,70
 -112 1071 -112 1071 -117 1078.5 c 128,-1,71
 -122 1086 -122 1086 -132 1095 c 128,-1,72
 -142 1104 -142 1104 -181.5 1131 c 128,-1,73
 -221 1158 -221 1158 -280 1188 c 1,74,75
 -332 1211 -332 1211 -362.5 1225.5 c 128,-1,76
 -393 1240 -393 1240 -460 1259 c 1,77,78
 -510 1269 -510 1269 -561.5 1271 c 128,-1,79
 -613 1273 -613 1273 -667 1255 c 1,80,81
 -704 1239 -704 1239 -719.5 1227.5 c 128,-1,82
 -735 1216 -735 1216 -753 1187 c 0,83,84
 -769 1160 -769 1160 -771.5 1141 c 128,-1,85
 -774 1122 -774 1122 -773 1097 c 256,86,87
 -772 1072 -772 1072 -767 1060.5 c 128,-1,88
 -762 1049 -762 1049 -754 1037.5 c 128,-1,89
 -746 1026 -746 1026 -733.5 1016.5 c 128,-1,90
 -721 1007 -721 1007 -696 1003 c 128,-1,91
 -671 999 -671 999 -646 996 c 0,92,93
 -635 994 -635 994 -632 987 c 128,-1,94
 -629 980 -629 980 -640 974 c 0,34,35
EndSplineSet
EndChar

StartChar: bracketright
Encoding: 93 93 50
Width: 1515
VWidth: 345
Flags: W
LayerCount: 2
Fore
SplineSet
989 530 m 1,0,-1
 998 492 l 2,1,2
 999 488 999 488 1009 472.5 c 128,-1,3
 1019 457 1019 457 1019 453 c 256,4,5
 1019 449 1019 449 1002.5 446 c 128,-1,6
 986 443 986 443 980 443 c 2,7,-1
 919 443 l 2,8,9
 907 443 907 443 896.5 460 c 128,-1,10
 886 477 886 477 883 492 c 2,11,-1
 875 531 l 1,12,13
 758 531 758 531 660 540 c 128,-1,14
 562 549 562 549 521 556 c 0,15,16
 445 568 445 568 395.5 598 c 128,-1,17
 346 628 346 628 330 666 c 0,18,19
 322 685 322 685 301 722.5 c 128,-1,20
 280 760 280 760 257 798 c 128,-1,21
 234 836 234 836 213.5 866 c 128,-1,22
 193 896 193 896 185 900 c 0,23,24
 144 914 144 914 167 930 c 1,25,26
 218 934 218 934 263.5 935.5 c 128,-1,27
 309 937 309 937 357 933 c 0,28,29
 405 930 405 930 426 878 c 128,-1,30
 447 826 447 826 467 742 c 256,31,32
 488 658 488 658 519 627.5 c 128,-1,33
 550 597 550 597 625 577 c 0,34,35
 667 565 667 565 726.5 562 c 128,-1,36
 786 559 786 559 872 560 c 1,37,-1
 859 629 l 2,38,39
 858 634 858 634 849 642.5 c 128,-1,40
 840 651 840 651 840 655 c 0,41,42
 840 661 840 661 856.5 663 c 128,-1,43
 873 665 873 665 879 665 c 2,44,-1
 940 665 l 2,45,46
 951 665 951 665 961.5 649.5 c 128,-1,47
 972 634 972 634 976 616 c 2,48,-1
 986 561 l 1,49,50
 1053 562 1053 562 1077.5 565.5 c 128,-1,51
 1102 569 1102 569 1129 573 c 1,52,53
 1140 572 1140 572 1142.5 563 c 128,-1,54
 1145 554 1145 554 1138 547 c 0,55,56
 1128 539 1128 539 1097 534.5 c 128,-1,57
 1066 530 1066 530 989 530 c 1,0,-1
85 384 m 128,-1,59
 90 392 90 392 96.5 392.5 c 128,-1,60
 103 393 103 393 110 389 c 128,-1,61
 117 385 117 385 128 379.5 c 128,-1,62
 139 374 139 374 156 370.5 c 128,-1,63
 173 367 173 367 204 367 c 2,64,-1
 1228 367 l 2,65,66
 1256 367 1256 367 1279 362.5 c 128,-1,67
 1302 358 1302 358 1321 348 c 128,-1,68
 1340 338 1340 338 1350.5 330 c 128,-1,69
 1361 322 1361 322 1379 302.5 c 128,-1,70
 1397 283 1397 283 1410.5 265 c 128,-1,71
 1424 247 1424 247 1416 230 c 1,72,73
 1408 218 1408 218 1397.5 225 c 128,-1,74
 1387 232 1387 232 1373 237 c 128,-1,75
 1359 242 1359 242 1342.5 244 c 128,-1,76
 1326 246 1326 246 1291 246 c 2,77,-1
 282 246 l 2,78,79
 259 246 259 246 240 249 c 128,-1,80
 221 252 221 252 210.5 255.5 c 128,-1,81
 200 259 200 259 188 265 c 128,-1,82
 176 271 176 271 162.5 279.5 c 128,-1,83
 149 288 149 288 134 303.5 c 128,-1,84
 119 319 119 319 103.5 339.5 c 128,-1,85
 88 360 88 360 84 368 c 128,-1,58
 80 376 80 376 85 384 c 128,-1,59
EndSplineSet
EndChar

StartChar: q
Encoding: 113 113 51
Width: 945
VWidth: 345
Flags: W
LayerCount: 2
Fore
SplineSet
521 776 m 256,0,1
 555 776 555 776 555 741 c 256,2,3
 555 706 555 706 521 707 c 256,4,5
 487 707 487 707 487 741 c 256,6,7
 487 776 487 776 521 776 c 256,0,1
719 776 m 0,8,9
 753 776 753 776 753 741 c 256,10,11
 753 706 753 706 719 707 c 0,12,13
 684 707 684 707 684 741 c 256,14,15
 684 776 684 776 719 776 c 0,8,9
739 572 m 1,16,-1
 743 632 l 1,17,18
 765 638 765 638 791 628 c 1,19,20
 792 588 792 588 786.5 493.5 c 128,-1,21
 781 399 781 399 777 131 c 0,22,23
 777 116 777 116 774 101.5 c 128,-1,24
 771 87 771 87 767 84 c 0,25,26
 746 67 746 67 720 80 c 0,27,28
 713 83 713 83 710 100.5 c 128,-1,29
 707 118 707 118 707 131 c 0,30,31
 707 169 707 169 710.5 183.5 c 128,-1,32
 714 198 714 198 716 208 c 0,33,34
 723 268 723 268 726 310 c 128,-1,35
 729 352 729 352 732 412 c 1,36,37
 690 353 690 353 607 361 c 0,38,39
 549 366 549 366 517.5 410 c 128,-1,40
 486 454 486 454 492 509 c 0,41,42
 498 564 498 564 537.5 598.5 c 128,-1,43
 577 633 577 633 635 627 c 0,44,45
 708 620 708 620 739 572 c 1,16,-1
671 596 m 0,46,47
 641 609 641 609 612 587 c 128,-1,48
 583 565 583 565 564 522 c 0,49,50
 544 478 544 478 551.5 437.5 c 128,-1,51
 559 397 559 397 588 385 c 0,52,53
 625 372 625 372 657.5 387.5 c 128,-1,54
 690 403 690 403 705 458 c 0,55,56
 732 569 732 569 671 596 c 0,46,47
EndSplineSet
EndChar

StartChar: C
Encoding: 67 67 52
Width: 0
VWidth: 345
Flags: W
LayerCount: 2
Fore
SplineSet
-1060 964 m 1,0,1
 -1132 1042 -1132 1042 -1132 1131 c 0,2,3
 -1132 1214 -1132 1214 -1060 1298 c 1,4,-1
 -1030 1298 l 1,5,6
 -1052 1264 -1052 1264 -1062 1245 c 0,7,8
 -1091 1190 -1091 1190 -1091 1131 c 0,9,10
 -1091 1048 -1091 1048 -1030 964 c 1,11,-1
 -1060 964 l 1,0,1
-459 964 m 1,12,-1
 -489 964 l 1,13,14
 -428 1047 -428 1047 -428 1131 c 0,15,16
 -428 1191 -428 1191 -457 1245 c 0,17,18
 -470 1268 -470 1268 -489 1297 c 1,19,-1
 -459 1297 l 1,20,21
 -387 1214 -387 1214 -387 1131 c 0,22,23
 -387 1043 -387 1043 -459 964 c 1,12,-1
-948 1002 m 1,24,-1
 -948 1260 l 1,25,-1
 -869 1260 l 1,26,-1
 -621 1081 l 1,27,-1
 -621 1260 l 1,28,-1
 -576 1260 l 1,29,-1
 -576 1002 l 1,30,-1
 -620 1002 l 1,31,-1
 -904 1206 l 1,32,-1
 -904 1002 l 1,33,-1
 -948 1002 l 1,24,-1
EndSplineSet
EndChar

StartChar: zero
Encoding: 48 48 53
Width: 1519
VWidth: 345
Flags: W
LayerCount: 2
Fore
SplineSet
85 384 m 128,-1,1
 90 392 90 392 96.5 392.5 c 128,-1,2
 103 393 103 393 110 389 c 128,-1,3
 117 385 117 385 128 379.5 c 128,-1,4
 139 374 139 374 156 370.5 c 128,-1,5
 173 367 173 367 204 367 c 2,6,-1
 1228 367 l 2,7,8
 1256 367 1256 367 1279 362.5 c 128,-1,9
 1302 358 1302 358 1321 348 c 128,-1,10
 1340 338 1340 338 1350.5 330 c 128,-1,11
 1361 322 1361 322 1379 302.5 c 128,-1,12
 1397 283 1397 283 1410.5 265 c 128,-1,13
 1424 247 1424 247 1416 230 c 1,14,15
 1408 218 1408 218 1397.5 225 c 128,-1,16
 1387 232 1387 232 1373 237 c 128,-1,17
 1359 242 1359 242 1342.5 244 c 128,-1,18
 1326 246 1326 246 1291 246 c 2,19,-1
 282 246 l 2,20,21
 259 246 259 246 240 249 c 128,-1,22
 221 252 221 252 210.5 255.5 c 128,-1,23
 200 259 200 259 188 265 c 128,-1,24
 176 271 176 271 162.5 279.5 c 128,-1,25
 149 288 149 288 134 303.5 c 128,-1,26
 119 319 119 319 103.5 339.5 c 128,-1,27
 88 360 88 360 84 368 c 128,-1,0
 80 376 80 376 85 384 c 128,-1,1
433 502 m 1,28,29
 395 488 395 488 305 503 c 1,30,31
 252 516 252 516 211 538 c 128,-1,32
 170 560 170 560 148 616 c 1,33,34
 133 669 133 669 138.5 700.5 c 128,-1,35
 144 732 144 732 174 773 c 1,36,37
 203 808 203 808 241.5 826 c 128,-1,38
 280 844 280 844 336 856 c 0,39,40
 392 867 392 867 427 866.5 c 128,-1,41
 462 866 462 866 502 865 c 0,42,43
 542 863 542 863 576.5 858 c 128,-1,44
 611 853 611 853 660 838 c 0,45,46
 741 816 741 816 820 777 c 0,47,48
 864 755 864 755 914 729.5 c 128,-1,49
 964 704 964 704 1025 670 c 0,50,51
 1053 653 1053 653 1086 633.5 c 128,-1,52
 1119 614 1119 614 1158 594 c 1,53,54
 1187 576 1187 576 1215 557.5 c 128,-1,55
 1243 539 1243 539 1238.5 520.5 c 128,-1,56
 1234 502 1234 502 1217 503 c 128,-1,57
 1200 504 1200 504 1110 502 c 128,-1,58
 1020 500 1020 500 953 502 c 1,59,60
 926 522 926 522 953.5 530.5 c 128,-1,61
 981 539 981 539 994 552 c 0,62,63
 1019 578 1019 578 1016.5 593 c 128,-1,64
 1014 608 1014 608 1008.5 616.5 c 128,-1,65
 1003 625 1003 625 992 635 c 128,-1,66
 981 645 981 645 937.5 674.5 c 128,-1,67
 894 704 894 704 830 738 c 1,68,69
 772 763 772 763 739 779 c 128,-1,70
 706 795 706 795 631 815 c 1,71,72
 576 826 576 826 519 828 c 128,-1,73
 462 830 462 830 404 811 c 1,74,75
 363 793 363 793 346 780.5 c 128,-1,76
 329 768 329 768 309 737 c 0,77,78
 291 707 291 707 288 686 c 128,-1,79
 285 665 285 665 287 637 c 0,80,81
 288 609 288 609 293.5 597 c 128,-1,82
 299 585 299 585 308 572 c 128,-1,83
 317 559 317 559 330.5 548.5 c 128,-1,84
 344 538 344 538 371.5 533.5 c 128,-1,85
 399 529 399 529 427 526 c 0,86,87
 439 524 439 524 442 516.5 c 128,-1,88
 445 509 445 509 433 502 c 1,28,29
EndSplineSet
EndChar

StartChar: parenright
Encoding: 41 41 54
Width: 1515
VWidth: 345
Flags: W
LayerCount: 2
Fore
SplineSet
85 384 m 128,-1,1
 90 392 90 392 96.5 392.5 c 128,-1,2
 103 393 103 393 110 389 c 128,-1,3
 117 385 117 385 128 379.5 c 128,-1,4
 139 374 139 374 156 370.5 c 128,-1,5
 173 367 173 367 204 367 c 2,6,-1
 1228 367 l 2,7,8
 1256 367 1256 367 1279 362.5 c 128,-1,9
 1302 358 1302 358 1321 348 c 128,-1,10
 1340 338 1340 338 1350.5 330 c 128,-1,11
 1361 322 1361 322 1379 302.5 c 128,-1,12
 1397 283 1397 283 1410.5 265 c 128,-1,13
 1424 247 1424 247 1416 230 c 1,14,15
 1408 218 1408 218 1397.5 225 c 128,-1,16
 1387 232 1387 232 1373 237 c 128,-1,17
 1359 242 1359 242 1342.5 244 c 128,-1,18
 1326 246 1326 246 1291 246 c 2,19,-1
 282 246 l 2,20,21
 259 246 259 246 240 249 c 128,-1,22
 221 252 221 252 210.5 255.5 c 128,-1,23
 200 259 200 259 188 265 c 128,-1,24
 176 271 176 271 162.5 279.5 c 128,-1,25
 149 288 149 288 134 303.5 c 128,-1,26
 119 319 119 319 103.5 339.5 c 128,-1,27
 88 360 88 360 84 368 c 128,-1,0
 80 376 80 376 85 384 c 128,-1,1
433 502 m 1,28,29
 395 488 395 488 305 503 c 1,30,31
 252 516 252 516 211 538 c 128,-1,32
 170 560 170 560 148 616 c 1,33,34
 133 669 133 669 138.5 700.5 c 128,-1,35
 144 732 144 732 174 773 c 1,36,37
 203 808 203 808 241.5 826 c 128,-1,38
 280 844 280 844 336 856 c 0,39,40
 392 867 392 867 427 866.5 c 128,-1,41
 462 866 462 866 502 865 c 0,42,43
 542 863 542 863 576.5 858 c 128,-1,44
 611 853 611 853 660 838 c 0,45,46
 741 816 741 816 820 777 c 0,47,48
 864 755 864 755 914 729.5 c 128,-1,49
 964 704 964 704 1025 670 c 0,50,51
 1053 653 1053 653 1086 633.5 c 128,-1,52
 1119 614 1119 614 1158 594 c 1,53,54
 1187 576 1187 576 1215 557.5 c 128,-1,55
 1243 539 1243 539 1238.5 520.5 c 128,-1,56
 1234 502 1234 502 1217 503 c 128,-1,57
 1200 504 1200 504 1110 502 c 128,-1,58
 1020 500 1020 500 953 502 c 1,59,60
 926 522 926 522 953.5 530.5 c 128,-1,61
 981 539 981 539 994 552 c 0,62,63
 1019 578 1019 578 1016.5 593 c 128,-1,64
 1014 608 1014 608 1008.5 616.5 c 128,-1,65
 1003 625 1003 625 992 635 c 128,-1,66
 981 645 981 645 937.5 674.5 c 128,-1,67
 894 704 894 704 830 738 c 1,68,69
 772 763 772 763 739 779 c 128,-1,70
 706 795 706 795 631 815 c 1,71,72
 576 826 576 826 519 828 c 128,-1,73
 462 830 462 830 404 811 c 1,74,75
 363 793 363 793 346 780.5 c 128,-1,76
 329 768 329 768 309 737 c 0,77,78
 291 707 291 707 288 686 c 128,-1,79
 285 665 285 665 287 637 c 0,80,81
 288 609 288 609 293.5 597 c 128,-1,82
 299 585 299 585 308 572 c 128,-1,83
 317 559 317 559 330.5 548.5 c 128,-1,84
 344 538 344 538 371.5 533.5 c 128,-1,85
 399 529 399 529 427 526 c 0,86,87
 439 524 439 524 442 516.5 c 128,-1,88
 445 509 445 509 433 502 c 1,28,29
640 449 m 1,89,90
 631 456 631 456 638.5 463 c 128,-1,91
 646 470 646 470 659 470 c 0,92,93
 672 470 672 470 696.5 494 c 128,-1,94
 721 518 721 518 729 553 c 0,95,96
 742 614 742 614 665 653 c 0,97,98
 637 667 637 667 593 677.5 c 128,-1,99
 549 688 549 688 506 696.5 c 128,-1,100
 463 705 463 705 430 710 c 128,-1,101
 397 715 397 715 392 718 c 0,102,103
 381 722 381 722 383.5 729.5 c 128,-1,104
 386 737 386 737 395 737 c 0,105,106
 400 737 400 737 432 733 c 128,-1,107
 464 729 464 729 509 722 c 128,-1,108
 554 715 554 715 604 703 c 128,-1,109
 654 691 654 691 695 676 c 0,110,111
 743 656 743 656 772 637 c 128,-1,112
 801 618 801 618 825 586 c 0,113,114
 849 553 849 553 845.5 521 c 128,-1,115
 842 489 842 489 817 471 c 0,116,117
 795 454 795 454 766.5 448.5 c 128,-1,118
 738 443 738 443 712 443 c 0,119,120
 686 443 686 443 676 443 c 128,-1,121
 666 443 666 443 640 449 c 1,89,90
EndSplineSet
EndChar

StartChar: six
Encoding: 54 54 55
Width: 0
VWidth: 345
Flags: W
LayerCount: 2
Fore
SplineSet
-545 884 m 1,0,-1
 -583 881 l 1,1,2
 -587 903 -587 903 -597 914 c 0,3,4
 -613 931 -613 931 -635 930 c 0,5,6
 -654 930 -654 930 -667 920 c 0,7,8
 -685 907 -685 907 -696 881.5 c 128,-1,9
 -707 856 -707 856 -707 809 c 1,10,11
 -693 830 -693 830 -673 840.5 c 128,-1,12
 -653 851 -653 851 -631 851 c 0,13,14
 -592 851 -592 851 -565.5 823 c 128,-1,15
 -539 795 -539 795 -539 750 c 0,16,17
 -539 721 -539 721 -551.5 695.5 c 128,-1,18
 -564 670 -564 670 -586 656.5 c 128,-1,19
 -608 643 -608 643 -637 643 c 0,20,21
 -685 643 -685 643 -715 678.5 c 128,-1,22
 -745 714 -745 714 -745 795 c 0,23,24
 -745 885 -745 885 -712 926 c 0,25,26
 -683 962 -683 962 -633 962 c 0,27,28
 -596 962 -596 962 -572.5 941.5 c 128,-1,29
 -549 921 -549 921 -545 884 c 1,0,-1
-701 750 m 0,30,31
 -701 730 -701 730 -692.5 712 c 128,-1,32
 -684 694 -684 694 -669 684.5 c 128,-1,33
 -654 675 -654 675 -638 675 c 0,34,35
 -613 675 -613 675 -596 694.5 c 128,-1,36
 -579 714 -579 714 -579 747 c 0,37,38
 -579 779 -579 779 -596 798 c 128,-1,39
 -613 817 -613 817 -639 817 c 0,40,41
 -665 817 -665 817 -683 798.5 c 128,-1,42
 -701 780 -701 780 -701 750 c 0,30,31
EndSplineSet
EndChar

StartChar: seven
Encoding: 55 55 56
Width: 0
VWidth: 345
Flags: W
LayerCount: 2
Fore
SplineSet
-743 925 m 1,0,-1
 -743 963 l 1,1,-1
 -533 963 l 1,2,-1
 -533 931 l 1,3,4
 -564 898 -564 898 -594.5 844 c 128,-1,5
 -625 790 -625 790 -642 732 c 0,6,7
 -654 691 -654 691 -657 643 c 1,8,-1
 -698 643 l 1,9,10
 -697 681 -697 681 -682.5 735.5 c 128,-1,11
 -668 790 -668 790 -641 840 c 128,-1,12
 -614 890 -614 890 -584 925 c 1,13,-1
 -743 925 l 1,0,-1
EndSplineSet
EndChar

StartChar: nine
Encoding: 57 57 57
Width: 1515
VWidth: 345
Flags: W
LayerCount: 2
Fore
SplineSet
85 384 m 128,-1,1
 90 392 90 392 96.5 392.5 c 128,-1,2
 103 393 103 393 110 389 c 128,-1,3
 117 385 117 385 128 379.5 c 128,-1,4
 139 374 139 374 156 370.5 c 128,-1,5
 173 367 173 367 204 367 c 2,6,-1
 1228 367 l 2,7,8
 1256 367 1256 367 1279 362.5 c 128,-1,9
 1302 358 1302 358 1321 348 c 128,-1,10
 1340 338 1340 338 1350.5 330 c 128,-1,11
 1361 322 1361 322 1379 302.5 c 128,-1,12
 1397 283 1397 283 1410.5 265 c 128,-1,13
 1424 247 1424 247 1416 230 c 1,14,15
 1408 218 1408 218 1397.5 225 c 128,-1,16
 1387 232 1387 232 1373 237 c 128,-1,17
 1359 242 1359 242 1342.5 244 c 128,-1,18
 1326 246 1326 246 1291 246 c 2,19,-1
 282 246 l 2,20,21
 259 246 259 246 240 249 c 128,-1,22
 221 252 221 252 210.5 255.5 c 128,-1,23
 200 259 200 259 188 265 c 128,-1,24
 176 271 176 271 162.5 279.5 c 128,-1,25
 149 288 149 288 134 303.5 c 128,-1,26
 119 319 119 319 103.5 339.5 c 128,-1,27
 88 360 88 360 84 368 c 128,-1,0
 80 376 80 376 85 384 c 128,-1,1
129 668 m 1,28,29
 96 737 96 737 111 786 c 128,-1,30
 126 835 126 835 166 839 c 0,31,32
 192 841 192 841 205.5 834.5 c 128,-1,33
 219 828 219 828 229 821.5 c 128,-1,34
 239 815 239 815 248.5 807.5 c 128,-1,35
 258 800 258 800 266 791.5 c 128,-1,36
 274 783 274 783 277 777 c 128,-1,37
 280 771 280 771 280 765.5 c 128,-1,38
 280 760 280 760 276.5 757.5 c 128,-1,39
 273 755 273 755 257.5 748 c 128,-1,40
 242 741 242 741 217.5 725.5 c 128,-1,41
 193 710 193 710 194 674 c 0,42,43
 194 636 194 636 263.5 602.5 c 128,-1,44
 333 569 333 569 470 575 c 1,45,-1
 1115 594 l 2,46,47
 1144 594 1144 594 1161.5 589.5 c 128,-1,48
 1179 585 1179 585 1193 578 c 128,-1,49
 1207 571 1207 571 1216.5 564 c 128,-1,50
 1226 557 1226 557 1239 544 c 128,-1,51
 1252 531 1252 531 1269.5 510 c 128,-1,52
 1287 489 1287 489 1292.5 479 c 128,-1,53
 1298 469 1298 469 1298 459.5 c 128,-1,54
 1298 450 1298 450 1292.5 447 c 128,-1,55
 1287 444 1287 444 1280.5 444 c 128,-1,56
 1274 444 1274 444 1267 447 c 128,-1,57
 1260 450 1260 450 1250 453.5 c 128,-1,58
 1240 457 1240 457 1227.5 461.5 c 128,-1,59
 1215 466 1215 466 1205 468 c 128,-1,60
 1195 470 1195 470 1176 470 c 2,61,-1
 829 476 l 2,62,63
 748 476 748 476 659 483.5 c 128,-1,64
 570 491 570 491 491 503 c 128,-1,65
 412 515 412 515 352 529.5 c 128,-1,66
 292 544 292 544 270 553 c 0,67,68
 232 571 232 571 203 588.5 c 128,-1,69
 174 606 174 606 129 668 c 1,28,29
EndSplineSet
EndChar

StartChar: eight
Encoding: 56 56 58
Width: 0
VWidth: 345
Flags: W
LayerCount: 2
Fore
SplineSet
-672 822 m 1,0,1
 -695 830 -695 830 -706 846 c 128,-1,2
 -717 862 -717 862 -717 884 c 0,3,4
 -717 917 -717 917 -693 939.5 c 128,-1,5
 -669 962 -669 962 -630 962 c 256,6,7
 -590 962 -590 962 -566 939 c 128,-1,8
 -542 916 -542 916 -542 883 c 0,9,10
 -542 862 -542 862 -553 846 c 128,-1,11
 -564 830 -564 830 -586 822 c 1,12,13
 -559 813 -559 813 -544.5 792.5 c 128,-1,14
 -530 772 -530 772 -530 744 c 0,15,16
 -530 705 -530 705 -557.5 678.5 c 128,-1,17
 -585 652 -585 652 -630 652 c 0,18,19
 -674 652 -674 652 -701.5 678.5 c 128,-1,20
 -729 705 -729 705 -729 745 c 0,21,22
 -729 775 -729 775 -714.5 795 c 128,-1,23
 -700 815 -700 815 -672 822 c 1,0,1
-679 885 m 0,24,25
 -679 863 -679 863 -665 849.5 c 128,-1,26
 -651 836 -651 836 -630 836 c 0,27,28
 -608 836 -608 836 -594.5 849.5 c 128,-1,29
 -581 863 -581 863 -581 883 c 0,30,31
 -581 904 -581 904 -595 917.5 c 128,-1,32
 -609 931 -609 931 -630 931 c 0,33,34
 -651 931 -651 931 -665 917.5 c 128,-1,35
 -679 904 -679 904 -679 885 c 0,24,25
-691 744 m 0,36,37
 -691 728 -691 728 -683.5 713.5 c 128,-1,38
 -676 699 -676 699 -661 690.5 c 128,-1,39
 -646 682 -646 682 -629 682 c 0,40,41
 -602 682 -602 682 -585 699.5 c 128,-1,42
 -568 717 -568 717 -568 744 c 0,43,44
 -568 770 -568 770 -586 787.5 c 128,-1,45
 -604 805 -604 805 -630 805 c 0,46,47
 -656 805 -656 805 -673.5 787.5 c 128,-1,48
 -691 770 -691 770 -691 744 c 0,36,37
EndSplineSet
EndChar

StartChar: underscore
Encoding: 95 95 59
Width: 1514
VWidth: 345
Flags: W
LayerCount: 2
Fore
SplineSet
175 537 m 1,0,1
 165 544 165 544 174 550.5 c 128,-1,2
 183 557 183 557 195 557 c 0,3,4
 209 557 209 557 234 582.5 c 128,-1,5
 259 608 259 608 268 645 c 0,6,7
 281 707 281 707 202 747 c 0,8,9
 143 776 143 776 43 791.5 c 128,-1,10
 -57 807 -57 807 -68 812 c 256,11,12
 -79 816 -79 816 -76.5 824 c 128,-1,13
 -74 832 -74 832 -65 832 c 0,14,15
 -56 832 -56 832 46 817.5 c 128,-1,16
 148 803 148 803 232 771 c 0,17,18
 282 751 282 751 312.5 731 c 128,-1,19
 343 711 343 711 368 678 c 0,20,21
 393 644 393 644 389 610.5 c 128,-1,22
 385 577 385 577 360 559 c 0,23,24
 337 542 337 542 307.5 536 c 128,-1,25
 278 530 278 530 251 530 c 0,26,27
 224 530 224 530 213 530.5 c 128,-1,28
 202 531 202 531 175 537 c 1,0,1
1161 459 m 1,29,30
 1196 472 1196 472 1277 457 c 1,31,32
 1325 445 1325 445 1362 425.5 c 128,-1,33
 1399 406 1399 406 1419 355 c 1,34,35
 1432 307 1432 307 1428 278.5 c 128,-1,36
 1424 250 1424 250 1396 212 c 1,37,38
 1370 181 1370 181 1335 164 c 128,-1,39
 1300 147 1300 147 1249 137 c 0,40,41
 1199 127 1199 127 1167 127 c 128,-1,42
 1135 127 1135 127 1098 129 c 0,43,44
 1062 130 1062 130 1030.5 134.5 c 128,-1,45
 999 139 999 139 954 153 c 0,46,47
 880 174 880 174 809 208 c 0,48,49
 768 228 768 228 723 251 c 128,-1,50
 678 274 678 274 623 305 c 0,51,52
 597 321 597 321 567 338.5 c 128,-1,53
 537 356 537 356 502 374 c 0,54,55
 475 390 475 390 449.5 407 c 128,-1,56
 424 424 424 424 428 441 c 128,-1,57
 432 458 432 458 447.5 457 c 128,-1,58
 463 456 463 456 545 458 c 128,-1,59
 627 460 627 460 688 458 c 1,60,61
 712 440 712 440 687.5 432.5 c 128,-1,62
 663 425 663 425 650 412 c 0,63,64
 628 389 628 389 630.5 375.5 c 128,-1,65
 633 362 633 362 637.5 354 c 128,-1,66
 642 346 642 346 652.5 337 c 128,-1,67
 663 328 663 328 702.5 301 c 128,-1,68
 742 274 742 274 800 244 c 1,69,70
 852 221 852 221 882.5 206.5 c 128,-1,71
 913 192 913 192 980 174 c 1,72,73
 1030 165 1030 165 1082 162.5 c 128,-1,74
 1134 160 1134 160 1188 177 c 1,75,76
 1225 194 1225 194 1240 205.5 c 128,-1,77
 1255 217 1255 217 1274 245 c 0,78,79
 1290 273 1290 273 1292.5 291.5 c 128,-1,80
 1295 310 1295 310 1293 335 c 0,81,82
 1292 360 1292 360 1287 371.5 c 128,-1,83
 1282 383 1282 383 1274 395 c 128,-1,84
 1266 407 1266 407 1254 416.5 c 128,-1,85
 1242 426 1242 426 1216.5 430 c 128,-1,86
 1191 434 1191 434 1167 436 c 0,87,88
 1156 438 1156 438 1153 445.5 c 128,-1,89
 1150 453 1150 453 1161 459 c 1,29,30
675 525 m 0,90,91
 640 512 640 512 558 526 c 1,92,93
 510 538 510 538 473 558 c 128,-1,94
 436 578 436 578 416 628 c 1,95,96
 403 676 403 676 407.5 705 c 128,-1,97
 412 734 412 734 439 771 c 1,98,99
 465 803 465 803 500.5 819.5 c 128,-1,100
 536 836 536 836 586 846 c 0,101,102
 637 856 637 856 669 856 c 128,-1,103
 701 856 701 856 738 854 c 256,104,105
 775 853 775 853 806 848.5 c 128,-1,106
 837 844 837 844 881 830 c 0,107,108
 955 809 955 809 1027 775 c 0,109,110
 1068 755 1068 755 1112.5 732 c 128,-1,111
 1157 709 1157 709 1213 677 c 0,112,113
 1239 662 1239 662 1268.5 644.5 c 128,-1,114
 1298 627 1298 627 1333 609 c 1,115,116
 1360 592 1360 592 1385.5 575.5 c 128,-1,117
 1411 559 1411 559 1407 542 c 128,-1,118
 1403 525 1403 525 1387.5 526 c 128,-1,119
 1372 527 1372 527 1290 525 c 128,-1,120
 1208 523 1208 523 1147 525 c 1,121,122
 1123 543 1123 543 1148 550.5 c 128,-1,123
 1173 558 1173 558 1185 570 c 0,124,125
 1207 594 1207 594 1205 607.5 c 128,-1,126
 1203 621 1203 621 1198 629 c 128,-1,127
 1193 637 1193 637 1183 646 c 128,-1,128
 1173 655 1173 655 1133.5 682 c 128,-1,129
 1094 709 1094 709 1035 739 c 1,130,131
 983 762 983 762 952.5 776.5 c 128,-1,132
 922 791 922 791 855 809 c 1,133,134
 805 819 805 819 753.5 821.5 c 128,-1,135
 702 824 702 824 648 806 c 1,136,137
 611 790 611 790 595.5 778 c 128,-1,138
 580 766 580 766 562 738 c 0,139,140
 546 711 546 711 543.5 692 c 128,-1,141
 541 673 541 673 542 648 c 256,142,143
 543 623 543 623 548 611.5 c 128,-1,144
 553 600 553 600 561 588 c 128,-1,145
 569 576 569 576 581.5 566.5 c 128,-1,146
 594 557 594 557 619 553.5 c 128,-1,147
 644 550 644 550 669 547 c 0,148,149
 680 545 680 545 683 538 c 128,-1,150
 686 531 686 531 675 525 c 0,90,91
EndSplineSet
EndChar

StartChar: hyphen
Encoding: 45 45 60
Width: 1164
VWidth: 345
Flags: W
LayerCount: 2
Fore
SplineSet
772 673 m 0,0,1
 795 673 795 673 794 659 c 128,-1,2
 793 645 793 645 778 642 c 0,3,4
 751 637 751 637 742 619 c 0,5,6
 706 532 706 532 686.5 468 c 128,-1,7
 667 404 667 404 637 391 c 1,8,9
 605 387 605 387 569.5 386.5 c 128,-1,10
 534 386 534 386 500 391 c 1,11,12
 485 397 485 397 489.5 404.5 c 128,-1,13
 494 412 494 412 504 415 c 0,14,15
 513 418 513 418 525 439 c 0,16,17
 560 501 560 501 583 579 c 128,-1,18
 606 657 606 657 633 666 c 0,19,20
 667 676 667 676 702 674.5 c 128,-1,21
 737 673 737 673 772 673 c 0,0,1
828 474 m 1,22,23
 864 487 864 487 947 472 c 1,24,25
 996 459 996 459 1034 439 c 128,-1,26
 1072 419 1072 419 1093 367 c 1,27,28
 1106 318 1106 318 1101.5 289 c 128,-1,29
 1097 260 1097 260 1069 221 c 1,30,31
 1042 189 1042 189 1006 172 c 128,-1,32
 970 155 970 155 918 144 c 0,33,34
 866 134 866 134 833.5 134.5 c 128,-1,35
 801 135 801 135 763 136 c 0,36,37
 725 138 725 138 693.5 142.5 c 128,-1,38
 662 147 662 147 616 161 c 0,39,40
 541 182 541 182 467 218 c 0,41,42
 425 239 425 239 379.5 262 c 128,-1,43
 334 285 334 285 277 318 c 0,44,45
 251 334 251 334 220 352 c 128,-1,46
 189 370 189 370 153 388 c 1,47,48
 126 405 126 405 100 422 c 128,-1,49
 74 439 74 439 78 456.5 c 128,-1,50
 82 474 82 474 98 473 c 128,-1,51
 114 472 114 472 198 473.5 c 128,-1,52
 282 475 282 475 344 474 c 1,53,54
 369 456 369 456 343.5 448 c 128,-1,55
 318 440 318 440 306 428 c 0,56,57
 283 404 283 404 285.5 389.5 c 128,-1,58
 288 375 288 375 292.5 367 c 128,-1,59
 297 359 297 359 307.5 350 c 128,-1,60
 318 341 318 341 358.5 313 c 128,-1,61
 399 285 399 285 458 255 c 1,62,63
 512 231 512 231 543 216 c 128,-1,64
 574 201 574 201 643 182 c 1,65,66
 694 172 694 172 747 170 c 128,-1,67
 800 168 800 168 855 186 c 1,68,69
 893 203 893 203 908.5 214.5 c 128,-1,70
 924 226 924 226 943 255 c 0,71,72
 960 283 960 283 962.5 302.5 c 128,-1,73
 965 322 965 322 963 347 c 0,74,75
 962 373 962 373 957 384.5 c 128,-1,76
 952 396 952 396 944 408.5 c 128,-1,77
 936 421 936 421 923.5 430.5 c 128,-1,78
 911 440 911 440 885 444 c 128,-1,79
 859 448 859 448 833 451 c 0,80,81
 822 453 822 453 819.5 460.5 c 128,-1,82
 817 468 817 468 828 474 c 1,22,23
EndSplineSet
EndChar

StartChar: H
Encoding: 72 72 61
Width: 775
VWidth: 345
Flags: W
LayerCount: 2
Fore
SplineSet
717 426 m 0,0,1
 723 426 723 426 724 392.5 c 128,-1,2
 725 359 725 359 716 336 c 1,3,4
 699 336 699 336 656.5 338.5 c 128,-1,5
 614 341 614 341 612 322 c 0,6,7
 608 292 608 292 602.5 275.5 c 128,-1,8
 597 259 597 259 611 212 c 0,9,10
 621 177 621 177 656 188.5 c 128,-1,11
 691 200 691 200 719 204 c 1,12,13
 721 182 721 182 712 149 c 128,-1,14
 703 116 703 116 695 108 c 0,15,16
 675 87 675 87 651 87 c 0,17,18
 638 87 638 87 624.5 100.5 c 128,-1,19
 611 114 611 114 607 126 c 0,20,21
 590 171 590 171 581.5 236.5 c 128,-1,22
 573 302 573 302 596 344 c 1,23,-1
 496 348 l 1,24,25
 491 260 491 260 485.5 223.5 c 128,-1,26
 480 187 480 187 467 134 c 0,27,28
 455 88 455 88 421 87 c 0,29,30
 406 87 406 87 396 97 c 0,31,32
 388 105 388 105 388 121 c 0,33,34
 388 125 388 125 390 131.5 c 128,-1,35
 392 138 392 138 392 139 c 0,36,37
 392 142 392 142 400.5 153.5 c 128,-1,38
 409 165 409 165 414 171 c 0,39,40
 421 181 421 181 432 190 c 128,-1,41
 443 199 443 199 452 218 c 0,42,43
 460 236 460 236 470 292 c 128,-1,44
 480 348 480 348 452 348 c 0,45,46
 428 348 428 348 412 341 c 0,47,48
 392 333 392 333 374 305 c 1,49,-1
 360 305 l 1,50,51
 369 362 369 362 381.5 386.5 c 128,-1,52
 394 411 394 411 404 421 c 0,53,54
 424 438 424 438 458 438 c 0,55,56
 518 438 518 438 581.5 431 c 128,-1,57
 645 424 645 424 717 426 c 0,0,1
555 742 m 1,58,-1
 427 523 l 1,59,-1
 360 523 l 1,60,-1
 533 821 l 1,61,62
 528 842 528 842 520 869 c 128,-1,63
 512 896 512 896 496 911 c 0,64,65
 487 918 487 918 473.5 921.5 c 128,-1,66
 460 925 460 925 453 919 c 0,67,68
 446 913 446 913 424 909 c 128,-1,69
 402 905 402 905 398 919 c 0,70,71
 388 947 388 947 410 960.5 c 128,-1,72
 432 974 432 974 460 974 c 0,73,74
 501 974 501 974 520 933 c 128,-1,75
 539 892 539 892 545 867 c 2,76,-1
 606 639 l 2,77,78
 619 589 619 589 637 574 c 0,79,80
 655 558 655 558 673 558 c 0,81,82
 684 558 684 558 700.5 562 c 128,-1,83
 717 566 717 566 722 571 c 0,84,85
 729 577 729 577 728.5 577 c 128,-1,86
 728 577 728 577 739 577 c 1,87,88
 739 573 739 573 739 569 c 128,-1,89
 739 565 739 565 739 564 c 0,90,91
 736 552 736 552 733 547 c 128,-1,92
 730 542 730 542 720 530 c 0,93,94
 703 513 703 513 670 513 c 0,95,96
 644 513 644 513 625 532 c 0,97,98
 604 552 604 552 587 617 c 2,99,-1
 555 742 l 1,58,-1
EndSplineSet
EndChar

StartChar: T
Encoding: 84 84 62
Width: 14
VWidth: 345
Flags: W
LayerCount: 2
Fore
SplineSet
-141 831 m 1,0,-1
 -557 831 l 1,1,-1
 -364 1255 l 1,2,-1
 -273 1255 l 1,3,-1
 -442 874 l 1,4,-1
 -174 874 l 1,5,-1
 -141 831 l 1,0,-1
EndSplineSet
EndChar

StartChar: quotesingle
Encoding: 39 39 63
Width: 0
VWidth: 345
Flags: W
LayerCount: 2
Fore
SplineSet
-1279 -351 m 1,0,1
 -1452 -341 -1452 -341 -1556 -277 c 128,-1,2
 -1660 -213 -1660 -213 -1750 -62 c 1,3,-1
 -1729 -49 l 1,4,5
 -1591 -212 -1591 -212 -1489 -244 c 128,-1,6
 -1387 -276 -1387 -276 -1280 -281 c 1,7,8
 -1135 -269 -1135 -269 -1044 -226.5 c 128,-1,9
 -953 -184 -953 -184 -846 -49 c 1,10,-1
 -824 -66 l 1,11,12
 -937 -236 -937 -236 -1036 -287.5 c 128,-1,13
 -1135 -339 -1135 -339 -1279 -351 c 1,0,1
EndSplineSet
EndChar

StartChar: quotedbl
Encoding: 34 34 64
Width: 0
VWidth: 345
Flags: W
LayerCount: 2
Fore
SplineSet
-1146 1261 m 1,0,1
 -1319 1251 -1319 1251 -1422.5 1186 c 128,-1,2
 -1526 1121 -1526 1121 -1617 969 c 1,3,-1
 -1595 956 l 1,4,5
 -1457 1121 -1457 1121 -1355 1152.5 c 128,-1,6
 -1253 1184 -1253 1184 -1146 1191 c 1,7,8
 -1001 1179 -1001 1179 -910.5 1136 c 128,-1,9
 -820 1093 -820 1093 -713 956 c 1,10,-1
 -691 973 l 1,11,12
 -804 1145 -804 1145 -903 1197 c 128,-1,13
 -1002 1249 -1002 1249 -1146 1261 c 1,0,1
EndSplineSet
EndChar

StartChar: backslash
Encoding: 92 92 65
Width: 0
VWidth: 345
Flags: W
LayerCount: 2
Fore
SplineSet
-1769 -51 m 2,0,1
 -1759 -42 -1759 -42 -1741 -53.5 c 128,-1,2
 -1723 -65 -1723 -65 -1737 -87 c 1,3,-1
 -1848 -207 l 1,4,5
 -1839 -200 -1839 -200 -1773.5 -174.5 c 128,-1,6
 -1708 -149 -1708 -149 -1673 -140 c 0,7,8
 -1592 -121 -1592 -121 -1493 -137 c 128,-1,9
 -1394 -153 -1394 -153 -1320 -183 c 0,10,11
 -1288 -197 -1288 -197 -1234.5 -226 c 128,-1,12
 -1181 -255 -1181 -255 -1116 -282 c 128,-1,13
 -1051 -309 -1051 -309 -980 -325 c 128,-1,14
 -909 -341 -909 -341 -842 -329 c 0,15,16
 -804 -323 -804 -323 -772 -297.5 c 128,-1,17
 -740 -272 -740 -272 -750 -253 c 0,18,19
 -760 -235 -760 -235 -793 -256.5 c 128,-1,20
 -826 -278 -826 -278 -852 -215 c 0,21,22
 -871 -167 -871 -167 -842 -135.5 c 128,-1,23
 -813 -104 -813 -104 -764 -117 c 0,24,25
 -693 -137 -693 -137 -697 -217 c 0,26,27
 -699 -259 -699 -259 -734.5 -300.5 c 128,-1,28
 -770 -342 -770 -342 -812 -354 c 0,29,30
 -899 -379 -899 -379 -976 -369 c 128,-1,31
 -1053 -359 -1053 -359 -1119.5 -334 c 128,-1,32
 -1186 -309 -1186 -309 -1242.5 -277.5 c 128,-1,33
 -1299 -246 -1299 -246 -1346 -227 c 0,34,35
 -1433 -191 -1433 -191 -1510 -173.5 c 128,-1,36
 -1587 -156 -1587 -156 -1671 -172 c 0,37,38
 -1720 -181 -1720 -181 -1784.5 -206.5 c 128,-1,39
 -1849 -232 -1849 -232 -1871 -250 c 0,40,41
 -1882 -260 -1882 -260 -1899 -246.5 c 128,-1,42
 -1916 -233 -1916 -233 -1906 -211 c 1,43,-1
 -1769 -51 l 2,0,1
EndSplineSet
EndChar

StartChar: bar
Encoding: 124 124 66
Width: 828
VWidth: 345
Flags: W
LayerCount: 2
Fore
SplineSet
176 343 m 1,0,-1
 170 300 l 2,1,2
 170 293 170 293 161 294 c 2,3,-1
 93 294 l 1,4,5
 81 292 81 292 76 268.5 c 128,-1,6
 71 245 71 245 70 236 c 0,7,8
 68 211 68 211 68 195 c 128,-1,9
 68 179 68 179 70 167 c 0,10,11
 72 136 72 136 88 137.5 c 128,-1,12
 104 139 104 139 111 144 c 0,13,14
 123 152 123 152 135.5 152.5 c 128,-1,15
 148 153 148 153 152 141 c 0,16,17
 158 121 158 121 153 107 c 128,-1,18
 148 93 148 93 140 84 c 0,19,20
 127 68 127 68 104 69 c 0,21,22
 78 69 78 69 63 90 c 0,23,24
 55 100 55 100 48.5 118.5 c 128,-1,25
 42 137 42 137 42 165 c 0,26,27
 41 178 41 178 41 196 c 128,-1,28
 41 214 41 214 45 238 c 0,29,30
 49 268 49 268 59 297 c 1,31,-1
 25 299 l 2,32,33
 2 300 2 300 -13 291 c 0,34,35
 -26 283 -26 283 -39 260 c 1,36,-1
 -50 260 l 1,37,38
 -39 287 -39 287 -32.5 301.5 c 128,-1,39
 -26 316 -26 316 -13 329 c 0,40,41
 3 343 3 343 34 343 c 2,42,-1
 176 343 l 1,0,-1
208 203 m 0,43,44
 208 254 208 254 240 298.5 c 128,-1,45
 272 343 272 343 325 343 c 0,46,47
 379 343 379 343 412 300.5 c 128,-1,48
 445 258 445 258 445 205 c 0,49,50
 445 151 445 151 411.5 110 c 128,-1,51
 378 69 378 69 327 69 c 0,52,53
 272 69 272 69 240 109.5 c 128,-1,54
 208 150 208 150 208 203 c 0,43,44
259 119 m 0,55,56
 280 105 280 105 302.5 107 c 128,-1,57
 325 109 325 109 344 122 c 0,58,59
 359 134 359 134 375.5 156.5 c 128,-1,60
 392 179 392 179 400 198 c 0,61,62
 410 220 410 220 410 251.5 c 128,-1,63
 410 283 410 283 385 299 c 0,64,65
 367 310 367 310 345.5 305 c 128,-1,66
 324 300 324 300 308 288 c 0,67,68
 257 252 257 252 243 184 c 0,69,70
 240 169 240 169 242.5 149 c 128,-1,71
 245 129 245 129 259 119 c 0,55,56
677 307 m 0,72,73
 664 277 664 277 642 277 c 0,74,75
 605 277 605 277 574 268.5 c 128,-1,76
 543 260 543 260 525 236 c 0,77,78
 510 215 510 215 510 187 c 0,79,80
 510 160 510 160 524.5 146 c 128,-1,81
 539 132 539 132 557 128 c 0,82,83
 566 125 566 125 579 123.5 c 128,-1,84
 592 122 592 122 607 122 c 128,-1,85
 622 122 622 122 639.5 124.5 c 128,-1,86
 657 127 657 127 669 124.5 c 128,-1,87
 681 122 681 122 691.5 113.5 c 128,-1,88
 702 105 702 105 706.5 92 c 128,-1,89
 711 79 711 79 711 61 c 0,90,91
 711 42 711 42 704 23 c 0,92,93
 698 4 698 4 684 -10 c 0,94,95
 662 -35 662 -35 631 -35 c 0,96,97
 615 -35 615 -35 598.5 -24.5 c 128,-1,98
 582 -14 582 -14 582 -2 c 0,99,100
 581 13 581 13 593.5 17 c 128,-1,101
 606 21 606 21 621 18 c 0,102,103
 633 15 633 15 639.5 11 c 128,-1,104
 646 7 646 7 651 7 c 0,105,106
 667 7 667 7 676.5 20 c 128,-1,107
 686 33 686 33 686 50 c 2,108,-1
 686 53 l 2,109,110
 686 65 686 65 675 74 c 1,111,112
 659 80 659 80 622 75 c 0,113,114
 606 74 606 74 599 74 c 0,115,116
 557 80 557 80 523 111 c 1,117,118
 488 146 488 146 489 183 c 0,119,120
 489 198 489 198 491.5 218.5 c 128,-1,121
 494 239 494 239 501 256 c 0,122,123
 519 296 519 296 561.5 319.5 c 128,-1,124
 604 343 604 343 632 343 c 0,125,126
 640 343 640 343 648 342.5 c 128,-1,127
 656 342 656 342 667 339 c 0,128,129
 681 335 681 335 680.5 325 c 128,-1,130
 680 315 680 315 677 307 c 0,72,73
EndSplineSet
EndChar

StartChar: z
Encoding: 122 122 67
Width: 0
VWidth: 345
Flags: W
LayerCount: 2
Fore
SplineSet
-585 1 m 0,0,1
 -577 -3 -577 -3 -567.5 -10 c 128,-1,2
 -558 -17 -558 -17 -551 -22 c 0,3,4
 -513 -49 -513 -49 -483 -67.5 c 128,-1,5
 -453 -86 -453 -86 -410 -94 c 0,6,7
 -389 -98 -389 -98 -365 -96 c 128,-1,8
 -341 -94 -341 -94 -332 -91 c 0,9,10
 -306 -82 -306 -82 -303 -58.5 c 128,-1,11
 -300 -35 -300 -35 -309 -20 c 0,12,13
 -314 -10 -314 -10 -312.5 1.5 c 128,-1,14
 -311 13 -311 13 -300 16 c 1,15,16
 -252 12 -252 12 -220.5 -11.5 c 128,-1,17
 -189 -35 -189 -35 -185 -59 c 1,18,-1
 -185 -67 l 2,19,20
 -185 -84 -185 -84 -202 -107.5 c 128,-1,21
 -219 -131 -219 -131 -256 -139 c 0,22,23
 -343 -160 -343 -160 -429 -126 c 0,24,25
 -476 -107 -476 -107 -521.5 -83 c 128,-1,26
 -567 -59 -567 -59 -604 -30 c 0,27,28
 -616 -21 -616 -21 -609 -6 c 128,-1,29
 -602 9 -602 9 -585 1 c 0,0,1
EndSplineSet
EndChar

StartChar: equal
Encoding: 61 61 68
Width: 0
VWidth: 345
Flags: W
LayerCount: 2
Fore
SplineSet
-724 685 m 1,0,1
 -728 682 -728 682 -732.5 677.5 c 128,-1,2
 -737 673 -737 673 -741 669 c 1,3,-1
 -691 618 l 2,4,5
 -680 607 -680 607 -691 598.5 c 128,-1,6
 -702 590 -702 590 -711 599 c 2,7,-1
 -760 650 l 1,8,-1
 -771 638 l 1,9,-1
 -775 633 l 2,10,11
 -786 621 -786 621 -796.5 632 c 128,-1,12
 -807 643 -807 643 -796 655 c 2,13,-1
 -779 670 l 1,14,-1
 -828 719 l 2,15,16
 -838 728 -838 728 -827 737 c 128,-1,17
 -816 746 -816 746 -808 738 c 2,18,-1
 -760 689 l 1,19,-1
 -743 705 l 1,20,-1
 -792 754 l 2,21,22
 -802 763 -802 763 -791 772.5 c 128,-1,23
 -780 782 -780 782 -771 773 c 2,24,-1
 -724 724 l 1,25,-1
 -708 740 l 1,26,-1
 -756 790 l 2,27,28
 -766 799 -766 799 -755.5 808.5 c 128,-1,29
 -745 818 -745 818 -736 809 c 2,30,-1
 -688 759 l 1,31,-1
 -658 789 l 1,32,33
 -683 821 -683 821 -683 861 c 0,34,35
 -683 910 -683 910 -648 945 c 128,-1,36
 -613 980 -613 980 -564 980 c 0,37,38
 -514 980 -514 980 -479.5 945 c 128,-1,39
 -445 910 -445 910 -445 861 c 0,40,41
 -445 812 -445 812 -479.5 777 c 128,-1,42
 -514 742 -514 742 -564 742 c 0,43,44
 -606 742 -606 742 -640 770 c 1,45,-1
 -669 741 l 1,46,-1
 -620 689 l 2,47,48
 -609 679 -609 679 -619.5 670 c 128,-1,49
 -630 661 -630 661 -640 670 c 2,50,-1
 -689 721 l 1,51,-1
 -705 704 l 1,52,-1
 -655 653 l 2,53,54
 -645 643 -645 643 -655.5 634 c 128,-1,55
 -666 625 -666 625 -675 634 c 2,56,-1
 -724 685 l 1,0,1
-564 954 m 0,57,58
 -602 954 -602 954 -629.5 926.5 c 128,-1,59
 -657 899 -657 899 -657 861 c 0,60,61
 -657 822 -657 822 -629.5 795 c 128,-1,62
 -602 768 -602 768 -564 768 c 0,63,64
 -525 768 -525 768 -498 795.5 c 128,-1,65
 -471 823 -471 823 -471 861 c 0,66,67
 -471 899 -471 899 -498 926.5 c 128,-1,68
 -525 954 -525 954 -564 954 c 0,57,58
EndSplineSet
EndChar

StartChar: braceright
Encoding: 125 125 69
Width: 0
VWidth: 345
Flags: W
LayerCount: 2
Fore
SplineSet
-737 -131 m 1,0,1
 -721 -89 -721 -89 -708 -58.5 c 128,-1,2
 -695 -28 -695 -28 -683 -28 c 0,3,4
 -653 -24 -653 -24 -615.5 -22.5 c 128,-1,5
 -578 -21 -578 -21 -543 -21 c 0,6,7
 -520 -21 -520 -21 -522 -34 c 128,-1,8
 -524 -47 -524 -47 -540 -50 c 0,9,10
 -552 -52 -552 -52 -561.5 -61 c 128,-1,11
 -571 -70 -571 -70 -574 -74 c 0,12,13
 -609 -161 -609 -161 -628.5 -226 c 128,-1,14
 -648 -291 -648 -291 -679 -302 c 1,15,16
 -711 -306 -711 -306 -746 -307.5 c 128,-1,17
 -781 -309 -781 -309 -816 -302 c 1,18,19
 -831 -296 -831 -296 -826 -289 c 128,-1,20
 -821 -282 -821 -282 -812 -279 c 0,21,22
 -802 -277 -802 -277 -790 -256 c 0,23,24
 -780 -238 -780 -238 -771.5 -217.5 c 128,-1,25
 -763 -197 -763 -197 -754 -176 c 1,26,-1
 -1593 -176 l 1,27,-1
 -1644 -178 l 2,28,29
 -1671 -179 -1671 -179 -1693 -177 c 0,30,31
 -1714 -175 -1714 -175 -1714 -153 c 128,-1,32
 -1714 -131 -1714 -131 -1692 -131 c 2,33,-1
 -737 -131 l 1,0,1
EndSplineSet
EndChar

StartChar: plus
Encoding: 43 43 70
Width: 1
VWidth: 345
Flags: W
LayerCount: 2
Fore
SplineSet
-843 -92 m 1,0,1
 -839 -89 -839 -89 -834.5 -84 c 128,-1,2
 -830 -79 -830 -79 -826 -76 c 1,3,-1
 -876 -24 l 2,4,5
 -886 -14 -886 -14 -875.5 -5 c 128,-1,6
 -865 4 -865 4 -856 -5 c 2,7,-1
 -807 -56 l 1,8,-1
 -795 -45 l 1,9,-1
 -792 -39 l 1,10,11
 -781 -28 -781 -28 -770 -39 c 128,-1,12
 -759 -50 -759 -50 -771 -62 c 2,13,-1
 -788 -76 l 1,14,-1
 -739 -126 l 2,15,16
 -728 -136 -728 -136 -739 -145 c 128,-1,17
 -750 -154 -750 -154 -759 -144 c 2,18,-1
 -807 -95 l 1,19,-1
 -824 -112 l 1,20,-1
 -775 -161 l 2,21,22
 -764 -171 -764 -171 -775.5 -180 c 128,-1,23
 -787 -189 -787 -189 -795 -180 c 2,24,-1
 -843 -131 l 1,25,-1
 -859 -147 l 1,26,-1
 -811 -197 l 2,27,28
 -800 -207 -800 -207 -810.5 -216 c 128,-1,29
 -821 -225 -821 -225 -831 -216 c 2,30,-1
 -879 -166 l 1,31,-1
 -910 -196 l 1,32,33
 -885 -228 -885 -228 -884 -268 c 0,34,35
 -884 -317 -884 -317 -919 -352 c 128,-1,36
 -954 -387 -954 -387 -1003 -387 c 0,37,38
 -1052 -387 -1052 -387 -1087.5 -352.5 c 128,-1,39
 -1123 -318 -1123 -318 -1123 -268 c 0,40,41
 -1123 -219 -1123 -219 -1087.5 -184 c 128,-1,42
 -1052 -149 -1052 -149 -1003 -149 c 0,43,44
 -960 -149 -960 -149 -927 -177 c 1,45,-1
 -897 -147 l 1,46,-1
 -948 -95 l 2,47,48
 -958 -85 -958 -85 -947 -76.5 c 128,-1,49
 -936 -68 -936 -68 -928 -76 c 2,50,-1
 -878 -128 l 1,51,-1
 -862 -112 l 1,52,-1
 -912 -59 l 2,53,54
 -922 -49 -922 -49 -911 -40 c 128,-1,55
 -900 -31 -900 -31 -892 -40 c 2,56,-1
 -843 -92 l 1,0,1
-1003 -361 m 0,57,58
 -964 -361 -964 -361 -937 -334 c 128,-1,59
 -910 -307 -910 -307 -910 -268 c 256,60,61
 -910 -229 -910 -229 -937.5 -202 c 128,-1,62
 -965 -175 -965 -175 -1003 -175 c 0,63,64
 -1041 -175 -1041 -175 -1069 -202.5 c 128,-1,65
 -1097 -230 -1097 -230 -1097 -268 c 256,66,67
 -1097 -307 -1097 -307 -1069 -334 c 128,-1,68
 -1041 -361 -1041 -361 -1003 -361 c 0,57,58
EndSplineSet
EndChar

StartChar: M
Encoding: 77 77 71
Width: 0
VWidth: 345
Flags: W
LayerCount: 2
Fore
SplineSet
-1036 964 m 1,0,1
 -1108 1042 -1108 1042 -1108 1131 c 0,2,3
 -1108 1214 -1108 1214 -1036 1298 c 1,4,-1
 -1005 1298 l 1,5,6
 -1028 1264 -1028 1264 -1038 1245 c 0,7,8
 -1067 1190 -1067 1190 -1067 1131 c 0,9,10
 -1067 1048 -1067 1048 -1005 964 c 1,11,-1
 -1036 964 l 1,0,1
-488 964 m 1,12,-1
 -519 964 l 1,13,14
 -458 1047 -458 1047 -458 1131 c 0,15,16
 -458 1191 -458 1191 -486 1245 c 0,17,18
 -499 1268 -499 1268 -519 1297 c 1,19,-1
 -488 1297 l 1,20,21
 -416 1214 -416 1214 -416 1131 c 0,22,23
 -416 1043 -416 1043 -488 964 c 1,12,-1
-584 1002 m 2,24,-1
 -936 1002 l 2,25,26
 -941 1002 -941 1002 -942 1012 c 1,27,-1
 -798 1260 l 1,28,-1
 -729 1260 l 1,29,-1
 -581 1013 l 2,30,31
 -578 1010 -578 1010 -580 1006 c 128,-1,32
 -582 1002 -582 1002 -584 1002 c 2,24,-1
-670 1045 m 1,33,-1
 -776 1216 l 1,34,-1
 -873 1045 l 1,35,-1
 -670 1045 l 1,33,-1
EndSplineSet
EndChar

StartChar: t
Encoding: 116 116 72
Width: 1310
VWidth: 345
Flags: W
LayerCount: 2
Fore
SplineSet
1109 438 m 256,0,1
 1145 438 1145 438 1145 402 c 256,2,3
 1145 366 1145 366 1109 366 c 256,4,5
 1073 366 1073 366 1073 402 c 256,6,7
 1073 438 1073 438 1109 438 c 256,0,1
661 430 m 1,8,-1
 536 740 l 1,9,-1
 397 430 l 1,10,-1
 661 430 l 1,8,-1
757 366 m 1,11,-1
 333 366 l 1,12,-1
 557 866 l 1,13,-1
 757 366 l 1,11,-1
907 1070 m 1,14,15
 982 1069 982 1069 1022 1065.5 c 128,-1,16
 1062 1062 1062 1062 1103 1056 c 0,17,18
 1159 1048 1159 1048 1187 1034 c 0,19,20
 1204 1025 1204 1025 1219.5 1009 c 128,-1,21
 1235 993 1235 993 1239 974 c 0,22,23
 1248 932 1248 932 1231 899 c 128,-1,24
 1214 866 1214 866 1171 867 c 0,25,26
 1121 867 1121 867 1120 923 c 0,27,28
 1120 942 1120 942 1138 956 c 128,-1,29
 1156 970 1156 970 1177 965 c 0,30,31
 1214 956 1214 956 1211 975 c 0,32,33
 1207 998 1207 998 1176 1014 c 128,-1,34
 1145 1030 1145 1030 1110 1035 c 0,35,36
 1037 1046 1037 1046 1003.5 1046.5 c 128,-1,37
 970 1047 970 1047 907 1046 c 1,38,39
 903 986 903 986 859.5 945 c 128,-1,40
 816 904 816 904 756 904 c 0,41,42
 695 904 695 904 651 944 c 128,-1,43
 607 984 607 984 604 1044 c 1,44,45
 513 1045 513 1045 423 1039 c 128,-1,46
 333 1033 333 1033 242 1028 c 0,47,48
 219 1027 219 1027 217 1027 c 0,49,50
 213 1027 213 1027 205.5 1028.5 c 0,51,52
 198 1031 198 1031 198 1033 c 2,53,-1
 198 1046 l 2,54,55
 198 1048 198 1048 205 1050.5 c 128,-1,56
 212 1053 212 1053 217 1053 c 0,57,58
 314 1058 314 1058 409.5 1062.5 c 128,-1,59
 505 1067 505 1067 603 1068 c 1,60,61
 607 1127 607 1127 650.5 1168 c 128,-1,62
 694 1209 694 1209 754 1209 c 128,-1,63
 814 1209 814 1209 858 1169 c 128,-1,64
 902 1129 902 1129 907 1070 c 1,14,15
634 1068 m 1,65,-1
 876 1069 l 1,66,67
 872 1115 872 1115 837 1147 c 128,-1,68
 802 1179 802 1179 754 1179 c 128,-1,69
 706 1179 706 1179 672 1146.5 c 128,-1,70
 638 1114 638 1114 634 1068 c 1,65,-1
633 1044 m 1,71,72
 636 996 636 996 672 965 c 128,-1,73
 708 934 708 934 756 935 c 0,74,75
 803 935 803 935 837.5 967 c 128,-1,76
 872 999 872 999 876 1046 c 1,77,-1
 633 1044 l 1,71,72
859 661 m 0,78,79
 866 676 866 676 891.5 680 c 128,-1,80
 917 684 917 684 928 650 c 0,81,82
 932 635 932 635 926 616 c 128,-1,83
 920 597 920 597 913 587 c 0,84,85
 889 557 889 557 882 546 c 128,-1,86
 875 535 875 535 869 512 c 0,87,88
 861 484 861 484 867 464.5 c 128,-1,89
 873 445 873 445 876 436 c 0,90,91
 884 416 884 416 905 420 c 0,92,93
 917 421 917 421 931.5 441 c 128,-1,94
 946 461 946 461 960 458 c 128,-1,95
 974 455 974 455 976 435.5 c 128,-1,96
 978 416 978 416 966 393 c 0,97,98
 951 366 951 366 926 366 c 0,99,100
 919 366 919 366 903 367.5 c 128,-1,101
 887 369 887 369 882 375 c 0,102,103
 851 410 851 410 845 450 c 0,104,105
 838 492 838 492 838 516.5 c 128,-1,106
 838 541 838 541 841 578 c 0,107,108
 844 630 844 630 859 661 c 0,78,79
EndSplineSet
EndChar

StartChar: p
Encoding: 112 112 73
Width: 2612
VWidth: 345
Flags: W
LayerCount: 2
Fore
SplineSet
894 220 m 256,0,1
 928 220 928 220 928 186 c 0,2,3
 928 151 928 151 894 152 c 256,4,5
 860 152 860 152 859 186 c 0,6,7
 860 220 860 220 894 220 c 256,0,1
1046 220 m 0,8,9
 1081 220 1081 220 1081 186 c 0,10,11
 1081 151 1081 151 1046 152 c 0,12,13
 1012 152 1012 152 1012 186 c 128,-1,14
 1012 220 1012 220 1046 220 c 0,8,9
2002 565 m 0,15,16
 2030 565 2030 565 2060.5 564.5 c 128,-1,17
 2091 564 2091 564 2116 560 c 1,18,19
 2133 560 2133 560 2149 518 c 128,-1,20
 2165 476 2165 476 2193 435 c 0,21,22
 2203 420 2203 420 2211 419 c 0,23,24
 2218 417 2218 417 2222 412 c 128,-1,25
 2226 407 2226 407 2214 403 c 1,26,27
 2186 399 2186 399 2156.5 400 c 128,-1,28
 2127 401 2127 401 2102 403 c 1,29,30
 2077 411 2077 411 2066.5 440.5 c 128,-1,31
 2056 470 2056 470 2026 529 c 0,32,33
 2018 542 2018 542 1999 546 c 0,34,35
 1986 547 1986 547 1984 556 c 128,-1,36
 1982 565 1982 565 2002 565 c 0,15,16
1779 568 m 0,37,38
 1804 568 1804 568 1830.5 567 c 128,-1,39
 1857 566 1857 566 1879 563 c 0,40,41
 1894 563 1894 563 1911.5 520 c 128,-1,42
 1929 477 1929 477 1952 435 c 0,43,44
 1959 420 1959 420 1968 420 c 0,45,46
 1974 418 1974 418 1977.5 412.5 c 128,-1,47
 1981 407 1981 407 1971 404 c 1,48,49
 1946 400 1946 400 1920.5 400.5 c 128,-1,50
 1895 401 1895 401 1872 404 c 1,51,52
 1851 412 1851 412 1838.5 442.5 c 128,-1,53
 1826 473 1826 473 1801 532 c 0,54,55
 1799 535 1799 535 1792 542 c 128,-1,56
 1785 549 1785 549 1776 551 c 0,57,58
 1764 552 1764 552 1763 559.5 c 128,-1,59
 1762 567 1762 567 1779 568 c 0,37,38
366 486.5 m 128,-1,61
 371 494 371 494 376.5 494.5 c 128,-1,62
 382 495 382 495 389 491 c 128,-1,63
 396 487 396 487 405.5 482 c 128,-1,64
 415 477 415 477 430.5 474 c 128,-1,65
 446 471 446 471 475 471 c 2,66,-1
 1406 471 l 2,67,68
 1432 471 1432 471 1453 467 c 128,-1,69
 1474 463 1474 463 1491.5 454 c 128,-1,70
 1509 445 1509 445 1518.5 437.5 c 128,-1,71
 1528 430 1528 430 1544.5 412.5 c 128,-1,72
 1561 395 1561 395 1573 378.5 c 128,-1,73
 1585 362 1585 362 1578 346 c 1,74,75
 1571 336 1571 336 1561.5 342 c 128,-1,76
 1552 348 1552 348 1539 352.5 c 128,-1,77
 1526 357 1526 357 1511 359 c 128,-1,78
 1496 361 1496 361 1464 361 c 2,79,-1
 545 361 l 2,80,81
 524 361 524 361 507 363.5 c 128,-1,82
 490 366 490 366 480.5 369.5 c 128,-1,83
 471 373 471 373 460.5 378.5 c 128,-1,84
 450 384 450 384 437.5 392 c 128,-1,85
 425 400 425 400 411 414 c 128,-1,86
 397 428 397 428 383 446.5 c 128,-1,87
 369 465 369 465 365 472 c 128,-1,60
 361 479 361 479 366 486.5 c 128,-1,61
1034 770.5 m 128,-1,89
 1039 778 1039 778 1044.5 779 c 128,-1,90
 1050 780 1050 780 1056.5 776 c 128,-1,91
 1063 772 1063 772 1073 767 c 128,-1,92
 1083 762 1083 762 1098.5 759 c 128,-1,93
 1114 756 1114 756 1143 756 c 2,94,-1
 2074 756 l 2,95,96
 2100 756 2100 756 2121 751.5 c 128,-1,97
 2142 747 2142 747 2159.5 738 c 128,-1,98
 2177 729 2177 729 2186.5 721.5 c 128,-1,99
 2196 714 2196 714 2212.5 696.5 c 128,-1,100
 2229 679 2229 679 2241 662.5 c 128,-1,101
 2253 646 2253 646 2246 631 c 1,102,103
 2239 620 2239 620 2229.5 626.5 c 128,-1,104
 2220 633 2220 633 2207 637.5 c 128,-1,105
 2194 642 2194 642 2179 643.5 c 128,-1,106
 2164 645 2164 645 2132 645 c 2,107,-1
 1213 645 l 2,108,109
 1192 645 1192 645 1175 648 c 128,-1,110
 1158 651 1158 651 1148.5 654 c 128,-1,111
 1139 657 1139 657 1128.5 662.5 c 128,-1,112
 1118 668 1118 668 1105.5 676 c 128,-1,113
 1093 684 1093 684 1079 698 c 128,-1,114
 1065 712 1065 712 1051 730.5 c 128,-1,115
 1037 749 1037 749 1033 756 c 128,-1,88
 1029 763 1029 763 1034 770.5 c 128,-1,89
461 206 m 0,116,117
 535 206 535 206 609.5 206.5 c 128,-1,118
 684 207 684 207 757 208 c 1,119,120
 762 201 762 201 761 190 c 128,-1,121
 760 179 760 179 758 172 c 1,122,123
 743 169 743 169 659.5 169 c 128,-1,124
 576 169 576 169 515 169 c 1,125,126
 515 117 515 117 517 62.5 c 128,-1,127
 519 8 519 8 513 7 c 0,128,129
 498 7 498 7 480.5 5 c 128,-1,130
 463 3 463 3 450 7 c 0,131,132
 449 7 449 7 449 17 c 0,133,-1
 449.5 18 l 0,134,135
 450 19 450 19 450 20 c 0,136,137
 450 73 450 73 451 105.5 c 128,-1,138
 452 138 452 138 452 191 c 0,139,140
 451 205 451 205 461 206 c 0,116,117
EndSplineSet
EndChar

StartChar: semicolon
Encoding: 59 59 74
Width: 0
VWidth: 345
Flags: W
LayerCount: 2
Fore
SplineSet
-1625 -406 m 0,0,1
 -1788 -408 -1788 -408 -1938 -304.5 c 128,-1,2
 -2088 -201 -2088 -201 -2166 -62 c 1,3,-1
 -2144 -49 l 1,4,5
 -2024 -204 -2024 -204 -1892.5 -257.5 c 128,-1,6
 -1761 -311 -1761 -311 -1578 -311 c 0,7,8
 -1410 -311 -1410 -311 -1252.5 -247.5 c 128,-1,9
 -1095 -184 -1095 -184 -988 -49 c 1,10,-1
 -966 -66 l 1,11,12
 -1079 -236 -1079 -236 -1252 -320 c 128,-1,13
 -1425 -404 -1425 -404 -1625 -406 c 0,0,1
EndSplineSet
EndChar

StartChar: colon
Encoding: 58 58 75
Width: 4
VWidth: 345
Flags: W
LayerCount: 2
Fore
SplineSet
-1630 1315 m 0,0,1
 -1430 1313 -1430 1313 -1256.5 1229 c 128,-1,2
 -1083 1145 -1083 1145 -971 975 c 1,3,-1
 -993 958 l 1,4,5
 -1100 1093 -1100 1093 -1257 1156.5 c 128,-1,6
 -1414 1220 -1414 1220 -1583 1220 c 0,7,8
 -1766 1220 -1766 1220 -1897 1166.5 c 128,-1,9
 -2028 1113 -2028 1113 -2148 958 c 1,10,-1
 -2170 971 l 1,11,12
 -2093 1110 -2093 1110 -1943 1213 c 128,-1,13
 -1793 1316 -1793 1316 -1630 1315 c 0,0,1
EndSplineSet
EndChar

StartChar: k
Encoding: 107 107 76
Width: 4
VWidth: 345
Flags: W
LayerCount: 2
Fore
SplineSet
-703 877 m 2,0,-1
 -660 877 l 2,1,2
 -656 877 -656 877 -648 877 c 128,-1,3
 -640 877 -640 877 -638 875 c 0,4,5
 -635 872 -635 872 -639 871.5 c 128,-1,6
 -643 871 -643 871 -645 855 c 2,7,-1
 -649 821 l 2,8,9
 -651 799 -651 799 -670 799 c 2,10,-1
 -713 799 l 2,11,12
 -716 799 -716 799 -725.5 799.5 c 128,-1,13
 -735 800 -735 800 -736 803 c 0,14,15
 -736 807 -736 807 -732.5 809 c 128,-1,16
 -729 811 -729 811 -728 821 c 2,17,-1
 -723 855 l 2,18,19
 -721 877 -721 877 -703 877 c 2,0,-1
-565 840 m 0,20,21
 -565 854 -565 854 -556 855 c 0,22,23
 -496 855 -496 855 -436 855.5 c 128,-1,24
 -376 856 -376 856 -317 857 c 1,25,26
 -316 895 -316 895 -316 906.5 c 128,-1,27
 -316 918 -316 918 -316 961 c 0,28,29
 -316 975 -316 975 -307 976 c 0,30,31
 -232 976 -232 976 -157 976.5 c 128,-1,32
 -82 977 -82 977 -8 978 c 1,33,34
 -3 971 -3 971 -4 960 c 128,-1,35
 -5 949 -5 949 -8 941 c 1,36,37
 -23 938 -23 938 -107 938 c 128,-1,38
 -191 938 -191 938 -253 938 c 1,39,40
 -253 886 -253 886 -250.5 855.5 c 128,-1,41
 -248 825 -248 825 -254 824 c 0,42,43
 -262 823 -262 823 -269.5 821.5 c 128,-1,44
 -277 820 -277 820 -316 821 c 1,45,46
 -357 820 -357 820 -409.5 819 c 128,-1,47
 -462 818 -462 818 -501 818 c 1,48,49
 -501 811 -501 811 -501 804 c 1,50,-1
 -501 804 l 1,51,52
 -500 704 -500 704 -502 704 c 0,53,54
 -510 703 -510 703 -518 701 c 128,-1,55
 -526 699 -526 699 -565 700 c 0,56,57
 -606 700 -606 700 -658.5 698.5 c 128,-1,58
 -711 697 -711 697 -750 697 c 1,59,60
 -750 645 -750 645 -748.5 615 c 128,-1,61
 -747 585 -747 585 -753 585 c 0,62,63
 -768 585 -768 585 -785.5 582.5 c 128,-1,64
 -803 580 -803 580 -816 585 c 0,65,66
 -817 585 -817 585 -818 595 c 0,67,68
 -817 595.5 l 0,69,70
 -816 596 -816 596 -816 597 c 0,71,72
 -816 650 -816 650 -815 658 c 128,-1,73
 -814 666 -814 666 -814 720 c 0,74,75
 -814 733 -814 733 -804 735 c 1,76,77
 -745 735 -745 735 -685 735.5 c 128,-1,78
 -625 736 -625 736 -566 737 c 1,79,80
 -566 763 -566 763 -565.5 788.5 c 128,-1,81
 -565 814 -565 814 -565 840 c 0,20,21
EndSplineSet
EndChar

StartChar: l
Encoding: 108 108 77
Width: 4
VWidth: 345
Flags: W
LayerCount: 2
Fore
SplineSet
-176 1130 m 2,0,-1
 -133 1130 l 2,1,2
 -129 1130 -129 1130 -121 1129.5 c 128,-1,3
 -113 1129 -113 1129 -111 1127 c 0,4,5
 -108 1124 -108 1124 -112 1124 c 128,-1,6
 -116 1124 -116 1124 -119 1108 c 2,7,-1
 -123 1074 l 2,8,9
 -126 1052 -126 1052 -144 1052 c 2,10,-1
 -187 1052 l 2,11,12
 -190 1052 -190 1052 -199.5 1052.5 c 128,-1,13
 -209 1053 -209 1053 -209 1056 c 0,14,15
 -209 1060 -209 1060 -206 1061.5 c 128,-1,16
 -203 1063 -203 1063 -202 1074 c 2,17,-1
 -197 1108 l 2,18,19
 -194 1130 -194 1130 -176 1130 c 2,0,-1
-565 840 m 0,20,21
 -565 854 -565 854 -556 855 c 0,22,23
 -496 855 -496 855 -436 855.5 c 128,-1,24
 -376 856 -376 856 -317 857 c 1,25,26
 -316 895 -316 895 -316 906.5 c 128,-1,27
 -316 918 -316 918 -316 961 c 0,28,29
 -316 975 -316 975 -307 976 c 0,30,31
 -232 976 -232 976 -157 976.5 c 128,-1,32
 -82 977 -82 977 -8 978 c 1,33,34
 -3 971 -3 971 -4 960 c 128,-1,35
 -5 949 -5 949 -8 941 c 1,36,37
 -23 938 -23 938 -107 938 c 128,-1,38
 -191 938 -191 938 -253 938 c 1,39,40
 -253 886 -253 886 -250.5 855.5 c 128,-1,41
 -248 825 -248 825 -254 824 c 0,42,43
 -262 823 -262 823 -269.5 821.5 c 128,-1,44
 -277 820 -277 820 -316 821 c 1,45,46
 -357 820 -357 820 -409.5 819 c 128,-1,47
 -462 818 -462 818 -501 818 c 1,48,49
 -501 811 -501 811 -501 804 c 1,50,-1
 -501 804 l 1,51,52
 -500 704 -500 704 -502 704 c 0,53,54
 -510 703 -510 703 -518 701 c 128,-1,55
 -526 699 -526 699 -565 700 c 0,56,57
 -606 700 -606 700 -658.5 698.5 c 128,-1,58
 -711 697 -711 697 -750 697 c 1,59,60
 -750 645 -750 645 -748.5 615 c 128,-1,61
 -747 585 -747 585 -753 585 c 0,62,63
 -768 585 -768 585 -785.5 582.5 c 128,-1,64
 -803 580 -803 580 -816 585 c 0,65,66
 -817 585 -817 585 -818 595 c 0,67,68
 -817 595.5 l 0,69,70
 -816 596 -816 596 -816 597 c 0,71,72
 -816 650 -816 650 -815 658 c 128,-1,73
 -814 666 -814 666 -814 720 c 0,74,75
 -814 733 -814 733 -804 735 c 1,76,77
 -745 735 -745 735 -685 735.5 c 128,-1,78
 -625 736 -625 736 -566 737 c 1,79,80
 -566 763 -566 763 -565.5 788.5 c 128,-1,81
 -565 814 -565 814 -565 840 c 0,20,21
EndSplineSet
EndChar

StartChar: K
Encoding: 75 75 78
Width: 302
VWidth: 345
Flags: W
LayerCount: 2
Fore
SplineSet
-411 1061 m 2,0,-1
 -368 1061 l 2,1,2
 -364 1061 -364 1061 -356 1061 c 128,-1,3
 -348 1061 -348 1061 -346 1058 c 0,4,5
 -343 1055 -343 1055 -347 1055 c 128,-1,6
 -351 1055 -351 1055 -354 1039 c 2,7,-1
 -358 1005 l 2,8,9
 -360 983 -360 983 -379 983 c 2,10,-1
 -421 983 l 2,11,12
 -424 983 -424 983 -434 983.5 c 128,-1,13
 -444 984 -444 984 -444 988 c 128,-1,14
 -444 992 -444 992 -441 993 c 128,-1,15
 -438 994 -438 994 -437 1005 c 2,16,-1
 -432 1039 l 2,17,18
 -429 1061 -429 1061 -411 1061 c 2,0,-1
-273 1025 m 0,19,20
 -273 1038 -273 1038 -264 1039 c 0,21,22
 -204 1039 -204 1039 -144.5 1039.5 c 128,-1,23
 -85 1040 -85 1040 -26 1041 c 1,24,25
 -25 1078 -25 1078 -25 1088.5 c 128,-1,26
 -25 1099 -25 1099 -25 1140 c 0,27,28
 -25 1153 -25 1153 -16 1155 c 0,29,30
 58 1155 58 1155 133 1155.5 c 0,31,32
 208 1155 208 1155 283 1157 c 1,33,34
 288 1150 288 1150 287 1139.5 c 128,-1,35
 286 1129 286 1129 283 1122 c 1,36,37
 268 1119 268 1119 184 1119 c 128,-1,38
 100 1119 100 1119 38 1119 c 1,39,40
 38 1069 38 1069 40.5 1039.5 c 128,-1,41
 43 1010 43 1010 37 1010 c 0,42,43
 28 1009 28 1009 21 1007 c 128,-1,44
 14 1005 14 1005 -24 1006 c 1,45,46
 -65 1005 -65 1005 -117.5 1004 c 128,-1,47
 -170 1003 -170 1003 -210 1003 c 1,48,49
 -210 996 -210 996 -210 990 c 1,50,-1
 -210 990 l 1,51,52
 -209 894 -209 894 -211 893 c 0,53,54
 -219 892 -219 892 -226.5 890 c 128,-1,55
 -234 888 -234 888 -273 890 c 1,56,57
 -314 889 -314 889 -366.5 888 c 128,-1,58
 -419 887 -419 887 -459 887 c 1,59,60
 -459 837 -459 837 -457.5 808 c 128,-1,61
 -456 779 -456 779 -461 779 c 0,62,63
 -476 779 -476 779 -494 776.5 c 128,-1,64
 -512 774 -512 774 -525 779 c 0,65,66
 -526 779 -526 779 -526 788 c 1,67,68
 -525.5 789 l 0,69,70
 -525 790 -525 790 -525 791 c 0,71,72
 -525 842 -525 842 -523.5 849.5 c 128,-1,73
 -522 857 -522 857 -522 908 c 0,74,75
 -522 921 -522 921 -513 923 c 0,76,77
 -454 923 -454 923 -394 923.5 c 128,-1,78
 -334 924 -334 924 -274 925 c 1,79,80
 -274 950 -274 950 -273.5 975 c 128,-1,81
 -273 1000 -273 1000 -273 1025 c 0,19,20
EndSplineSet
EndChar

StartChar: L
Encoding: 76 76 79
Width: 302
VWidth: 345
Flags: W
LayerCount: 2
Fore
SplineSet
115 1314 m 2,0,-1
 158 1314 l 2,1,2
 161 1314 161 1314 169 1313.5 c 128,-1,3
 177 1313 177 1313 180 1311 c 0,4,5
 183 1308 183 1308 178.5 1307.5 c 128,-1,6
 174 1307 174 1307 172 1291 c 2,7,-1
 168 1257 l 2,8,9
 165 1235 165 1235 147 1235 c 2,10,-1
 104 1235 l 2,11,12
 100 1235 100 1235 91 1235.5 c 128,-1,13
 82 1236 82 1236 82 1240 c 128,-1,14
 82 1244 82 1244 85 1245.5 c 128,-1,15
 88 1247 88 1247 89 1257 c 2,16,-1
 94 1291 l 2,17,18
 97 1314 97 1314 115 1314 c 2,0,-1
-273 1025 m 0,19,20
 -273 1038 -273 1038 -264 1039 c 0,21,22
 -204 1039 -204 1039 -144.5 1039.5 c 128,-1,23
 -85 1040 -85 1040 -26 1041 c 1,24,25
 -25 1078 -25 1078 -25 1088.5 c 128,-1,26
 -25 1099 -25 1099 -25 1140 c 0,27,28
 -25 1153 -25 1153 -16 1155 c 0,29,30
 58 1155 58 1155 133 1155.5 c 0,31,32
 208 1155 208 1155 283 1157 c 1,33,34
 288 1150 288 1150 287 1139.5 c 128,-1,35
 286 1129 286 1129 283 1122 c 1,36,37
 268 1119 268 1119 184 1119 c 128,-1,38
 100 1119 100 1119 38 1119 c 1,39,40
 38 1069 38 1069 40.5 1039.5 c 128,-1,41
 43 1010 43 1010 37 1010 c 0,42,43
 28 1009 28 1009 21 1007 c 128,-1,44
 14 1005 14 1005 -24 1006 c 1,45,46
 -65 1005 -65 1005 -117.5 1004 c 128,-1,47
 -170 1003 -170 1003 -210 1003 c 1,48,49
 -210 996 -210 996 -210 990 c 1,50,-1
 -210 990 l 1,51,52
 -209 894 -209 894 -211 893 c 0,53,54
 -219 892 -219 892 -226.5 890 c 128,-1,55
 -234 888 -234 888 -273 890 c 1,56,57
 -314 889 -314 889 -366.5 888 c 128,-1,58
 -419 887 -419 887 -459 887 c 1,59,60
 -459 837 -459 837 -457.5 808 c 128,-1,61
 -456 779 -456 779 -461 779 c 0,62,63
 -476 779 -476 779 -494 776.5 c 128,-1,64
 -512 774 -512 774 -525 779 c 0,65,66
 -526 779 -526 779 -526 788 c 1,67,68
 -525.5 789 l 0,69,70
 -525 790 -525 790 -525 791 c 0,71,72
 -525 842 -525 842 -523.5 849.5 c 128,-1,73
 -522 857 -522 857 -522 908 c 0,74,75
 -522 921 -522 921 -513 923 c 0,76,77
 -454 923 -454 923 -394 923.5 c 128,-1,78
 -334 924 -334 924 -274 925 c 1,79,80
 -274 950 -274 950 -273.5 975 c 128,-1,81
 -273 1000 -273 1000 -273 1025 c 0,19,20
EndSplineSet
EndChar

StartChar: asciitilde
Encoding: 126 126 80
Width: 0
VWidth: 345
Flags: W
LayerCount: 2
Fore
SplineSet
-1231 964 m 1,0,1
 -1303 1042 -1303 1042 -1303 1131 c 0,2,3
 -1303 1214 -1303 1214 -1231 1298 c 1,4,-1
 -1201 1298 l 1,5,6
 -1224 1264 -1224 1264 -1233 1245 c 0,7,8
 -1262 1190 -1262 1190 -1262 1131 c 0,9,10
 -1262 1048 -1262 1048 -1201 964 c 1,11,-1
 -1231 964 l 1,0,1
-464 964 m 1,12,-1
 -494 964 l 1,13,14
 -433 1047 -433 1047 -433 1131 c 0,15,16
 -433 1191 -433 1191 -461 1245 c 0,17,18
 -474 1268 -474 1268 -494 1297 c 1,19,-1
 -464 1297 l 1,20,21
 -392 1214 -392 1214 -392 1131 c 0,22,23
 -392 1043 -392 1043 -464 964 c 1,12,-1
-814 1002 m 2,24,-1
 -1165 1002 l 2,25,26
 -1170 1002 -1170 1002 -1171 1012 c 1,27,-1
 -1028 1260 l 1,28,-1
 -958 1260 l 1,29,-1
 -810 1013 l 2,30,31
 -807 1010 -807 1010 -809.5 1006 c 128,-1,32
 -812 1002 -812 1002 -814 1002 c 2,24,-1
-899 1045 m 1,33,-1
 -1006 1216 l 1,34,-1
 -1102 1045 l 1,35,-1
 -899 1045 l 1,33,-1
-778 1084 m 1,36,-1
 -778 1112 l 1,37,38
 -734 1090 -734 1090 -716.5 1079 c 128,-1,39
 -699 1068 -699 1068 -663 1040 c 1,40,-1
 -663 1298 l 1,41,-1
 -626 1298 l 1,42,-1
 -626 1040 l 1,43,44
 -586 1078 -586 1078 -511 1113 c 1,45,-1
 -511 1084 l 1,46,47
 -564 1036 -564 1036 -592 1002 c 128,-1,48
 -620 968 -620 968 -637 931 c 1,49,-1
 -654 931 l 1,50,51
 -668 963 -668 963 -696 999 c 128,-1,52
 -724 1035 -724 1035 -778 1084 c 1,36,-1
EndSplineSet
EndChar

StartChar: exclam
Encoding: 33 33 81
Width: 0
VWidth: 345
Flags: W
LayerCount: 2
Fore
SplineSet
-1231 964 m 1,0,1
 -1303 1042 -1303 1042 -1303 1131 c 0,2,3
 -1303 1214 -1303 1214 -1231 1298 c 1,4,-1
 -1201 1298 l 1,5,6
 -1224 1264 -1224 1264 -1233 1245 c 0,7,8
 -1262 1190 -1262 1190 -1262 1131 c 0,9,10
 -1262 1048 -1262 1048 -1201 964 c 1,11,-1
 -1231 964 l 1,0,1
-464 964 m 1,12,-1
 -494 964 l 1,13,14
 -433 1047 -433 1047 -433 1131 c 0,15,16
 -433 1191 -433 1191 -461 1245 c 0,17,18
 -474 1268 -474 1268 -494 1297 c 1,19,-1
 -464 1297 l 1,20,21
 -392 1214 -392 1214 -392 1131 c 0,22,23
 -392 1043 -392 1043 -464 964 c 1,12,-1
-1078 1082 m 1,24,-1
 -1078 1002 l 1,25,-1
 -1148 1002 l 1,26,-1
 -1148 1260 l 1,27,-1
 -1078 1260 l 1,28,-1
 -1078 1137 l 1,29,-1
 -869 1260 l 1,30,-1
 -783 1260 l 1,31,-1
 -963 1151 l 1,32,-1
 -753 1002 l 1,33,-1
 -863 1002 l 1,34,-1
 -1022 1116 l 1,35,-1
 -1078 1082 l 1,24,-1
-763 1084 m 1,36,-1
 -763 1112 l 1,37,38
 -719 1090 -719 1090 -701.5 1079 c 128,-1,39
 -684 1068 -684 1068 -648 1040 c 1,40,-1
 -648 1298 l 1,41,-1
 -611 1298 l 1,42,-1
 -611 1040 l 1,43,44
 -571 1078 -571 1078 -497 1113 c 1,45,-1
 -497 1084 l 1,46,47
 -550 1036 -550 1036 -577.5 1002 c 128,-1,48
 -605 968 -605 968 -623 931 c 1,49,-1
 -640 931 l 1,50,51
 -654 963 -654 963 -681.5 999 c 128,-1,52
 -709 1035 -709 1035 -763 1084 c 1,36,-1
EndSplineSet
EndChar

StartChar: one
Encoding: 49 49 82
Width: 0
VWidth: 345
Flags: W
LayerCount: 2
Fore
SplineSet
-938 964 m 1,0,1
 -1010 1042 -1010 1042 -1010 1131 c 0,2,3
 -1010 1214 -1010 1214 -938 1298 c 1,4,-1
 -908 1298 l 1,5,6
 -931 1264 -931 1264 -940 1245 c 0,7,8
 -969 1190 -969 1190 -969 1131 c 0,9,10
 -969 1048 -969 1048 -908 964 c 1,11,-1
 -938 964 l 1,0,1
-171 964 m 1,12,-1
 -201 964 l 1,13,14
 -140 1047 -140 1047 -140 1131 c 0,15,16
 -140 1191 -140 1191 -168 1245 c 0,17,18
 -181 1268 -181 1268 -201 1297 c 1,19,-1
 -171 1297 l 1,20,21
 -99 1214 -99 1214 -99 1131 c 0,22,23
 -99 1043 -99 1043 -171 964 c 1,12,-1
-785 1082 m 1,24,-1
 -785 1002 l 1,25,-1
 -855 1002 l 1,26,-1
 -855 1260 l 1,27,-1
 -785 1260 l 1,28,-1
 -785 1137 l 1,29,-1
 -576 1260 l 1,30,-1
 -490 1260 l 1,31,-1
 -670 1151 l 1,32,-1
 -460 1002 l 1,33,-1
 -570 1002 l 1,34,-1
 -729 1116 l 1,35,-1
 -785 1082 l 1,24,-1
-470 1084 m 1,36,-1
 -470 1112 l 1,37,38
 -426 1090 -426 1090 -408.5 1079 c 128,-1,39
 -391 1068 -391 1068 -355 1040 c 1,40,-1
 -355 1298 l 1,41,-1
 -318 1298 l 1,42,-1
 -318 1040 l 1,43,44
 -278 1078 -278 1078 -204 1113 c 1,45,-1
 -204 1084 l 1,46,47
 -257 1036 -257 1036 -284.5 1002 c 128,-1,48
 -312 968 -312 968 -330 931 c 1,49,-1
 -347 931 l 1,50,51
 -361 963 -361 963 -388.5 999 c 128,-1,52
 -416 1035 -416 1035 -470 1084 c 1,36,-1
EndSplineSet
EndChar

StartChar: grave
Encoding: 96 96 83
Width: 0
VWidth: 345
Flags: W
LayerCount: 2
Fore
SplineSet
-914 964 m 1,0,1
 -986 1042 -986 1042 -986 1131 c 0,2,3
 -986 1214 -986 1214 -914 1298 c 1,4,-1
 -883 1298 l 1,5,6
 -906 1264 -906 1264 -916 1245 c 0,7,8
 -945 1190 -945 1190 -945 1131 c 0,9,10
 -945 1048 -945 1048 -883 964 c 1,11,-1
 -914 964 l 1,0,1
-146 964 m 1,12,-1
 -177 964 l 1,13,14
 -116 1047 -116 1047 -116 1131 c 0,15,16
 -116 1191 -116 1191 -144 1245 c 0,17,18
 -157 1268 -157 1268 -177 1297 c 1,19,-1
 -146 1297 l 1,20,21
 -74 1214 -74 1214 -74 1131 c 0,22,23
 -74 1043 -74 1043 -146 964 c 1,12,-1
-497 1002 m 2,24,-1
 -848 1002 l 2,25,26
 -853 1002 -853 1002 -854 1012 c 1,27,-1
 -710 1260 l 1,28,-1
 -641 1260 l 1,29,-1
 -493 1013 l 2,30,31
 -490 1010 -490 1010 -492.5 1006 c 128,-1,32
 -495 1002 -495 1002 -497 1002 c 2,24,-1
-582 1045 m 1,33,-1
 -688 1216 l 1,34,-1
 -785 1045 l 1,35,-1
 -582 1045 l 1,33,-1
-460 1084 m 1,36,-1
 -460 1112 l 1,37,38
 -416 1090 -416 1090 -398.5 1079 c 128,-1,39
 -381 1068 -381 1068 -346 1040 c 1,40,-1
 -346 1298 l 1,41,-1
 -309 1298 l 1,42,-1
 -309 1040 l 1,43,44
 -269 1078 -269 1078 -194 1113 c 1,45,-1
 -194 1084 l 1,46,47
 -247 1036 -247 1036 -275 1002 c 128,-1,48
 -303 968 -303 968 -320 931 c 1,49,-1
 -337 931 l 1,50,51
 -351 963 -351 963 -378.5 999 c 128,-1,52
 -406 1035 -406 1035 -460 1084 c 1,36,-1
EndSplineSet
EndChar
